SplineFontDB: 3.2
FontName: TractorFeedSans-Regular
FullName: Tractor Feed Sans
FamilyName: Tractor Feed Sans
Weight: Medium

StartChar: exclam
Encoding: 33 33 1
Width: 600
Flags: HW
LayerCount: 2
Back
Fore
SplineSet
270 500 m 0
 287 500 312 519 312 542 c 0
 312 565 287 584 270 584 c 0
 253 584 228 565 228 542 c 0
 228 519 253 500 270 500 c 0
270 416 m 0
 287 416 312 435 312 458 c 0
 312 481 287 500 270 500 c 0
 253 500 228 481 228 458 c 0
 228 435 253 416 270 416 c 0
270 333 m 0
 287 333 312 352 312 375 c 0
 312 398 287 417 270 417 c 0
 253 417 228 398 228 375 c 0
 228 352 253 333 270 333 c 0
270 250 m 0
 287 250 312 269 312 292 c 0
 312 315 287 334 270 334 c 0
 253 334 228 315 228 292 c 0
 228 269 253 250 270 250 c 0
270 166 m 0
 287 166 312 185 312 208 c 0
 312 231 287 250 270 250 c 0
 253 250 228 231 228 208 c 0
 228 185 253 166 270 166 c 0
270 0 m 0
 287 0 312 19 312 42 c 0
 312 65 287 84 270 84 c 0
 253 84 228 65 228 42 c 0
 228 19 253 0 270 0 c 0
EndSplineSet
EndChar

StartChar: quotedbl
Encoding: 34 34 2
Width: 600
Flags: HW
LayerCount: 2
Back
Fore
SplineSet
210 500 m 0
 227 500 252 519 252 542 c 0
 252 565 227 584 210 584 c 0
 193 584 168 565 168 542 c 0
 168 519 193 500 210 500 c 0
330 500 m 0
 347 500 372 519 372 542 c 0
 372 565 347 584 330 584 c 0
 313 584 288 565 288 542 c 0
 288 519 313 500 330 500 c 0
210 416 m 0
 227 416 252 435 252 458 c 0
 252 481 227 500 210 500 c 0
 193 500 168 481 168 458 c 0
 168 435 193 416 210 416 c 0
330 416 m 0
 347 416 372 435 372 458 c 0
 372 481 347 500 330 500 c 0
 313 500 288 481 288 458 c 0
 288 435 313 416 330 416 c 0
210 333 m 0
 227 333 252 352 252 375 c 0
 252 398 227 417 210 417 c 0
 193 417 168 398 168 375 c 0
 168 352 193 333 210 333 c 0
330 333 m 0
 347 333 372 352 372 375 c 0
 372 398 347 417 330 417 c 0
 313 417 288 398 288 375 c 0
 288 352 313 333 330 333 c 0
EndSplineSet
EndChar

StartChar: numbersign
Encoding: 35 35 3
Width: 600
Flags: HW
LayerCount: 2
Back
Fore
SplineSet
210 500 m 0
 227 500 252 519 252 542 c 0
 252 565 227 584 210 584 c 0
 193 584 168 565 168 542 c 0
 168 519 193 500 210 500 c 0
330 500 m 0
 347 500 372 519 372 542 c 0
 372 565 347 584 330 584 c 0
 313 584 288 565 288 542 c 0
 288 519 313 500 330 500 c 0
210 416 m 0
 227 416 252 435 252 458 c 0
 252 481 227 500 210 500 c 0
 193 500 168 481 168 458 c 0
 168 435 193 416 210 416 c 0
330 416 m 0
 347 416 372 435 372 458 c 0
 372 481 347 500 330 500 c 0
 313 500 288 481 288 458 c 0
 288 435 313 416 330 416 c 0
90 333 m 0
 107 333 132 352 132 375 c 0
 132 398 107 417 90 417 c 0
 73 417 48 398 48 375 c 0
 48 352 73 333 90 333 c 0
210 333 m 0
 227 333 252 352 252 375 c 0
 252 398 227 417 210 417 c 0
 193 417 168 398 168 375 c 0
 168 352 193 333 210 333 c 0
330 333 m 0
 347 333 372 352 372 375 c 0
 372 398 347 417 330 417 c 0
 313 417 288 398 288 375 c 0
 288 352 313 333 330 333 c 0
450 333 m 0
 467 333 492 352 492 375 c 0
 492 398 467 417 450 417 c 0
 433 417 408 398 408 375 c 0
 408 352 433 333 450 333 c 0
210 250 m 0
 227 250 252 269 252 292 c 0
 252 315 227 334 210 334 c 0
 193 334 168 315 168 292 c 0
 168 269 193 250 210 250 c 0
330 250 m 0
 347 250 372 269 372 292 c 0
 372 315 347 334 330 334 c 0
 313 334 288 315 288 292 c 0
 288 269 313 250 330 250 c 0
90 166 m 0
 107 166 132 185 132 208 c 0
 132 231 107 250 90 250 c 0
 73 250 48 231 48 208 c 0
 48 185 73 166 90 166 c 0
210 166 m 0
 227 166 252 185 252 208 c 0
 252 231 227 250 210 250 c 0
 193 250 168 231 168 208 c 0
 168 185 193 166 210 166 c 0
330 166 m 0
 347 166 372 185 372 208 c 0
 372 231 347 250 330 250 c 0
 313 250 288 231 288 208 c 0
 288 185 313 166 330 166 c 0
450 166 m 0
 467 166 492 185 492 208 c 0
 492 231 467 250 450 250 c 0
 433 250 408 231 408 208 c 0
 408 185 433 166 450 166 c 0
210 83 m 0
 227 83 252 102 252 125 c 0
 252 148 227 167 210 167 c 0
 193 167 168 148 168 125 c 0
 168 102 193 83 210 83 c 0
330 83 m 0
 347 83 372 102 372 125 c 0
 372 148 347 167 330 167 c 0
 313 167 288 148 288 125 c 0
 288 102 313 83 330 83 c 0
210 0 m 0
 227 0 252 19 252 42 c 0
 252 65 227 84 210 84 c 0
 193 84 168 65 168 42 c 0
 168 19 193 0 210 0 c 0
330 0 m 0
 347 0 372 19 372 42 c 0
 372 65 347 84 330 84 c 0
 313 84 288 65 288 42 c 0
 288 19 313 0 330 0 c 0
EndSplineSet
EndChar

StartChar: dollar
Encoding: 36 36 4
Width: 600
Flags: HW
LayerCount: 2
Back
Fore
SplineSet
270 500 m 0
 287 500 312 519 312 542 c 0
 312 565 287 584 270 584 c 0
 253 584 228 565 228 542 c 0
 228 519 253 500 270 500 c 0
150 416 m 0
 167 416 192 435 192 458 c 0
 192 481 167 500 150 500 c 0
 133 500 108 481 108 458 c 0
 108 435 133 416 150 416 c 0
270 416 m 0
 287 416 312 435 312 458 c 0
 312 481 287 500 270 500 c 0
 253 500 228 481 228 458 c 0
 228 435 253 416 270 416 c 0
390 416 m 0
 407 416 432 435 432 458 c 0
 432 481 407 500 390 500 c 0
 373 500 348 481 348 458 c 0
 348 435 373 416 390 416 c 0
90 333 m 0
 107 333 132 352 132 375 c 0
 132 398 107 417 90 417 c 0
 73 417 48 398 48 375 c 0
 48 352 73 333 90 333 c 0
270 333 m 0
 287 333 312 352 312 375 c 0
 312 398 287 417 270 417 c 0
 253 417 228 398 228 375 c 0
 228 352 253 333 270 333 c 0
150 250 m 0
 167 250 192 269 192 292 c 0
 192 315 167 334 150 334 c 0
 133 334 108 315 108 292 c 0
 108 269 133 250 150 250 c 0
270 250 m 0
 287 250 312 269 312 292 c 0
 312 315 287 334 270 334 c 0
 253 334 228 315 228 292 c 0
 228 269 253 250 270 250 c 0
390 250 m 0
 407 250 432 269 432 292 c 0
 432 315 407 334 390 334 c 0
 373 334 348 315 348 292 c 0
 348 269 373 250 390 250 c 0
270 166 m 0
 287 166 312 185 312 208 c 0
 312 231 287 250 270 250 c 0
 253 250 228 231 228 208 c 0
 228 185 253 166 270 166 c 0
450 166 m 0
 467 166 492 185 492 208 c 0
 492 231 467 250 450 250 c 0
 433 250 408 231 408 208 c 0
 408 185 433 166 450 166 c 0
150 83 m 0
 167 83 192 102 192 125 c 0
 192 148 167 167 150 167 c 0
 133 167 108 148 108 125 c 0
 108 102 133 83 150 83 c 0
270 83 m 0
 287 83 312 102 312 125 c 0
 312 148 287 167 270 167 c 0
 253 167 228 148 228 125 c 0
 228 102 253 83 270 83 c 0
390 83 m 0
 407 83 432 102 432 125 c 0
 432 148 407 167 390 167 c 0
 373 167 348 148 348 125 c 0
 348 102 373 83 390 83 c 0
270 0 m 0
 287 0 312 19 312 42 c 0
 312 65 287 84 270 84 c 0
 253 84 228 65 228 42 c 0
 228 19 253 0 270 0 c 0
EndSplineSet
EndChar

StartChar: percent
Encoding: 37 37 5
Width: 600
Flags: HW
LayerCount: 2
Back
Fore
SplineSet
90 500 m 0
 107 500 132 519 132 542 c 0
 132 565 107 584 90 584 c 0
 73 584 48 565 48 542 c 0
 48 519 73 500 90 500 c 0
210 500 m 0
 227 500 252 519 252 542 c 0
 252 565 227 584 210 584 c 0
 193 584 168 565 168 542 c 0
 168 519 193 500 210 500 c 0
450 500 m 0
 467 500 492 519 492 542 c 0
 492 565 467 584 450 584 c 0
 433 584 408 565 408 542 c 0
 408 519 433 500 450 500 c 0
90 416 m 0
 107 416 132 435 132 458 c 0
 132 481 107 500 90 500 c 0
 73 500 48 481 48 458 c 0
 48 435 73 416 90 416 c 0
210 416 m 0
 227 416 252 435 252 458 c 0
 252 481 227 500 210 500 c 0
 193 500 168 481 168 458 c 0
 168 435 193 416 210 416 c 0
390 416 m 0
 407 416 432 435 432 458 c 0
 432 481 407 500 390 500 c 0
 373 500 348 481 348 458 c 0
 348 435 373 416 390 416 c 0
330 333 m 0
 347 333 372 352 372 375 c 0
 372 398 347 417 330 417 c 0
 313 417 288 398 288 375 c 0
 288 352 313 333 330 333 c 0
270 250 m 0
 287 250 312 269 312 292 c 0
 312 315 287 334 270 334 c 0
 253 334 228 315 228 292 c 0
 228 269 253 250 270 250 c 0
210 166 m 0
 227 166 252 185 252 208 c 0
 252 231 227 250 210 250 c 0
 193 250 168 231 168 208 c 0
 168 185 193 166 210 166 c 0
150 83 m 0
 167 83 192 102 192 125 c 0
 192 148 167 167 150 167 c 0
 133 167 108 148 108 125 c 0
 108 102 133 83 150 83 c 0
330 83 m 0
 347 83 372 102 372 125 c 0
 372 148 347 167 330 167 c 0
 313 167 288 148 288 125 c 0
 288 102 313 83 330 83 c 0
450 83 m 0
 467 83 492 102 492 125 c 0
 492 148 467 167 450 167 c 0
 433 167 408 148 408 125 c 0
 408 102 433 83 450 83 c 0
90 0 m 0
 107 0 132 19 132 42 c 0
 132 65 107 84 90 84 c 0
 73 84 48 65 48 42 c 0
 48 19 73 0 90 0 c 0
330 0 m 0
 347 0 372 19 372 42 c 0
 372 65 347 84 330 84 c 0
 313 84 288 65 288 42 c 0
 288 19 313 0 330 0 c 0
450 0 m 0
 467 0 492 19 492 42 c 0
 492 65 467 84 450 84 c 0
 433 84 408 65 408 42 c 0
 408 19 433 0 450 0 c 0
EndSplineSet
EndChar

StartChar: ampersand
Encoding: 38 38 6
Width: 600
Flags: HW
LayerCount: 2
Back
Fore
SplineSet
210 500 m 0
 227 500 252 519 252 542 c 0
 252 565 227 584 210 584 c 0
 193 584 168 565 168 542 c 0
 168 519 193 500 210 500 c 0
330 500 m 0
 347 500 372 519 372 542 c 0
 372 565 347 584 330 584 c 0
 313 584 288 565 288 542 c 0
 288 519 313 500 330 500 c 0
150 416 m 0
 167 416 192 435 192 458 c 0
 192 481 167 500 150 500 c 0
 133 500 108 481 108 458 c 0
 108 435 133 416 150 416 c 0
390 416 m 0
 407 416 432 435 432 458 c 0
 432 481 407 500 390 500 c 0
 373 500 348 481 348 458 c 0
 348 435 373 416 390 416 c 0
210 333 m 0
 227 333 252 352 252 375 c 0
 252 398 227 417 210 417 c 0
 193 417 168 398 168 375 c 0
 168 352 193 333 210 333 c 0
330 333 m 0
 347 333 372 352 372 375 c 0
 372 398 347 417 330 417 c 0
 313 417 288 398 288 375 c 0
 288 352 313 333 330 333 c 0
270 250 m 0
 287 250 312 269 312 292 c 0
 312 315 287 334 270 334 c 0
 253 334 228 315 228 292 c 0
 228 269 253 250 270 250 c 0
210 166 m 0
 227 166 252 185 252 208 c 0
 252 231 227 250 210 250 c 0
 193 250 168 231 168 208 c 0
 168 185 193 166 210 166 c 0
330 166 m 0
 347 166 372 185 372 208 c 0
 372 231 347 250 330 250 c 0
 313 250 288 231 288 208 c 0
 288 185 313 166 330 166 c 0
450 166 m 0
 467 166 492 185 492 208 c 0
 492 231 467 250 450 250 c 0
 433 250 408 231 408 208 c 0
 408 185 433 166 450 166 c 0
150 83 m 0
 167 83 192 102 192 125 c 0
 192 148 167 167 150 167 c 0
 133 167 108 148 108 125 c 0
 108 102 133 83 150 83 c 0
390 83 m 0
 407 83 432 102 432 125 c 0
 432 148 407 167 390 167 c 0
 373 167 348 148 348 125 c 0
 348 102 373 83 390 83 c 0
210 0 m 0
 227 0 252 19 252 42 c 0
 252 65 227 84 210 84 c 0
 193 84 168 65 168 42 c 0
 168 19 193 0 210 0 c 0
330 0 m 0
 347 0 372 19 372 42 c 0
 372 65 347 84 330 84 c 0
 313 84 288 65 288 42 c 0
 288 19 313 0 330 0 c 0
450 0 m 0
 467 0 492 19 492 42 c 0
 492 65 467 84 450 84 c 0
 433 84 408 65 408 42 c 0
 408 19 433 0 450 0 c 0
EndSplineSet
EndChar

StartChar: quotesingle
Encoding: 39 39 7
Width: 600
Flags: HW
LayerCount: 2
Back
Fore
SplineSet
330 500 m 0
 347 500 372 519 372 542 c 0
 372 565 347 584 330 584 c 0
 313 584 288 565 288 542 c 0
 288 519 313 500 330 500 c 0
270 416 m 0
 287 416 312 435 312 458 c 0
 312 481 287 500 270 500 c 0
 253 500 228 481 228 458 c 0
 228 435 253 416 270 416 c 0
210 333 m 0
 227 333 252 352 252 375 c 0
 252 398 227 417 210 417 c 0
 193 417 168 398 168 375 c 0
 168 352 193 333 210 333 c 0
EndSplineSet
EndChar

StartChar: parenleft
Encoding: 40 40 8
Width: 600
Flags: HW
LayerCount: 2
Back
Fore
SplineSet
330 500 m 0
 347 500 372 519 372 542 c 0
 372 565 347 584 330 584 c 0
 313 584 288 565 288 542 c 0
 288 519 313 500 330 500 c 0
270 416 m 0
 287 416 312 435 312 458 c 0
 312 481 287 500 270 500 c 0
 253 500 228 481 228 458 c 0
 228 435 253 416 270 416 c 0
210 333 m 0
 227 333 252 352 252 375 c 0
 252 398 227 417 210 417 c 0
 193 417 168 398 168 375 c 0
 168 352 193 333 210 333 c 0
210 250 m 0
 227 250 252 269 252 292 c 0
 252 315 227 334 210 334 c 0
 193 334 168 315 168 292 c 0
 168 269 193 250 210 250 c 0
210 166 m 0
 227 166 252 185 252 208 c 0
 252 231 227 250 210 250 c 0
 193 250 168 231 168 208 c 0
 168 185 193 166 210 166 c 0
270 83 m 0
 287 83 312 102 312 125 c 0
 312 148 287 167 270 167 c 0
 253 167 228 148 228 125 c 0
 228 102 253 83 270 83 c 0
330 0 m 0
 347 0 372 19 372 42 c 0
 372 65 347 84 330 84 c 0
 313 84 288 65 288 42 c 0
 288 19 313 0 330 0 c 0
EndSplineSet
EndChar

StartChar: parenright
Encoding: 41 41 9
Width: 600
Flags: HW
LayerCount: 2
Back
Fore
SplineSet
210 500 m 0
 227 500 252 519 252 542 c 0
 252 565 227 584 210 584 c 0
 193 584 168 565 168 542 c 0
 168 519 193 500 210 500 c 0
270 416 m 0
 287 416 312 435 312 458 c 0
 312 481 287 500 270 500 c 0
 253 500 228 481 228 458 c 0
 228 435 253 416 270 416 c 0
330 333 m 0
 347 333 372 352 372 375 c 0
 372 398 347 417 330 417 c 0
 313 417 288 398 288 375 c 0
 288 352 313 333 330 333 c 0
330 250 m 0
 347 250 372 269 372 292 c 0
 372 315 347 334 330 334 c 0
 313 334 288 315 288 292 c 0
 288 269 313 250 330 250 c 0
330 166 m 0
 347 166 372 185 372 208 c 0
 372 231 347 250 330 250 c 0
 313 250 288 231 288 208 c 0
 288 185 313 166 330 166 c 0
270 83 m 0
 287 83 312 102 312 125 c 0
 312 148 287 167 270 167 c 0
 253 167 228 148 228 125 c 0
 228 102 253 83 270 83 c 0
210 0 m 0
 227 0 252 19 252 42 c 0
 252 65 227 84 210 84 c 0
 193 84 168 65 168 42 c 0
 168 19 193 0 210 0 c 0
EndSplineSet
EndChar

StartChar: asterisk
Encoding: 42 42 10
Width: 600
Flags: HW
LayerCount: 2
Back
Fore
SplineSet
270 500 m 0
 287 500 312 519 312 542 c 0
 312 565 287 584 270 584 c 0
 253 584 228 565 228 542 c 0
 228 519 253 500 270 500 c 0
90 416 m 0
 107 416 132 435 132 458 c 0
 132 481 107 500 90 500 c 0
 73 500 48 481 48 458 c 0
 48 435 73 416 90 416 c 0
270 416 m 0
 287 416 312 435 312 458 c 0
 312 481 287 500 270 500 c 0
 253 500 228 481 228 458 c 0
 228 435 253 416 270 416 c 0
450 416 m 0
 467 416 492 435 492 458 c 0
 492 481 467 500 450 500 c 0
 433 500 408 481 408 458 c 0
 408 435 433 416 450 416 c 0
150 333 m 0
 167 333 192 352 192 375 c 0
 192 398 167 417 150 417 c 0
 133 417 108 398 108 375 c 0
 108 352 133 333 150 333 c 0
270 333 m 0
 287 333 312 352 312 375 c 0
 312 398 287 417 270 417 c 0
 253 417 228 398 228 375 c 0
 228 352 253 333 270 333 c 0
390 333 m 0
 407 333 432 352 432 375 c 0
 432 398 407 417 390 417 c 0
 373 417 348 398 348 375 c 0
 348 352 373 333 390 333 c 0
210 250 m 0
 227 250 252 269 252 292 c 0
 252 315 227 334 210 334 c 0
 193 334 168 315 168 292 c 0
 168 269 193 250 210 250 c 0
330 250 m 0
 347 250 372 269 372 292 c 0
 372 315 347 334 330 334 c 0
 313 334 288 315 288 292 c 0
 288 269 313 250 330 250 c 0
150 166 m 0
 167 166 192 185 192 208 c 0
 192 231 167 250 150 250 c 0
 133 250 108 231 108 208 c 0
 108 185 133 166 150 166 c 0
270 166 m 0
 287 166 312 185 312 208 c 0
 312 231 287 250 270 250 c 0
 253 250 228 231 228 208 c 0
 228 185 253 166 270 166 c 0
390 166 m 0
 407 166 432 185 432 208 c 0
 432 231 407 250 390 250 c 0
 373 250 348 231 348 208 c 0
 348 185 373 166 390 166 c 0
90 83 m 0
 107 83 132 102 132 125 c 0
 132 148 107 167 90 167 c 0
 73 167 48 148 48 125 c 0
 48 102 73 83 90 83 c 0
270 83 m 0
 287 83 312 102 312 125 c 0
 312 148 287 167 270 167 c 0
 253 167 228 148 228 125 c 0
 228 102 253 83 270 83 c 0
450 83 m 0
 467 83 492 102 492 125 c 0
 492 148 467 167 450 167 c 0
 433 167 408 148 408 125 c 0
 408 102 433 83 450 83 c 0
270 0 m 0
 287 0 312 19 312 42 c 0
 312 65 287 84 270 84 c 0
 253 84 228 65 228 42 c 0
 228 19 253 0 270 0 c 0
EndSplineSet
EndChar

StartChar: plus
Encoding: 43 43 11
Width: 600
Flags: HW
LayerCount: 2
Back
Fore
SplineSet
270 500 m 0
 287 500 312 519 312 542 c 0
 312 565 287 584 270 584 c 0
 253 584 228 565 228 542 c 0
 228 519 253 500 270 500 c 0
270 416 m 0
 287 416 312 435 312 458 c 0
 312 481 287 500 270 500 c 0
 253 500 228 481 228 458 c 0
 228 435 253 416 270 416 c 0
270 333 m 0
 287 333 312 352 312 375 c 0
 312 398 287 417 270 417 c 0
 253 417 228 398 228 375 c 0
 228 352 253 333 270 333 c 0
90 250 m 0
 107 250 132 269 132 292 c 0
 132 315 107 334 90 334 c 0
 73 334 48 315 48 292 c 0
 48 269 73 250 90 250 c 0
210 250 m 0
 227 250 252 269 252 292 c 0
 252 315 227 334 210 334 c 0
 193 334 168 315 168 292 c 0
 168 269 193 250 210 250 c 0
330 250 m 0
 347 250 372 269 372 292 c 0
 372 315 347 334 330 334 c 0
 313 334 288 315 288 292 c 0
 288 269 313 250 330 250 c 0
450 250 m 0
 467 250 492 269 492 292 c 0
 492 315 467 334 450 334 c 0
 433 334 408 315 408 292 c 0
 408 269 433 250 450 250 c 0
270 166 m 0
 287 166 312 185 312 208 c 0
 312 231 287 250 270 250 c 0
 253 250 228 231 228 208 c 0
 228 185 253 166 270 166 c 0
270 83 m 0
 287 83 312 102 312 125 c 0
 312 148 287 167 270 167 c 0
 253 167 228 148 228 125 c 0
 228 102 253 83 270 83 c 0
270 0 m 0
 287 0 312 19 312 42 c 0
 312 65 287 84 270 84 c 0
 253 84 228 65 228 42 c 0
 228 19 253 0 270 0 c 0
EndSplineSet
EndChar

StartChar: comma
Encoding: 44 44 12
Width: 600
Flags: HW
LayerCount: 2
Back
Fore
SplineSet
210 250 m 0
 227 250 252 269 252 292 c 0
 252 315 227 334 210 334 c 0
 193 334 168 315 168 292 c 0
 168 269 193 250 210 250 c 0
330 250 m 0
 347 250 372 269 372 292 c 0
 372 315 347 334 330 334 c 0
 313 334 288 315 288 292 c 0
 288 269 313 250 330 250 c 0
210 166 m 0
 227 166 252 185 252 208 c 0
 252 231 227 250 210 250 c 0
 193 250 168 231 168 208 c 0
 168 185 193 166 210 166 c 0
330 166 m 0
 347 166 372 185 372 208 c 0
 372 231 347 250 330 250 c 0
 313 250 288 231 288 208 c 0
 288 185 313 166 330 166 c 0
270 83 m 0
 287 83 312 102 312 125 c 0
 312 148 287 167 270 167 c 0
 253 167 228 148 228 125 c 0
 228 102 253 83 270 83 c 0
210 0 m 0
 227 0 252 19 252 42 c 0
 252 65 227 84 210 84 c 0
 193 84 168 65 168 42 c 0
 168 19 193 0 210 0 c 0
EndSplineSet
EndChar

StartChar: hyphen
Encoding: 45 45 13
Width: 600
Flags: HW
LayerCount: 2
Back
Fore
SplineSet
90 250 m 0
 107 250 132 269 132 292 c 0
 132 315 107 334 90 334 c 0
 73 334 48 315 48 292 c 0
 48 269 73 250 90 250 c 0
210 250 m 0
 227 250 252 269 252 292 c 0
 252 315 227 334 210 334 c 0
 193 334 168 315 168 292 c 0
 168 269 193 250 210 250 c 0
330 250 m 0
 347 250 372 269 372 292 c 0
 372 315 347 334 330 334 c 0
 313 334 288 315 288 292 c 0
 288 269 313 250 330 250 c 0
450 250 m 0
 467 250 492 269 492 292 c 0
 492 315 467 334 450 334 c 0
 433 334 408 315 408 292 c 0
 408 269 433 250 450 250 c 0
EndSplineSet
EndChar

StartChar: period
Encoding: 46 46 14
Width: 600
Flags: HW
LayerCount: 2
Back
Fore
SplineSet
270 166 m 0
 287 166 312 185 312 208 c 0
 312 231 287 250 270 250 c 0
 253 250 228 231 228 208 c 0
 228 185 253 166 270 166 c 0
210 83 m 0
 227 83 252 102 252 125 c 0
 252 148 227 167 210 167 c 0
 193 167 168 148 168 125 c 0
 168 102 193 83 210 83 c 0
330 83 m 0
 347 83 372 102 372 125 c 0
 372 148 347 167 330 167 c 0
 313 167 288 148 288 125 c 0
 288 102 313 83 330 83 c 0
270 0 m 0
 287 0 312 19 312 42 c 0
 312 65 287 84 270 84 c 0
 253 84 228 65 228 42 c 0
 228 19 253 0 270 0 c 0
EndSplineSet
EndChar

StartChar: slash
Encoding: 47 47 15
Width: 600
Flags: HW
LayerCount: 2
Back
Fore
SplineSet
450 500 m 0
 467 500 492 519 492 542 c 0
 492 565 467 584 450 584 c 0
 433 584 408 565 408 542 c 0
 408 519 433 500 450 500 c 0
390 416 m 0
 407 416 432 435 432 458 c 0
 432 481 407 500 390 500 c 0
 373 500 348 481 348 458 c 0
 348 435 373 416 390 416 c 0
330 333 m 0
 347 333 372 352 372 375 c 0
 372 398 347 417 330 417 c 0
 313 417 288 398 288 375 c 0
 288 352 313 333 330 333 c 0
270 250 m 0
 287 250 312 269 312 292 c 0
 312 315 287 334 270 334 c 0
 253 334 228 315 228 292 c 0
 228 269 253 250 270 250 c 0
210 166 m 0
 227 166 252 185 252 208 c 0
 252 231 227 250 210 250 c 0
 193 250 168 231 168 208 c 0
 168 185 193 166 210 166 c 0
150 83 m 0
 167 83 192 102 192 125 c 0
 192 148 167 167 150 167 c 0
 133 167 108 148 108 125 c 0
 108 102 133 83 150 83 c 0
90 0 m 0
 107 0 132 19 132 42 c 0
 132 65 107 84 90 84 c 0
 73 84 48 65 48 42 c 0
 48 19 73 0 90 0 c 0
EndSplineSet
EndChar

StartChar: zero
Encoding: 48 48 16
Width: 600
Flags: HW
LayerCount: 2
Back
Fore
SplineSet
210 500 m 0
 227 500 252 519 252 542 c 0
 252 565 227 584 210 584 c 0
 193 584 168 565 168 542 c 0
 168 519 193 500 210 500 c 0
330 500 m 0
 347 500 372 519 372 542 c 0
 372 565 347 584 330 584 c 0
 313 584 288 565 288 542 c 0
 288 519 313 500 330 500 c 0
150 416 m 0
 167 416 192 435 192 458 c 0
 192 481 167 500 150 500 c 0
 133 500 108 481 108 458 c 0
 108 435 133 416 150 416 c 0
390 416 m 0
 407 416 432 435 432 458 c 0
 432 481 407 500 390 500 c 0
 373 500 348 481 348 458 c 0
 348 435 373 416 390 416 c 0
90 333 m 0
 107 333 132 352 132 375 c 0
 132 398 107 417 90 417 c 0
 73 417 48 398 48 375 c 0
 48 352 73 333 90 333 c 0
450 333 m 0
 467 333 492 352 492 375 c 0
 492 398 467 417 450 417 c 0
 433 417 408 398 408 375 c 0
 408 352 433 333 450 333 c 0
90 250 m 0
 107 250 132 269 132 292 c 0
 132 315 107 334 90 334 c 0
 73 334 48 315 48 292 c 0
 48 269 73 250 90 250 c 0
450 250 m 0
 467 250 492 269 492 292 c 0
 492 315 467 334 450 334 c 0
 433 334 408 315 408 292 c 0
 408 269 433 250 450 250 c 0
90 166 m 0
 107 166 132 185 132 208 c 0
 132 231 107 250 90 250 c 0
 73 250 48 231 48 208 c 0
 48 185 73 166 90 166 c 0
450 166 m 0
 467 166 492 185 492 208 c 0
 492 231 467 250 450 250 c 0
 433 250 408 231 408 208 c 0
 408 185 433 166 450 166 c 0
150 83 m 0
 167 83 192 102 192 125 c 0
 192 148 167 167 150 167 c 0
 133 167 108 148 108 125 c 0
 108 102 133 83 150 83 c 0
390 83 m 0
 407 83 432 102 432 125 c 0
 432 148 407 167 390 167 c 0
 373 167 348 148 348 125 c 0
 348 102 373 83 390 83 c 0
210 0 m 0
 227 0 252 19 252 42 c 0
 252 65 227 84 210 84 c 0
 193 84 168 65 168 42 c 0
 168 19 193 0 210 0 c 0
330 0 m 0
 347 0 372 19 372 42 c 0
 372 65 347 84 330 84 c 0
 313 84 288 65 288 42 c 0
 288 19 313 0 330 0 c 0
EndSplineSet
EndChar

StartChar: one
Encoding: 49 49 17
Width: 600
Flags: HW
LayerCount: 2
Back
Fore
SplineSet
270 500 m 0
 287 500 312 519 312 542 c 0
 312 565 287 584 270 584 c 0
 253 584 228 565 228 542 c 0
 228 519 253 500 270 500 c 0
150 416 m 0
 167 416 192 435 192 458 c 0
 192 481 167 500 150 500 c 0
 133 500 108 481 108 458 c 0
 108 435 133 416 150 416 c 0
270 416 m 0
 287 416 312 435 312 458 c 0
 312 481 287 500 270 500 c 0
 253 500 228 481 228 458 c 0
 228 435 253 416 270 416 c 0
270 333 m 0
 287 333 312 352 312 375 c 0
 312 398 287 417 270 417 c 0
 253 417 228 398 228 375 c 0
 228 352 253 333 270 333 c 0
270 250 m 0
 287 250 312 269 312 292 c 0
 312 315 287 334 270 334 c 0
 253 334 228 315 228 292 c 0
 228 269 253 250 270 250 c 0
270 166 m 0
 287 166 312 185 312 208 c 0
 312 231 287 250 270 250 c 0
 253 250 228 231 228 208 c 0
 228 185 253 166 270 166 c 0
270 83 m 0
 287 83 312 102 312 125 c 0
 312 148 287 167 270 167 c 0
 253 167 228 148 228 125 c 0
 228 102 253 83 270 83 c 0
150 0 m 0
 167 0 192 19 192 42 c 0
 192 65 167 84 150 84 c 0
 133 84 108 65 108 42 c 0
 108 19 133 0 150 0 c 0
270 0 m 0
 287 0 312 19 312 42 c 0
 312 65 287 84 270 84 c 0
 253 84 228 65 228 42 c 0
 228 19 253 0 270 0 c 0
390 0 m 0
 407 0 432 19 432 42 c 0
 432 65 407 84 390 84 c 0
 373 84 348 65 348 42 c 0
 348 19 373 0 390 0 c 0
EndSplineSet
EndChar

StartChar: two
Encoding: 50 50 18
Width: 600
Flags: HW
LayerCount: 2
Back
Fore
SplineSet
150 500 m 0
 167 500 192 519 192 542 c 0
 192 565 167 584 150 584 c 0
 133 584 108 565 108 542 c 0
 108 519 133 500 150 500 c 0
270 500 m 0
 287 500 312 519 312 542 c 0
 312 565 287 584 270 584 c 0
 253 584 228 565 228 542 c 0
 228 519 253 500 270 500 c 0
390 500 m 0
 407 500 432 519 432 542 c 0
 432 565 407 584 390 584 c 0
 373 584 348 565 348 542 c 0
 348 519 373 500 390 500 c 0
90 416 m 0
 107 416 132 435 132 458 c 0
 132 481 107 500 90 500 c 0
 73 500 48 481 48 458 c 0
 48 435 73 416 90 416 c 0
450 416 m 0
 467 416 492 435 492 458 c 0
 492 481 467 500 450 500 c 0
 433 500 408 481 408 458 c 0
 408 435 433 416 450 416 c 0
450 333 m 0
 467 333 492 352 492 375 c 0
 492 398 467 417 450 417 c 0
 433 417 408 398 408 375 c 0
 408 352 433 333 450 333 c 0
390 250 m 0
 407 250 432 269 432 292 c 0
 432 315 407 334 390 334 c 0
 373 334 348 315 348 292 c 0
 348 269 373 250 390 250 c 0
270 166 m 0
 287 166 312 185 312 208 c 0
 312 231 287 250 270 250 c 0
 253 250 228 231 228 208 c 0
 228 185 253 166 270 166 c 0
150 83 m 0
 167 83 192 102 192 125 c 0
 192 148 167 167 150 167 c 0
 133 167 108 148 108 125 c 0
 108 102 133 83 150 83 c 0
90 0 m 0
 107 0 132 19 132 42 c 0
 132 65 107 84 90 84 c 0
 73 84 48 65 48 42 c 0
 48 19 73 0 90 0 c 0
210 0 m 0
 227 0 252 19 252 42 c 0
 252 65 227 84 210 84 c 0
 193 84 168 65 168 42 c 0
 168 19 193 0 210 0 c 0
330 0 m 0
 347 0 372 19 372 42 c 0
 372 65 347 84 330 84 c 0
 313 84 288 65 288 42 c 0
 288 19 313 0 330 0 c 0
450 0 m 0
 467 0 492 19 492 42 c 0
 492 65 467 84 450 84 c 0
 433 84 408 65 408 42 c 0
 408 19 433 0 450 0 c 0
EndSplineSet
EndChar

StartChar: three
Encoding: 51 51 19
Width: 600
Flags: HW
LayerCount: 2
Back
Fore
SplineSet
90 500 m 0
 107 500 132 519 132 542 c 0
 132 565 107 584 90 584 c 0
 73 584 48 565 48 542 c 0
 48 519 73 500 90 500 c 0
210 500 m 0
 227 500 252 519 252 542 c 0
 252 565 227 584 210 584 c 0
 193 584 168 565 168 542 c 0
 168 519 193 500 210 500 c 0
330 500 m 0
 347 500 372 519 372 542 c 0
 372 565 347 584 330 584 c 0
 313 584 288 565 288 542 c 0
 288 519 313 500 330 500 c 0
450 500 m 0
 467 500 492 519 492 542 c 0
 492 565 467 584 450 584 c 0
 433 584 408 565 408 542 c 0
 408 519 433 500 450 500 c 0
390 416 m 0
 407 416 432 435 432 458 c 0
 432 481 407 500 390 500 c 0
 373 500 348 481 348 458 c 0
 348 435 373 416 390 416 c 0
330 333 m 0
 347 333 372 352 372 375 c 0
 372 398 347 417 330 417 c 0
 313 417 288 398 288 375 c 0
 288 352 313 333 330 333 c 0
270 250 m 0
 287 250 312 269 312 292 c 0
 312 315 287 334 270 334 c 0
 253 334 228 315 228 292 c 0
 228 269 253 250 270 250 c 0
390 250 m 0
 407 250 432 269 432 292 c 0
 432 315 407 334 390 334 c 0
 373 334 348 315 348 292 c 0
 348 269 373 250 390 250 c 0
450 166 m 0
 467 166 492 185 492 208 c 0
 492 231 467 250 450 250 c 0
 433 250 408 231 408 208 c 0
 408 185 433 166 450 166 c 0
90 83 m 0
 107 83 132 102 132 125 c 0
 132 148 107 167 90 167 c 0
 73 167 48 148 48 125 c 0
 48 102 73 83 90 83 c 0
450 83 m 0
 467 83 492 102 492 125 c 0
 492 148 467 167 450 167 c 0
 433 167 408 148 408 125 c 0
 408 102 433 83 450 83 c 0
150 0 m 0
 167 0 192 19 192 42 c 0
 192 65 167 84 150 84 c 0
 133 84 108 65 108 42 c 0
 108 19 133 0 150 0 c 0
270 0 m 0
 287 0 312 19 312 42 c 0
 312 65 287 84 270 84 c 0
 253 84 228 65 228 42 c 0
 228 19 253 0 270 0 c 0
390 0 m 0
 407 0 432 19 432 42 c 0
 432 65 407 84 390 84 c 0
 373 84 348 65 348 42 c 0
 348 19 373 0 390 0 c 0
EndSplineSet
EndChar

StartChar: four
Encoding: 52 52 20
Width: 600
Flags: HW
LayerCount: 2
Back
Fore
SplineSet
330 500 m 0
 347 500 372 519 372 542 c 0
 372 565 347 584 330 584 c 0
 313 584 288 565 288 542 c 0
 288 519 313 500 330 500 c 0
270 416 m 0
 287 416 312 435 312 458 c 0
 312 481 287 500 270 500 c 0
 253 500 228 481 228 458 c 0
 228 435 253 416 270 416 c 0
390 416 m 0
 407 416 432 435 432 458 c 0
 432 481 407 500 390 500 c 0
 373 500 348 481 348 458 c 0
 348 435 373 416 390 416 c 0
210 333 m 0
 227 333 252 352 252 375 c 0
 252 398 227 417 210 417 c 0
 193 417 168 398 168 375 c 0
 168 352 193 333 210 333 c 0
390 333 m 0
 407 333 432 352 432 375 c 0
 432 398 407 417 390 417 c 0
 373 417 348 398 348 375 c 0
 348 352 373 333 390 333 c 0
150 250 m 0
 167 250 192 269 192 292 c 0
 192 315 167 334 150 334 c 0
 133 334 108 315 108 292 c 0
 108 269 133 250 150 250 c 0
390 250 m 0
 407 250 432 269 432 292 c 0
 432 315 407 334 390 334 c 0
 373 334 348 315 348 292 c 0
 348 269 373 250 390 250 c 0
90 166 m 0
 107 166 132 185 132 208 c 0
 132 231 107 250 90 250 c 0
 73 250 48 231 48 208 c 0
 48 185 73 166 90 166 c 0
210 166 m 0
 227 166 252 185 252 208 c 0
 252 231 227 250 210 250 c 0
 193 250 168 231 168 208 c 0
 168 185 193 166 210 166 c 0
330 166 m 0
 347 166 372 185 372 208 c 0
 372 231 347 250 330 250 c 0
 313 250 288 231 288 208 c 0
 288 185 313 166 330 166 c 0
450 166 m 0
 467 166 492 185 492 208 c 0
 492 231 467 250 450 250 c 0
 433 250 408 231 408 208 c 0
 408 185 433 166 450 166 c 0
390 83 m 0
 407 83 432 102 432 125 c 0
 432 148 407 167 390 167 c 0
 373 167 348 148 348 125 c 0
 348 102 373 83 390 83 c 0
390 0 m 0
 407 0 432 19 432 42 c 0
 432 65 407 84 390 84 c 0
 373 84 348 65 348 42 c 0
 348 19 373 0 390 0 c 0
EndSplineSet
EndChar

StartChar: five
Encoding: 53 53 21
Width: 600
Flags: HW
LayerCount: 2
Back
Fore
SplineSet
90 500 m 0
 107 500 132 519 132 542 c 0
 132 565 107 584 90 584 c 0
 73 584 48 565 48 542 c 0
 48 519 73 500 90 500 c 0
210 500 m 0
 227 500 252 519 252 542 c 0
 252 565 227 584 210 584 c 0
 193 584 168 565 168 542 c 0
 168 519 193 500 210 500 c 0
330 500 m 0
 347 500 372 519 372 542 c 0
 372 565 347 584 330 584 c 0
 313 584 288 565 288 542 c 0
 288 519 313 500 330 500 c 0
450 500 m 0
 467 500 492 519 492 542 c 0
 492 565 467 584 450 584 c 0
 433 584 408 565 408 542 c 0
 408 519 433 500 450 500 c 0
90 416 m 0
 107 416 132 435 132 458 c 0
 132 481 107 500 90 500 c 0
 73 500 48 481 48 458 c 0
 48 435 73 416 90 416 c 0
90 333 m 0
 107 333 132 352 132 375 c 0
 132 398 107 417 90 417 c 0
 73 417 48 398 48 375 c 0
 48 352 73 333 90 333 c 0
210 333 m 0
 227 333 252 352 252 375 c 0
 252 398 227 417 210 417 c 0
 193 417 168 398 168 375 c 0
 168 352 193 333 210 333 c 0
330 333 m 0
 347 333 372 352 372 375 c 0
 372 398 347 417 330 417 c 0
 313 417 288 398 288 375 c 0
 288 352 313 333 330 333 c 0
450 250 m 0
 467 250 492 269 492 292 c 0
 492 315 467 334 450 334 c 0
 433 334 408 315 408 292 c 0
 408 269 433 250 450 250 c 0
450 166 m 0
 467 166 492 185 492 208 c 0
 492 231 467 250 450 250 c 0
 433 250 408 231 408 208 c 0
 408 185 433 166 450 166 c 0
90 83 m 0
 107 83 132 102 132 125 c 0
 132 148 107 167 90 167 c 0
 73 167 48 148 48 125 c 0
 48 102 73 83 90 83 c 0
450 83 m 0
 467 83 492 102 492 125 c 0
 492 148 467 167 450 167 c 0
 433 167 408 148 408 125 c 0
 408 102 433 83 450 83 c 0
150 0 m 0
 167 0 192 19 192 42 c 0
 192 65 167 84 150 84 c 0
 133 84 108 65 108 42 c 0
 108 19 133 0 150 0 c 0
270 0 m 0
 287 0 312 19 312 42 c 0
 312 65 287 84 270 84 c 0
 253 84 228 65 228 42 c 0
 228 19 253 0 270 0 c 0
390 0 m 0
 407 0 432 19 432 42 c 0
 432 65 407 84 390 84 c 0
 373 84 348 65 348 42 c 0
 348 19 373 0 390 0 c 0
EndSplineSet
EndChar

StartChar: six
Encoding: 54 54 22
Width: 600
Flags: HW
LayerCount: 2
Back
Fore
SplineSet
330 500 m 0
 347 500 372 519 372 542 c 0
 372 565 347 584 330 584 c 0
 313 584 288 565 288 542 c 0
 288 519 313 500 330 500 c 0
270 416 m 0
 287 416 312 435 312 458 c 0
 312 481 287 500 270 500 c 0
 253 500 228 481 228 458 c 0
 228 435 253 416 270 416 c 0
210 333 m 0
 227 333 252 352 252 375 c 0
 252 398 227 417 210 417 c 0
 193 417 168 398 168 375 c 0
 168 352 193 333 210 333 c 0
150 250 m 0
 167 250 192 269 192 292 c 0
 192 315 167 334 150 334 c 0
 133 334 108 315 108 292 c 0
 108 269 133 250 150 250 c 0
270 250 m 0
 287 250 312 269 312 292 c 0
 312 315 287 334 270 334 c 0
 253 334 228 315 228 292 c 0
 228 269 253 250 270 250 c 0
390 250 m 0
 407 250 432 269 432 292 c 0
 432 315 407 334 390 334 c 0
 373 334 348 315 348 292 c 0
 348 269 373 250 390 250 c 0
90 166 m 0
 107 166 132 185 132 208 c 0
 132 231 107 250 90 250 c 0
 73 250 48 231 48 208 c 0
 48 185 73 166 90 166 c 0
450 166 m 0
 467 166 492 185 492 208 c 0
 492 231 467 250 450 250 c 0
 433 250 408 231 408 208 c 0
 408 185 433 166 450 166 c 0
90 83 m 0
 107 83 132 102 132 125 c 0
 132 148 107 167 90 167 c 0
 73 167 48 148 48 125 c 0
 48 102 73 83 90 83 c 0
450 83 m 0
 467 83 492 102 492 125 c 0
 492 148 467 167 450 167 c 0
 433 167 408 148 408 125 c 0
 408 102 433 83 450 83 c 0
150 0 m 0
 167 0 192 19 192 42 c 0
 192 65 167 84 150 84 c 0
 133 84 108 65 108 42 c 0
 108 19 133 0 150 0 c 0
270 0 m 0
 287 0 312 19 312 42 c 0
 312 65 287 84 270 84 c 0
 253 84 228 65 228 42 c 0
 228 19 253 0 270 0 c 0
390 0 m 0
 407 0 432 19 432 42 c 0
 432 65 407 84 390 84 c 0
 373 84 348 65 348 42 c 0
 348 19 373 0 390 0 c 0
EndSplineSet
EndChar

StartChar: seven
Encoding: 55 55 23
Width: 600
Flags: HW
LayerCount: 2
Back
Fore
SplineSet
90 500 m 0
 107 500 132 519 132 542 c 0
 132 565 107 584 90 584 c 0
 73 584 48 565 48 542 c 0
 48 519 73 500 90 500 c 0
210 500 m 0
 227 500 252 519 252 542 c 0
 252 565 227 584 210 584 c 0
 193 584 168 565 168 542 c 0
 168 519 193 500 210 500 c 0
330 500 m 0
 347 500 372 519 372 542 c 0
 372 565 347 584 330 584 c 0
 313 584 288 565 288 542 c 0
 288 519 313 500 330 500 c 0
450 500 m 0
 467 500 492 519 492 542 c 0
 492 565 467 584 450 584 c 0
 433 584 408 565 408 542 c 0
 408 519 433 500 450 500 c 0
450 416 m 0
 467 416 492 435 492 458 c 0
 492 481 467 500 450 500 c 0
 433 500 408 481 408 458 c 0
 408 435 433 416 450 416 c 0
390 333 m 0
 407 333 432 352 432 375 c 0
 432 398 407 417 390 417 c 0
 373 417 348 398 348 375 c 0
 348 352 373 333 390 333 c 0
330 250 m 0
 347 250 372 269 372 292 c 0
 372 315 347 334 330 334 c 0
 313 334 288 315 288 292 c 0
 288 269 313 250 330 250 c 0
270 166 m 0
 287 166 312 185 312 208 c 0
 312 231 287 250 270 250 c 0
 253 250 228 231 228 208 c 0
 228 185 253 166 270 166 c 0
210 83 m 0
 227 83 252 102 252 125 c 0
 252 148 227 167 210 167 c 0
 193 167 168 148 168 125 c 0
 168 102 193 83 210 83 c 0
150 0 m 0
 167 0 192 19 192 42 c 0
 192 65 167 84 150 84 c 0
 133 84 108 65 108 42 c 0
 108 19 133 0 150 0 c 0
EndSplineSet
EndChar

StartChar: eight
Encoding: 56 56 24
Width: 600
Flags: HW
LayerCount: 2
Back
Fore
SplineSet
150 500 m 0
 167 500 192 519 192 542 c 0
 192 565 167 584 150 584 c 0
 133 584 108 565 108 542 c 0
 108 519 133 500 150 500 c 0
270 500 m 0
 287 500 312 519 312 542 c 0
 312 565 287 584 270 584 c 0
 253 584 228 565 228 542 c 0
 228 519 253 500 270 500 c 0
390 500 m 0
 407 500 432 519 432 542 c 0
 432 565 407 584 390 584 c 0
 373 584 348 565 348 542 c 0
 348 519 373 500 390 500 c 0
90 416 m 0
 107 416 132 435 132 458 c 0
 132 481 107 500 90 500 c 0
 73 500 48 481 48 458 c 0
 48 435 73 416 90 416 c 0
450 416 m 0
 467 416 492 435 492 458 c 0
 492 481 467 500 450 500 c 0
 433 500 408 481 408 458 c 0
 408 435 433 416 450 416 c 0
90 333 m 0
 107 333 132 352 132 375 c 0
 132 398 107 417 90 417 c 0
 73 417 48 398 48 375 c 0
 48 352 73 333 90 333 c 0
450 333 m 0
 467 333 492 352 492 375 c 0
 492 398 467 417 450 417 c 0
 433 417 408 398 408 375 c 0
 408 352 433 333 450 333 c 0
150 250 m 0
 167 250 192 269 192 292 c 0
 192 315 167 334 150 334 c 0
 133 334 108 315 108 292 c 0
 108 269 133 250 150 250 c 0
270 250 m 0
 287 250 312 269 312 292 c 0
 312 315 287 334 270 334 c 0
 253 334 228 315 228 292 c 0
 228 269 253 250 270 250 c 0
390 250 m 0
 407 250 432 269 432 292 c 0
 432 315 407 334 390 334 c 0
 373 334 348 315 348 292 c 0
 348 269 373 250 390 250 c 0
90 166 m 0
 107 166 132 185 132 208 c 0
 132 231 107 250 90 250 c 0
 73 250 48 231 48 208 c 0
 48 185 73 166 90 166 c 0
450 166 m 0
 467 166 492 185 492 208 c 0
 492 231 467 250 450 250 c 0
 433 250 408 231 408 208 c 0
 408 185 433 166 450 166 c 0
90 83 m 0
 107 83 132 102 132 125 c 0
 132 148 107 167 90 167 c 0
 73 167 48 148 48 125 c 0
 48 102 73 83 90 83 c 0
450 83 m 0
 467 83 492 102 492 125 c 0
 492 148 467 167 450 167 c 0
 433 167 408 148 408 125 c 0
 408 102 433 83 450 83 c 0
150 0 m 0
 167 0 192 19 192 42 c 0
 192 65 167 84 150 84 c 0
 133 84 108 65 108 42 c 0
 108 19 133 0 150 0 c 0
270 0 m 0
 287 0 312 19 312 42 c 0
 312 65 287 84 270 84 c 0
 253 84 228 65 228 42 c 0
 228 19 253 0 270 0 c 0
390 0 m 0
 407 0 432 19 432 42 c 0
 432 65 407 84 390 84 c 0
 373 84 348 65 348 42 c 0
 348 19 373 0 390 0 c 0
EndSplineSet
EndChar

StartChar: nine
Encoding: 57 57 25
Width: 600
Flags: HW
LayerCount: 2
Back
Fore
SplineSet
150 500 m 0
 167 500 192 519 192 542 c 0
 192 565 167 584 150 584 c 0
 133 584 108 565 108 542 c 0
 108 519 133 500 150 500 c 0
270 500 m 0
 287 500 312 519 312 542 c 0
 312 565 287 584 270 584 c 0
 253 584 228 565 228 542 c 0
 228 519 253 500 270 500 c 0
390 500 m 0
 407 500 432 519 432 542 c 0
 432 565 407 584 390 584 c 0
 373 584 348 565 348 542 c 0
 348 519 373 500 390 500 c 0
90 416 m 0
 107 416 132 435 132 458 c 0
 132 481 107 500 90 500 c 0
 73 500 48 481 48 458 c 0
 48 435 73 416 90 416 c 0
450 416 m 0
 467 416 492 435 492 458 c 0
 492 481 467 500 450 500 c 0
 433 500 408 481 408 458 c 0
 408 435 433 416 450 416 c 0
90 333 m 0
 107 333 132 352 132 375 c 0
 132 398 107 417 90 417 c 0
 73 417 48 398 48 375 c 0
 48 352 73 333 90 333 c 0
450 333 m 0
 467 333 492 352 492 375 c 0
 492 398 467 417 450 417 c 0
 433 417 408 398 408 375 c 0
 408 352 433 333 450 333 c 0
150 250 m 0
 167 250 192 269 192 292 c 0
 192 315 167 334 150 334 c 0
 133 334 108 315 108 292 c 0
 108 269 133 250 150 250 c 0
270 250 m 0
 287 250 312 269 312 292 c 0
 312 315 287 334 270 334 c 0
 253 334 228 315 228 292 c 0
 228 269 253 250 270 250 c 0
390 250 m 0
 407 250 432 269 432 292 c 0
 432 315 407 334 390 334 c 0
 373 334 348 315 348 292 c 0
 348 269 373 250 390 250 c 0
330 166 m 0
 347 166 372 185 372 208 c 0
 372 231 347 250 330 250 c 0
 313 250 288 231 288 208 c 0
 288 185 313 166 330 166 c 0
270 83 m 0
 287 83 312 102 312 125 c 0
 312 148 287 167 270 167 c 0
 253 167 228 148 228 125 c 0
 228 102 253 83 270 83 c 0
210 0 m 0
 227 0 252 19 252 42 c 0
 252 65 227 84 210 84 c 0
 193 84 168 65 168 42 c 0
 168 19 193 0 210 0 c 0
EndSplineSet
EndChar

StartChar: colon
Encoding: 58 58 26
Width: 600
Flags: HW
LayerCount: 2
Back
Fore
SplineSet
270 500 m 0
 287 500 312 519 312 542 c 0
 312 565 287 584 270 584 c 0
 253 584 228 565 228 542 c 0
 228 519 253 500 270 500 c 0
210 416 m 0
 227 416 252 435 252 458 c 0
 252 481 227 500 210 500 c 0
 193 500 168 481 168 458 c 0
 168 435 193 416 210 416 c 0
330 416 m 0
 347 416 372 435 372 458 c 0
 372 481 347 500 330 500 c 0
 313 500 288 481 288 458 c 0
 288 435 313 416 330 416 c 0
270 333 m 0
 287 333 312 352 312 375 c 0
 312 398 287 417 270 417 c 0
 253 417 228 398 228 375 c 0
 228 352 253 333 270 333 c 0
270 166 m 0
 287 166 312 185 312 208 c 0
 312 231 287 250 270 250 c 0
 253 250 228 231 228 208 c 0
 228 185 253 166 270 166 c 0
210 83 m 0
 227 83 252 102 252 125 c 0
 252 148 227 167 210 167 c 0
 193 167 168 148 168 125 c 0
 168 102 193 83 210 83 c 0
330 83 m 0
 347 83 372 102 372 125 c 0
 372 148 347 167 330 167 c 0
 313 167 288 148 288 125 c 0
 288 102 313 83 330 83 c 0
270 0 m 0
 287 0 312 19 312 42 c 0
 312 65 287 84 270 84 c 0
 253 84 228 65 228 42 c 0
 228 19 253 0 270 0 c 0
EndSplineSet
EndChar

StartChar: semicolon
Encoding: 59 59 27
Width: 600
Flags: HW
LayerCount: 2
Back
Fore
SplineSet
270 500 m 0
 287 500 312 519 312 542 c 0
 312 565 287 584 270 584 c 0
 253 584 228 565 228 542 c 0
 228 519 253 500 270 500 c 0
210 416 m 0
 227 416 252 435 252 458 c 0
 252 481 227 500 210 500 c 0
 193 500 168 481 168 458 c 0
 168 435 193 416 210 416 c 0
330 416 m 0
 347 416 372 435 372 458 c 0
 372 481 347 500 330 500 c 0
 313 500 288 481 288 458 c 0
 288 435 313 416 330 416 c 0
210 250 m 0
 227 250 252 269 252 292 c 0
 252 315 227 334 210 334 c 0
 193 334 168 315 168 292 c 0
 168 269 193 250 210 250 c 0
330 250 m 0
 347 250 372 269 372 292 c 0
 372 315 347 334 330 334 c 0
 313 334 288 315 288 292 c 0
 288 269 313 250 330 250 c 0
210 166 m 0
 227 166 252 185 252 208 c 0
 252 231 227 250 210 250 c 0
 193 250 168 231 168 208 c 0
 168 185 193 166 210 166 c 0
330 166 m 0
 347 166 372 185 372 208 c 0
 372 231 347 250 330 250 c 0
 313 250 288 231 288 208 c 0
 288 185 313 166 330 166 c 0
270 83 m 0
 287 83 312 102 312 125 c 0
 312 148 287 167 270 167 c 0
 253 167 228 148 228 125 c 0
 228 102 253 83 270 83 c 0
210 0 m 0
 227 0 252 19 252 42 c 0
 252 65 227 84 210 84 c 0
 193 84 168 65 168 42 c 0
 168 19 193 0 210 0 c 0
EndSplineSet
EndChar

StartChar: less
Encoding: 60 60 28
Width: 600
Flags: HW
LayerCount: 2
Back
Fore
SplineSet
450 500 m 0
 467 500 492 519 492 542 c 0
 492 565 467 584 450 584 c 0
 433 584 408 565 408 542 c 0
 408 519 433 500 450 500 c 0
330 416 m 0
 347 416 372 435 372 458 c 0
 372 481 347 500 330 500 c 0
 313 500 288 481 288 458 c 0
 288 435 313 416 330 416 c 0
210 333 m 0
 227 333 252 352 252 375 c 0
 252 398 227 417 210 417 c 0
 193 417 168 398 168 375 c 0
 168 352 193 333 210 333 c 0
90 250 m 0
 107 250 132 269 132 292 c 0
 132 315 107 334 90 334 c 0
 73 334 48 315 48 292 c 0
 48 269 73 250 90 250 c 0
210 166 m 0
 227 166 252 185 252 208 c 0
 252 231 227 250 210 250 c 0
 193 250 168 231 168 208 c 0
 168 185 193 166 210 166 c 0
330 83 m 0
 347 83 372 102 372 125 c 0
 372 148 347 167 330 167 c 0
 313 167 288 148 288 125 c 0
 288 102 313 83 330 83 c 0
450 0 m 0
 467 0 492 19 492 42 c 0
 492 65 467 84 450 84 c 0
 433 84 408 65 408 42 c 0
 408 19 433 0 450 0 c 0
EndSplineSet
EndChar

StartChar: equal
Encoding: 61 61 29
Width: 600
Flags: HW
LayerCount: 2
Back
Fore
SplineSet
90 333 m 0
 107 333 132 352 132 375 c 0
 132 398 107 417 90 417 c 0
 73 417 48 398 48 375 c 0
 48 352 73 333 90 333 c 0
210 333 m 0
 227 333 252 352 252 375 c 0
 252 398 227 417 210 417 c 0
 193 417 168 398 168 375 c 0
 168 352 193 333 210 333 c 0
330 333 m 0
 347 333 372 352 372 375 c 0
 372 398 347 417 330 417 c 0
 313 417 288 398 288 375 c 0
 288 352 313 333 330 333 c 0
450 333 m 0
 467 333 492 352 492 375 c 0
 492 398 467 417 450 417 c 0
 433 417 408 398 408 375 c 0
 408 352 433 333 450 333 c 0
90 166 m 0
 107 166 132 185 132 208 c 0
 132 231 107 250 90 250 c 0
 73 250 48 231 48 208 c 0
 48 185 73 166 90 166 c 0
210 166 m 0
 227 166 252 185 252 208 c 0
 252 231 227 250 210 250 c 0
 193 250 168 231 168 208 c 0
 168 185 193 166 210 166 c 0
330 166 m 0
 347 166 372 185 372 208 c 0
 372 231 347 250 330 250 c 0
 313 250 288 231 288 208 c 0
 288 185 313 166 330 166 c 0
450 166 m 0
 467 166 492 185 492 208 c 0
 492 231 467 250 450 250 c 0
 433 250 408 231 408 208 c 0
 408 185 433 166 450 166 c 0
EndSplineSet
EndChar

StartChar: greater
Encoding: 62 62 30
Width: 600
Flags: HW
LayerCount: 2
Back
Fore
SplineSet
90 500 m 0
 107 500 132 519 132 542 c 0
 132 565 107 584 90 584 c 0
 73 584 48 565 48 542 c 0
 48 519 73 500 90 500 c 0
210 416 m 0
 227 416 252 435 252 458 c 0
 252 481 227 500 210 500 c 0
 193 500 168 481 168 458 c 0
 168 435 193 416 210 416 c 0
330 333 m 0
 347 333 372 352 372 375 c 0
 372 398 347 417 330 417 c 0
 313 417 288 398 288 375 c 0
 288 352 313 333 330 333 c 0
450 250 m 0
 467 250 492 269 492 292 c 0
 492 315 467 334 450 334 c 0
 433 334 408 315 408 292 c 0
 408 269 433 250 450 250 c 0
330 166 m 0
 347 166 372 185 372 208 c 0
 372 231 347 250 330 250 c 0
 313 250 288 231 288 208 c 0
 288 185 313 166 330 166 c 0
210 83 m 0
 227 83 252 102 252 125 c 0
 252 148 227 167 210 167 c 0
 193 167 168 148 168 125 c 0
 168 102 193 83 210 83 c 0
90 0 m 0
 107 0 132 19 132 42 c 0
 132 65 107 84 90 84 c 0
 73 84 48 65 48 42 c 0
 48 19 73 0 90 0 c 0
EndSplineSet
EndChar

StartChar: question
Encoding: 63 63 31
Width: 600
Flags: HW
LayerCount: 2
Back
Fore
SplineSet
150 500 m 0
 167 500 192 519 192 542 c 0
 192 565 167 584 150 584 c 0
 133 584 108 565 108 542 c 0
 108 519 133 500 150 500 c 0
270 500 m 0
 287 500 312 519 312 542 c 0
 312 565 287 584 270 584 c 0
 253 584 228 565 228 542 c 0
 228 519 253 500 270 500 c 0
390 500 m 0
 407 500 432 519 432 542 c 0
 432 565 407 584 390 584 c 0
 373 584 348 565 348 542 c 0
 348 519 373 500 390 500 c 0
90 416 m 0
 107 416 132 435 132 458 c 0
 132 481 107 500 90 500 c 0
 73 500 48 481 48 458 c 0
 48 435 73 416 90 416 c 0
450 416 m 0
 467 416 492 435 492 458 c 0
 492 481 467 500 450 500 c 0
 433 500 408 481 408 458 c 0
 408 435 433 416 450 416 c 0
270 333 m 0
 287 333 312 352 312 375 c 0
 312 398 287 417 270 417 c 0
 253 417 228 398 228 375 c 0
 228 352 253 333 270 333 c 0
390 333 m 0
 407 333 432 352 432 375 c 0
 432 398 407 417 390 417 c 0
 373 417 348 398 348 375 c 0
 348 352 373 333 390 333 c 0
270 250 m 0
 287 250 312 269 312 292 c 0
 312 315 287 334 270 334 c 0
 253 334 228 315 228 292 c 0
 228 269 253 250 270 250 c 0
270 166 m 0
 287 166 312 185 312 208 c 0
 312 231 287 250 270 250 c 0
 253 250 228 231 228 208 c 0
 228 185 253 166 270 166 c 0
270 0 m 0
 287 0 312 19 312 42 c 0
 312 65 287 84 270 84 c 0
 253 84 228 65 228 42 c 0
 228 19 253 0 270 0 c 0
EndSplineSet
EndChar

StartChar: at
Encoding: 64 64 32
Width: 600
Flags: HW
LayerCount: 2
Back
Fore
SplineSet
150 500 m 0
 167 500 192 519 192 542 c 0
 192 565 167 584 150 584 c 0
 133 584 108 565 108 542 c 0
 108 519 133 500 150 500 c 0
270 500 m 0
 287 500 312 519 312 542 c 0
 312 565 287 584 270 584 c 0
 253 584 228 565 228 542 c 0
 228 519 253 500 270 500 c 0
390 500 m 0
 407 500 432 519 432 542 c 0
 432 565 407 584 390 584 c 0
 373 584 348 565 348 542 c 0
 348 519 373 500 390 500 c 0
90 416 m 0
 107 416 132 435 132 458 c 0
 132 481 107 500 90 500 c 0
 73 500 48 481 48 458 c 0
 48 435 73 416 90 416 c 0
450 416 m 0
 467 416 492 435 492 458 c 0
 492 481 467 500 450 500 c 0
 433 500 408 481 408 458 c 0
 408 435 433 416 450 416 c 0
90 333 m 0
 107 333 132 352 132 375 c 0
 132 398 107 417 90 417 c 0
 73 417 48 398 48 375 c 0
 48 352 73 333 90 333 c 0
330 333 m 0
 347 333 372 352 372 375 c 0
 372 398 347 417 330 417 c 0
 313 417 288 398 288 375 c 0
 288 352 313 333 330 333 c 0
450 333 m 0
 467 333 492 352 492 375 c 0
 492 398 467 417 450 417 c 0
 433 417 408 398 408 375 c 0
 408 352 433 333 450 333 c 0
90 250 m 0
 107 250 132 269 132 292 c 0
 132 315 107 334 90 334 c 0
 73 334 48 315 48 292 c 0
 48 269 73 250 90 250 c 0
270 250 m 0
 287 250 312 269 312 292 c 0
 312 315 287 334 270 334 c 0
 253 334 228 315 228 292 c 0
 228 269 253 250 270 250 c 0
450 250 m 0
 467 250 492 269 492 292 c 0
 492 315 467 334 450 334 c 0
 433 334 408 315 408 292 c 0
 408 269 433 250 450 250 c 0
90 166 m 0
 107 166 132 185 132 208 c 0
 132 231 107 250 90 250 c 0
 73 250 48 231 48 208 c 0
 48 185 73 166 90 166 c 0
270 166 m 0
 287 166 312 185 312 208 c 0
 312 231 287 250 270 250 c 0
 253 250 228 231 228 208 c 0
 228 185 253 166 270 166 c 0
390 166 m 0
 407 166 432 185 432 208 c 0
 432 231 407 250 390 250 c 0
 373 250 348 231 348 208 c 0
 348 185 373 166 390 166 c 0
90 83 m 0
 107 83 132 102 132 125 c 0
 132 148 107 167 90 167 c 0
 73 167 48 148 48 125 c 0
 48 102 73 83 90 83 c 0
150 0 m 0
 167 0 192 19 192 42 c 0
 192 65 167 84 150 84 c 0
 133 84 108 65 108 42 c 0
 108 19 133 0 150 0 c 0
270 0 m 0
 287 0 312 19 312 42 c 0
 312 65 287 84 270 84 c 0
 253 84 228 65 228 42 c 0
 228 19 253 0 270 0 c 0
390 0 m 0
 407 0 432 19 432 42 c 0
 432 65 407 84 390 84 c 0
 373 84 348 65 348 42 c 0
 348 19 373 0 390 0 c 0
EndSplineSet
EndChar

StartChar: A
Encoding: 65 65 33
Width: 600
Flags: HW
LayerCount: 2
Back
Fore
SplineSet
270 500 m 0
 287 500 312 519 312 542 c 0
 312 565 287 584 270 584 c 0
 253 584 228 565 228 542 c 0
 228 519 253 500 270 500 c 0
210 416 m 0
 227 416 252 435 252 458 c 0
 252 481 227 500 210 500 c 0
 193 500 168 481 168 458 c 0
 168 435 193 416 210 416 c 0
330 416 m 0
 347 416 372 435 372 458 c 0
 372 481 347 500 330 500 c 0
 313 500 288 481 288 458 c 0
 288 435 313 416 330 416 c 0
150 333 m 0
 167 333 192 352 192 375 c 0
 192 398 167 417 150 417 c 0
 133 417 108 398 108 375 c 0
 108 352 133 333 150 333 c 0
390 333 m 0
 407 333 432 352 432 375 c 0
 432 398 407 417 390 417 c 0
 373 417 348 398 348 375 c 0
 348 352 373 333 390 333 c 0
90 250 m 0
 107 250 132 269 132 292 c 0
 132 315 107 334 90 334 c 0
 73 334 48 315 48 292 c 0
 48 269 73 250 90 250 c 0
450 250 m 0
 467 250 492 269 492 292 c 0
 492 315 467 334 450 334 c 0
 433 334 408 315 408 292 c 0
 408 269 433 250 450 250 c 0
90 166 m 0
 107 166 132 185 132 208 c 0
 132 231 107 250 90 250 c 0
 73 250 48 231 48 208 c 0
 48 185 73 166 90 166 c 0
210 166 m 0
 227 166 252 185 252 208 c 0
 252 231 227 250 210 250 c 0
 193 250 168 231 168 208 c 0
 168 185 193 166 210 166 c 0
330 166 m 0
 347 166 372 185 372 208 c 0
 372 231 347 250 330 250 c 0
 313 250 288 231 288 208 c 0
 288 185 313 166 330 166 c 0
450 166 m 0
 467 166 492 185 492 208 c 0
 492 231 467 250 450 250 c 0
 433 250 408 231 408 208 c 0
 408 185 433 166 450 166 c 0
90 83 m 0
 107 83 132 102 132 125 c 0
 132 148 107 167 90 167 c 0
 73 167 48 148 48 125 c 0
 48 102 73 83 90 83 c 0
450 83 m 0
 467 83 492 102 492 125 c 0
 492 148 467 167 450 167 c 0
 433 167 408 148 408 125 c 0
 408 102 433 83 450 83 c 0
90 0 m 0
 107 0 132 19 132 42 c 0
 132 65 107 84 90 84 c 0
 73 84 48 65 48 42 c 0
 48 19 73 0 90 0 c 0
450 0 m 0
 467 0 492 19 492 42 c 0
 492 65 467 84 450 84 c 0
 433 84 408 65 408 42 c 0
 408 19 433 0 450 0 c 0
EndSplineSet
EndChar

StartChar: B
Encoding: 66 66 34
Width: 600
Flags: HW
LayerCount: 2
Back
Fore
SplineSet
90 500 m 0
 107 500 132 519 132 542 c 0
 132 565 107 584 90 584 c 0
 73 584 48 565 48 542 c 0
 48 519 73 500 90 500 c 0
210 500 m 0
 227 500 252 519 252 542 c 0
 252 565 227 584 210 584 c 0
 193 584 168 565 168 542 c 0
 168 519 193 500 210 500 c 0
330 500 m 0
 347 500 372 519 372 542 c 0
 372 565 347 584 330 584 c 0
 313 584 288 565 288 542 c 0
 288 519 313 500 330 500 c 0
150 416 m 0
 167 416 192 435 192 458 c 0
 192 481 167 500 150 500 c 0
 133 500 108 481 108 458 c 0
 108 435 133 416 150 416 c 0
450 416 m 0
 467 416 492 435 492 458 c 0
 492 481 467 500 450 500 c 0
 433 500 408 481 408 458 c 0
 408 435 433 416 450 416 c 0
150 333 m 0
 167 333 192 352 192 375 c 0
 192 398 167 417 150 417 c 0
 133 417 108 398 108 375 c 0
 108 352 133 333 150 333 c 0
450 333 m 0
 467 333 492 352 492 375 c 0
 492 398 467 417 450 417 c 0
 433 417 408 398 408 375 c 0
 408 352 433 333 450 333 c 0
150 250 m 0
 167 250 192 269 192 292 c 0
 192 315 167 334 150 334 c 0
 133 334 108 315 108 292 c 0
 108 269 133 250 150 250 c 0
270 250 m 0
 287 250 312 269 312 292 c 0
 312 315 287 334 270 334 c 0
 253 334 228 315 228 292 c 0
 228 269 253 250 270 250 c 0
390 250 m 0
 407 250 432 269 432 292 c 0
 432 315 407 334 390 334 c 0
 373 334 348 315 348 292 c 0
 348 269 373 250 390 250 c 0
150 166 m 0
 167 166 192 185 192 208 c 0
 192 231 167 250 150 250 c 0
 133 250 108 231 108 208 c 0
 108 185 133 166 150 166 c 0
450 166 m 0
 467 166 492 185 492 208 c 0
 492 231 467 250 450 250 c 0
 433 250 408 231 408 208 c 0
 408 185 433 166 450 166 c 0
150 83 m 0
 167 83 192 102 192 125 c 0
 192 148 167 167 150 167 c 0
 133 167 108 148 108 125 c 0
 108 102 133 83 150 83 c 0
450 83 m 0
 467 83 492 102 492 125 c 0
 492 148 467 167 450 167 c 0
 433 167 408 148 408 125 c 0
 408 102 433 83 450 83 c 0
90 0 m 0
 107 0 132 19 132 42 c 0
 132 65 107 84 90 84 c 0
 73 84 48 65 48 42 c 0
 48 19 73 0 90 0 c 0
210 0 m 0
 227 0 252 19 252 42 c 0
 252 65 227 84 210 84 c 0
 193 84 168 65 168 42 c 0
 168 19 193 0 210 0 c 0
330 0 m 0
 347 0 372 19 372 42 c 0
 372 65 347 84 330 84 c 0
 313 84 288 65 288 42 c 0
 288 19 313 0 330 0 c 0
EndSplineSet
EndChar

StartChar: C
Encoding: 67 67 35
Width: 600
Flags: HW
LayerCount: 2
Back
Fore
SplineSet
150 500 m 0
 167 500 192 519 192 542 c 0
 192 565 167 584 150 584 c 0
 133 584 108 565 108 542 c 0
 108 519 133 500 150 500 c 0
270 500 m 0
 287 500 312 519 312 542 c 0
 312 565 287 584 270 584 c 0
 253 584 228 565 228 542 c 0
 228 519 253 500 270 500 c 0
390 500 m 0
 407 500 432 519 432 542 c 0
 432 565 407 584 390 584 c 0
 373 584 348 565 348 542 c 0
 348 519 373 500 390 500 c 0
90 416 m 0
 107 416 132 435 132 458 c 0
 132 481 107 500 90 500 c 0
 73 500 48 481 48 458 c 0
 48 435 73 416 90 416 c 0
450 416 m 0
 467 416 492 435 492 458 c 0
 492 481 467 500 450 500 c 0
 433 500 408 481 408 458 c 0
 408 435 433 416 450 416 c 0
90 333 m 0
 107 333 132 352 132 375 c 0
 132 398 107 417 90 417 c 0
 73 417 48 398 48 375 c 0
 48 352 73 333 90 333 c 0
90 250 m 0
 107 250 132 269 132 292 c 0
 132 315 107 334 90 334 c 0
 73 334 48 315 48 292 c 0
 48 269 73 250 90 250 c 0
90 166 m 0
 107 166 132 185 132 208 c 0
 132 231 107 250 90 250 c 0
 73 250 48 231 48 208 c 0
 48 185 73 166 90 166 c 0
90 83 m 0
 107 83 132 102 132 125 c 0
 132 148 107 167 90 167 c 0
 73 167 48 148 48 125 c 0
 48 102 73 83 90 83 c 0
450 83 m 0
 467 83 492 102 492 125 c 0
 492 148 467 167 450 167 c 0
 433 167 408 148 408 125 c 0
 408 102 433 83 450 83 c 0
150 0 m 0
 167 0 192 19 192 42 c 0
 192 65 167 84 150 84 c 0
 133 84 108 65 108 42 c 0
 108 19 133 0 150 0 c 0
270 0 m 0
 287 0 312 19 312 42 c 0
 312 65 287 84 270 84 c 0
 253 84 228 65 228 42 c 0
 228 19 253 0 270 0 c 0
390 0 m 0
 407 0 432 19 432 42 c 0
 432 65 407 84 390 84 c 0
 373 84 348 65 348 42 c 0
 348 19 373 0 390 0 c 0
EndSplineSet
EndChar

StartChar: D
Encoding: 68 68 36
Width: 600
Flags: HW
LayerCount: 2
Back
Fore
SplineSet
90 500 m 0
 107 500 132 519 132 542 c 0
 132 565 107 584 90 584 c 0
 73 584 48 565 48 542 c 0
 48 519 73 500 90 500 c 0
210 500 m 0
 227 500 252 519 252 542 c 0
 252 565 227 584 210 584 c 0
 193 584 168 565 168 542 c 0
 168 519 193 500 210 500 c 0
330 500 m 0
 347 500 372 519 372 542 c 0
 372 565 347 584 330 584 c 0
 313 584 288 565 288 542 c 0
 288 519 313 500 330 500 c 0
150 416 m 0
 167 416 192 435 192 458 c 0
 192 481 167 500 150 500 c 0
 133 500 108 481 108 458 c 0
 108 435 133 416 150 416 c 0
450 416 m 0
 467 416 492 435 492 458 c 0
 492 481 467 500 450 500 c 0
 433 500 408 481 408 458 c 0
 408 435 433 416 450 416 c 0
150 333 m 0
 167 333 192 352 192 375 c 0
 192 398 167 417 150 417 c 0
 133 417 108 398 108 375 c 0
 108 352 133 333 150 333 c 0
450 333 m 0
 467 333 492 352 492 375 c 0
 492 398 467 417 450 417 c 0
 433 417 408 398 408 375 c 0
 408 352 433 333 450 333 c 0
150 250 m 0
 167 250 192 269 192 292 c 0
 192 315 167 334 150 334 c 0
 133 334 108 315 108 292 c 0
 108 269 133 250 150 250 c 0
450 250 m 0
 467 250 492 269 492 292 c 0
 492 315 467 334 450 334 c 0
 433 334 408 315 408 292 c 0
 408 269 433 250 450 250 c 0
150 166 m 0
 167 166 192 185 192 208 c 0
 192 231 167 250 150 250 c 0
 133 250 108 231 108 208 c 0
 108 185 133 166 150 166 c 0
450 166 m 0
 467 166 492 185 492 208 c 0
 492 231 467 250 450 250 c 0
 433 250 408 231 408 208 c 0
 408 185 433 166 450 166 c 0
150 83 m 0
 167 83 192 102 192 125 c 0
 192 148 167 167 150 167 c 0
 133 167 108 148 108 125 c 0
 108 102 133 83 150 83 c 0
450 83 m 0
 467 83 492 102 492 125 c 0
 492 148 467 167 450 167 c 0
 433 167 408 148 408 125 c 0
 408 102 433 83 450 83 c 0
90 0 m 0
 107 0 132 19 132 42 c 0
 132 65 107 84 90 84 c 0
 73 84 48 65 48 42 c 0
 48 19 73 0 90 0 c 0
210 0 m 0
 227 0 252 19 252 42 c 0
 252 65 227 84 210 84 c 0
 193 84 168 65 168 42 c 0
 168 19 193 0 210 0 c 0
330 0 m 0
 347 0 372 19 372 42 c 0
 372 65 347 84 330 84 c 0
 313 84 288 65 288 42 c 0
 288 19 313 0 330 0 c 0
EndSplineSet
EndChar

StartChar: E
Encoding: 69 69 37
Width: 600
Flags: HW
LayerCount: 2
Back
Fore
SplineSet
90 500 m 0
 107 500 132 519 132 542 c 0
 132 565 107 584 90 584 c 0
 73 584 48 565 48 542 c 0
 48 519 73 500 90 500 c 0
210 500 m 0
 227 500 252 519 252 542 c 0
 252 565 227 584 210 584 c 0
 193 584 168 565 168 542 c 0
 168 519 193 500 210 500 c 0
330 500 m 0
 347 500 372 519 372 542 c 0
 372 565 347 584 330 584 c 0
 313 584 288 565 288 542 c 0
 288 519 313 500 330 500 c 0
450 500 m 0
 467 500 492 519 492 542 c 0
 492 565 467 584 450 584 c 0
 433 584 408 565 408 542 c 0
 408 519 433 500 450 500 c 0
90 416 m 0
 107 416 132 435 132 458 c 0
 132 481 107 500 90 500 c 0
 73 500 48 481 48 458 c 0
 48 435 73 416 90 416 c 0
90 333 m 0
 107 333 132 352 132 375 c 0
 132 398 107 417 90 417 c 0
 73 417 48 398 48 375 c 0
 48 352 73 333 90 333 c 0
90 250 m 0
 107 250 132 269 132 292 c 0
 132 315 107 334 90 334 c 0
 73 334 48 315 48 292 c 0
 48 269 73 250 90 250 c 0
210 250 m 0
 227 250 252 269 252 292 c 0
 252 315 227 334 210 334 c 0
 193 334 168 315 168 292 c 0
 168 269 193 250 210 250 c 0
330 250 m 0
 347 250 372 269 372 292 c 0
 372 315 347 334 330 334 c 0
 313 334 288 315 288 292 c 0
 288 269 313 250 330 250 c 0
90 166 m 0
 107 166 132 185 132 208 c 0
 132 231 107 250 90 250 c 0
 73 250 48 231 48 208 c 0
 48 185 73 166 90 166 c 0
90 83 m 0
 107 83 132 102 132 125 c 0
 132 148 107 167 90 167 c 0
 73 167 48 148 48 125 c 0
 48 102 73 83 90 83 c 0
90 0 m 0
 107 0 132 19 132 42 c 0
 132 65 107 84 90 84 c 0
 73 84 48 65 48 42 c 0
 48 19 73 0 90 0 c 0
210 0 m 0
 227 0 252 19 252 42 c 0
 252 65 227 84 210 84 c 0
 193 84 168 65 168 42 c 0
 168 19 193 0 210 0 c 0
330 0 m 0
 347 0 372 19 372 42 c 0
 372 65 347 84 330 84 c 0
 313 84 288 65 288 42 c 0
 288 19 313 0 330 0 c 0
450 0 m 0
 467 0 492 19 492 42 c 0
 492 65 467 84 450 84 c 0
 433 84 408 65 408 42 c 0
 408 19 433 0 450 0 c 0
EndSplineSet
EndChar

StartChar: F
Encoding: 70 70 38
Width: 600
Flags: HW
LayerCount: 2
Back
Fore
SplineSet
90 500 m 0
 107 500 132 519 132 542 c 0
 132 565 107 584 90 584 c 0
 73 584 48 565 48 542 c 0
 48 519 73 500 90 500 c 0
210 500 m 0
 227 500 252 519 252 542 c 0
 252 565 227 584 210 584 c 0
 193 584 168 565 168 542 c 0
 168 519 193 500 210 500 c 0
330 500 m 0
 347 500 372 519 372 542 c 0
 372 565 347 584 330 584 c 0
 313 584 288 565 288 542 c 0
 288 519 313 500 330 500 c 0
450 500 m 0
 467 500 492 519 492 542 c 0
 492 565 467 584 450 584 c 0
 433 584 408 565 408 542 c 0
 408 519 433 500 450 500 c 0
90 416 m 0
 107 416 132 435 132 458 c 0
 132 481 107 500 90 500 c 0
 73 500 48 481 48 458 c 0
 48 435 73 416 90 416 c 0
90 333 m 0
 107 333 132 352 132 375 c 0
 132 398 107 417 90 417 c 0
 73 417 48 398 48 375 c 0
 48 352 73 333 90 333 c 0
90 250 m 0
 107 250 132 269 132 292 c 0
 132 315 107 334 90 334 c 0
 73 334 48 315 48 292 c 0
 48 269 73 250 90 250 c 0
210 250 m 0
 227 250 252 269 252 292 c 0
 252 315 227 334 210 334 c 0
 193 334 168 315 168 292 c 0
 168 269 193 250 210 250 c 0
330 250 m 0
 347 250 372 269 372 292 c 0
 372 315 347 334 330 334 c 0
 313 334 288 315 288 292 c 0
 288 269 313 250 330 250 c 0
90 166 m 0
 107 166 132 185 132 208 c 0
 132 231 107 250 90 250 c 0
 73 250 48 231 48 208 c 0
 48 185 73 166 90 166 c 0
90 83 m 0
 107 83 132 102 132 125 c 0
 132 148 107 167 90 167 c 0
 73 167 48 148 48 125 c 0
 48 102 73 83 90 83 c 0
90 0 m 0
 107 0 132 19 132 42 c 0
 132 65 107 84 90 84 c 0
 73 84 48 65 48 42 c 0
 48 19 73 0 90 0 c 0
EndSplineSet
EndChar

StartChar: G
Encoding: 71 71 39
Width: 600
Flags: HW
LayerCount: 2
Back
Fore
SplineSet
150 500 m 0
 167 500 192 519 192 542 c 0
 192 565 167 584 150 584 c 0
 133 584 108 565 108 542 c 0
 108 519 133 500 150 500 c 0
270 500 m 0
 287 500 312 519 312 542 c 0
 312 565 287 584 270 584 c 0
 253 584 228 565 228 542 c 0
 228 519 253 500 270 500 c 0
390 500 m 0
 407 500 432 519 432 542 c 0
 432 565 407 584 390 584 c 0
 373 584 348 565 348 542 c 0
 348 519 373 500 390 500 c 0
90 416 m 0
 107 416 132 435 132 458 c 0
 132 481 107 500 90 500 c 0
 73 500 48 481 48 458 c 0
 48 435 73 416 90 416 c 0
450 416 m 0
 467 416 492 435 492 458 c 0
 492 481 467 500 450 500 c 0
 433 500 408 481 408 458 c 0
 408 435 433 416 450 416 c 0
90 333 m 0
 107 333 132 352 132 375 c 0
 132 398 107 417 90 417 c 0
 73 417 48 398 48 375 c 0
 48 352 73 333 90 333 c 0
90 250 m 0
 107 250 132 269 132 292 c 0
 132 315 107 334 90 334 c 0
 73 334 48 315 48 292 c 0
 48 269 73 250 90 250 c 0
330 250 m 0
 347 250 372 269 372 292 c 0
 372 315 347 334 330 334 c 0
 313 334 288 315 288 292 c 0
 288 269 313 250 330 250 c 0
450 250 m 0
 467 250 492 269 492 292 c 0
 492 315 467 334 450 334 c 0
 433 334 408 315 408 292 c 0
 408 269 433 250 450 250 c 0
90 166 m 0
 107 166 132 185 132 208 c 0
 132 231 107 250 90 250 c 0
 73 250 48 231 48 208 c 0
 48 185 73 166 90 166 c 0
450 166 m 0
 467 166 492 185 492 208 c 0
 492 231 467 250 450 250 c 0
 433 250 408 231 408 208 c 0
 408 185 433 166 450 166 c 0
90 83 m 0
 107 83 132 102 132 125 c 0
 132 148 107 167 90 167 c 0
 73 167 48 148 48 125 c 0
 48 102 73 83 90 83 c 0
450 83 m 0
 467 83 492 102 492 125 c 0
 492 148 467 167 450 167 c 0
 433 167 408 148 408 125 c 0
 408 102 433 83 450 83 c 0
150 0 m 0
 167 0 192 19 192 42 c 0
 192 65 167 84 150 84 c 0
 133 84 108 65 108 42 c 0
 108 19 133 0 150 0 c 0
270 0 m 0
 287 0 312 19 312 42 c 0
 312 65 287 84 270 84 c 0
 253 84 228 65 228 42 c 0
 228 19 253 0 270 0 c 0
390 0 m 0
 407 0 432 19 432 42 c 0
 432 65 407 84 390 84 c 0
 373 84 348 65 348 42 c 0
 348 19 373 0 390 0 c 0
EndSplineSet
EndChar

StartChar: H
Encoding: 72 72 40
Width: 600
Flags: HW
LayerCount: 2
Back
Fore
SplineSet
90 500 m 0
 107 500 132 519 132 542 c 0
 132 565 107 584 90 584 c 0
 73 584 48 565 48 542 c 0
 48 519 73 500 90 500 c 0
450 500 m 0
 467 500 492 519 492 542 c 0
 492 565 467 584 450 584 c 0
 433 584 408 565 408 542 c 0
 408 519 433 500 450 500 c 0
90 416 m 0
 107 416 132 435 132 458 c 0
 132 481 107 500 90 500 c 0
 73 500 48 481 48 458 c 0
 48 435 73 416 90 416 c 0
450 416 m 0
 467 416 492 435 492 458 c 0
 492 481 467 500 450 500 c 0
 433 500 408 481 408 458 c 0
 408 435 433 416 450 416 c 0
90 333 m 0
 107 333 132 352 132 375 c 0
 132 398 107 417 90 417 c 0
 73 417 48 398 48 375 c 0
 48 352 73 333 90 333 c 0
450 333 m 0
 467 333 492 352 492 375 c 0
 492 398 467 417 450 417 c 0
 433 417 408 398 408 375 c 0
 408 352 433 333 450 333 c 0
90 250 m 0
 107 250 132 269 132 292 c 0
 132 315 107 334 90 334 c 0
 73 334 48 315 48 292 c 0
 48 269 73 250 90 250 c 0
210 250 m 0
 227 250 252 269 252 292 c 0
 252 315 227 334 210 334 c 0
 193 334 168 315 168 292 c 0
 168 269 193 250 210 250 c 0
330 250 m 0
 347 250 372 269 372 292 c 0
 372 315 347 334 330 334 c 0
 313 334 288 315 288 292 c 0
 288 269 313 250 330 250 c 0
450 250 m 0
 467 250 492 269 492 292 c 0
 492 315 467 334 450 334 c 0
 433 334 408 315 408 292 c 0
 408 269 433 250 450 250 c 0
90 166 m 0
 107 166 132 185 132 208 c 0
 132 231 107 250 90 250 c 0
 73 250 48 231 48 208 c 0
 48 185 73 166 90 166 c 0
450 166 m 0
 467 166 492 185 492 208 c 0
 492 231 467 250 450 250 c 0
 433 250 408 231 408 208 c 0
 408 185 433 166 450 166 c 0
90 83 m 0
 107 83 132 102 132 125 c 0
 132 148 107 167 90 167 c 0
 73 167 48 148 48 125 c 0
 48 102 73 83 90 83 c 0
450 83 m 0
 467 83 492 102 492 125 c 0
 492 148 467 167 450 167 c 0
 433 167 408 148 408 125 c 0
 408 102 433 83 450 83 c 0
90 0 m 0
 107 0 132 19 132 42 c 0
 132 65 107 84 90 84 c 0
 73 84 48 65 48 42 c 0
 48 19 73 0 90 0 c 0
450 0 m 0
 467 0 492 19 492 42 c 0
 492 65 467 84 450 84 c 0
 433 84 408 65 408 42 c 0
 408 19 433 0 450 0 c 0
EndSplineSet
EndChar

StartChar: I
Encoding: 73 73 41
Width: 600
Flags: HW
LayerCount: 2
Back
Fore
SplineSet
150 500 m 0
 167 500 192 519 192 542 c 0
 192 565 167 584 150 584 c 0
 133 584 108 565 108 542 c 0
 108 519 133 500 150 500 c 0
270 500 m 0
 287 500 312 519 312 542 c 0
 312 565 287 584 270 584 c 0
 253 584 228 565 228 542 c 0
 228 519 253 500 270 500 c 0
390 500 m 0
 407 500 432 519 432 542 c 0
 432 565 407 584 390 584 c 0
 373 584 348 565 348 542 c 0
 348 519 373 500 390 500 c 0
270 416 m 0
 287 416 312 435 312 458 c 0
 312 481 287 500 270 500 c 0
 253 500 228 481 228 458 c 0
 228 435 253 416 270 416 c 0
270 333 m 0
 287 333 312 352 312 375 c 0
 312 398 287 417 270 417 c 0
 253 417 228 398 228 375 c 0
 228 352 253 333 270 333 c 0
270 250 m 0
 287 250 312 269 312 292 c 0
 312 315 287 334 270 334 c 0
 253 334 228 315 228 292 c 0
 228 269 253 250 270 250 c 0
270 166 m 0
 287 166 312 185 312 208 c 0
 312 231 287 250 270 250 c 0
 253 250 228 231 228 208 c 0
 228 185 253 166 270 166 c 0
270 83 m 0
 287 83 312 102 312 125 c 0
 312 148 287 167 270 167 c 0
 253 167 228 148 228 125 c 0
 228 102 253 83 270 83 c 0
150 0 m 0
 167 0 192 19 192 42 c 0
 192 65 167 84 150 84 c 0
 133 84 108 65 108 42 c 0
 108 19 133 0 150 0 c 0
270 0 m 0
 287 0 312 19 312 42 c 0
 312 65 287 84 270 84 c 0
 253 84 228 65 228 42 c 0
 228 19 253 0 270 0 c 0
390 0 m 0
 407 0 432 19 432 42 c 0
 432 65 407 84 390 84 c 0
 373 84 348 65 348 42 c 0
 348 19 373 0 390 0 c 0
EndSplineSet
EndChar

StartChar: J
Encoding: 74 74 42
Width: 600
Flags: HW
LayerCount: 2
Back
Fore
SplineSet
450 500 m 0
 467 500 492 519 492 542 c 0
 492 565 467 584 450 584 c 0
 433 584 408 565 408 542 c 0
 408 519 433 500 450 500 c 0
450 416 m 0
 467 416 492 435 492 458 c 0
 492 481 467 500 450 500 c 0
 433 500 408 481 408 458 c 0
 408 435 433 416 450 416 c 0
450 333 m 0
 467 333 492 352 492 375 c 0
 492 398 467 417 450 417 c 0
 433 417 408 398 408 375 c 0
 408 352 433 333 450 333 c 0
450 250 m 0
 467 250 492 269 492 292 c 0
 492 315 467 334 450 334 c 0
 433 334 408 315 408 292 c 0
 408 269 433 250 450 250 c 0
450 166 m 0
 467 166 492 185 492 208 c 0
 492 231 467 250 450 250 c 0
 433 250 408 231 408 208 c 0
 408 185 433 166 450 166 c 0
90 83 m 0
 107 83 132 102 132 125 c 0
 132 148 107 167 90 167 c 0
 73 167 48 148 48 125 c 0
 48 102 73 83 90 83 c 0
450 83 m 0
 467 83 492 102 492 125 c 0
 492 148 467 167 450 167 c 0
 433 167 408 148 408 125 c 0
 408 102 433 83 450 83 c 0
150 0 m 0
 167 0 192 19 192 42 c 0
 192 65 167 84 150 84 c 0
 133 84 108 65 108 42 c 0
 108 19 133 0 150 0 c 0
270 0 m 0
 287 0 312 19 312 42 c 0
 312 65 287 84 270 84 c 0
 253 84 228 65 228 42 c 0
 228 19 253 0 270 0 c 0
390 0 m 0
 407 0 432 19 432 42 c 0
 432 65 407 84 390 84 c 0
 373 84 348 65 348 42 c 0
 348 19 373 0 390 0 c 0
EndSplineSet
EndChar

StartChar: K
Encoding: 75 75 43
Width: 600
Flags: HW
LayerCount: 2
Back
Fore
SplineSet
90 500 m 0
 107 500 132 519 132 542 c 0
 132 565 107 584 90 584 c 0
 73 584 48 565 48 542 c 0
 48 519 73 500 90 500 c 0
450 500 m 0
 467 500 492 519 492 542 c 0
 492 565 467 584 450 584 c 0
 433 584 408 565 408 542 c 0
 408 519 433 500 450 500 c 0
90 416 m 0
 107 416 132 435 132 458 c 0
 132 481 107 500 90 500 c 0
 73 500 48 481 48 458 c 0
 48 435 73 416 90 416 c 0
330 416 m 0
 347 416 372 435 372 458 c 0
 372 481 347 500 330 500 c 0
 313 500 288 481 288 458 c 0
 288 435 313 416 330 416 c 0
90 333 m 0
 107 333 132 352 132 375 c 0
 132 398 107 417 90 417 c 0
 73 417 48 398 48 375 c 0
 48 352 73 333 90 333 c 0
210 333 m 0
 227 333 252 352 252 375 c 0
 252 398 227 417 210 417 c 0
 193 417 168 398 168 375 c 0
 168 352 193 333 210 333 c 0
90 250 m 0
 107 250 132 269 132 292 c 0
 132 315 107 334 90 334 c 0
 73 334 48 315 48 292 c 0
 48 269 73 250 90 250 c 0
270 250 m 0
 287 250 312 269 312 292 c 0
 312 315 287 334 270 334 c 0
 253 334 228 315 228 292 c 0
 228 269 253 250 270 250 c 0
90 166 m 0
 107 166 132 185 132 208 c 0
 132 231 107 250 90 250 c 0
 73 250 48 231 48 208 c 0
 48 185 73 166 90 166 c 0
330 166 m 0
 347 166 372 185 372 208 c 0
 372 231 347 250 330 250 c 0
 313 250 288 231 288 208 c 0
 288 185 313 166 330 166 c 0
90 83 m 0
 107 83 132 102 132 125 c 0
 132 148 107 167 90 167 c 0
 73 167 48 148 48 125 c 0
 48 102 73 83 90 83 c 0
390 83 m 0
 407 83 432 102 432 125 c 0
 432 148 407 167 390 167 c 0
 373 167 348 148 348 125 c 0
 348 102 373 83 390 83 c 0
90 0 m 0
 107 0 132 19 132 42 c 0
 132 65 107 84 90 84 c 0
 73 84 48 65 48 42 c 0
 48 19 73 0 90 0 c 0
450 0 m 0
 467 0 492 19 492 42 c 0
 492 65 467 84 450 84 c 0
 433 84 408 65 408 42 c 0
 408 19 433 0 450 0 c 0
EndSplineSet
EndChar

StartChar: L
Encoding: 76 76 44
Width: 600
Flags: HW
LayerCount: 2
Back
Fore
SplineSet
90 500 m 0
 107 500 132 519 132 542 c 0
 132 565 107 584 90 584 c 0
 73 584 48 565 48 542 c 0
 48 519 73 500 90 500 c 0
90 416 m 0
 107 416 132 435 132 458 c 0
 132 481 107 500 90 500 c 0
 73 500 48 481 48 458 c 0
 48 435 73 416 90 416 c 0
90 333 m 0
 107 333 132 352 132 375 c 0
 132 398 107 417 90 417 c 0
 73 417 48 398 48 375 c 0
 48 352 73 333 90 333 c 0
90 250 m 0
 107 250 132 269 132 292 c 0
 132 315 107 334 90 334 c 0
 73 334 48 315 48 292 c 0
 48 269 73 250 90 250 c 0
90 166 m 0
 107 166 132 185 132 208 c 0
 132 231 107 250 90 250 c 0
 73 250 48 231 48 208 c 0
 48 185 73 166 90 166 c 0
90 83 m 0
 107 83 132 102 132 125 c 0
 132 148 107 167 90 167 c 0
 73 167 48 148 48 125 c 0
 48 102 73 83 90 83 c 0
90 0 m 0
 107 0 132 19 132 42 c 0
 132 65 107 84 90 84 c 0
 73 84 48 65 48 42 c 0
 48 19 73 0 90 0 c 0
210 0 m 0
 227 0 252 19 252 42 c 0
 252 65 227 84 210 84 c 0
 193 84 168 65 168 42 c 0
 168 19 193 0 210 0 c 0
330 0 m 0
 347 0 372 19 372 42 c 0
 372 65 347 84 330 84 c 0
 313 84 288 65 288 42 c 0
 288 19 313 0 330 0 c 0
450 0 m 0
 467 0 492 19 492 42 c 0
 492 65 467 84 450 84 c 0
 433 84 408 65 408 42 c 0
 408 19 433 0 450 0 c 0
EndSplineSet
EndChar

StartChar: M
Encoding: 77 77 45
Width: 600
Flags: HW
LayerCount: 2
Back
Fore
SplineSet
90 500 m 0
 107 500 132 519 132 542 c 0
 132 565 107 584 90 584 c 0
 73 584 48 565 48 542 c 0
 48 519 73 500 90 500 c 0
450 500 m 0
 467 500 492 519 492 542 c 0
 492 565 467 584 450 584 c 0
 433 584 408 565 408 542 c 0
 408 519 433 500 450 500 c 0
150 416 m 0
 167 416 192 435 192 458 c 0
 192 481 167 500 150 500 c 0
 133 500 108 481 108 458 c 0
 108 435 133 416 150 416 c 0
390 416 m 0
 407 416 432 435 432 458 c 0
 432 481 407 500 390 500 c 0
 373 500 348 481 348 458 c 0
 348 435 373 416 390 416 c 0
90 333 m 0
 107 333 132 352 132 375 c 0
 132 398 107 417 90 417 c 0
 73 417 48 398 48 375 c 0
 48 352 73 333 90 333 c 0
210 333 m 0
 227 333 252 352 252 375 c 0
 252 398 227 417 210 417 c 0
 193 417 168 398 168 375 c 0
 168 352 193 333 210 333 c 0
330 333 m 0
 347 333 372 352 372 375 c 0
 372 398 347 417 330 417 c 0
 313 417 288 398 288 375 c 0
 288 352 313 333 330 333 c 0
450 333 m 0
 467 333 492 352 492 375 c 0
 492 398 467 417 450 417 c 0
 433 417 408 398 408 375 c 0
 408 352 433 333 450 333 c 0
90 250 m 0
 107 250 132 269 132 292 c 0
 132 315 107 334 90 334 c 0
 73 334 48 315 48 292 c 0
 48 269 73 250 90 250 c 0
270 250 m 0
 287 250 312 269 312 292 c 0
 312 315 287 334 270 334 c 0
 253 334 228 315 228 292 c 0
 228 269 253 250 270 250 c 0
450 250 m 0
 467 250 492 269 492 292 c 0
 492 315 467 334 450 334 c 0
 433 334 408 315 408 292 c 0
 408 269 433 250 450 250 c 0
90 166 m 0
 107 166 132 185 132 208 c 0
 132 231 107 250 90 250 c 0
 73 250 48 231 48 208 c 0
 48 185 73 166 90 166 c 0
450 166 m 0
 467 166 492 185 492 208 c 0
 492 231 467 250 450 250 c 0
 433 250 408 231 408 208 c 0
 408 185 433 166 450 166 c 0
90 83 m 0
 107 83 132 102 132 125 c 0
 132 148 107 167 90 167 c 0
 73 167 48 148 48 125 c 0
 48 102 73 83 90 83 c 0
450 83 m 0
 467 83 492 102 492 125 c 0
 492 148 467 167 450 167 c 0
 433 167 408 148 408 125 c 0
 408 102 433 83 450 83 c 0
90 0 m 0
 107 0 132 19 132 42 c 0
 132 65 107 84 90 84 c 0
 73 84 48 65 48 42 c 0
 48 19 73 0 90 0 c 0
450 0 m 0
 467 0 492 19 492 42 c 0
 492 65 467 84 450 84 c 0
 433 84 408 65 408 42 c 0
 408 19 433 0 450 0 c 0
EndSplineSet
EndChar

StartChar: N
Encoding: 78 78 46
Width: 600
Flags: HW
LayerCount: 2
Back
Fore
SplineSet
90 500 m 0
 107 500 132 519 132 542 c 0
 132 565 107 584 90 584 c 0
 73 584 48 565 48 542 c 0
 48 519 73 500 90 500 c 0
450 500 m 0
 467 500 492 519 492 542 c 0
 492 565 467 584 450 584 c 0
 433 584 408 565 408 542 c 0
 408 519 433 500 450 500 c 0
150 416 m 0
 167 416 192 435 192 458 c 0
 192 481 167 500 150 500 c 0
 133 500 108 481 108 458 c 0
 108 435 133 416 150 416 c 0
450 416 m 0
 467 416 492 435 492 458 c 0
 492 481 467 500 450 500 c 0
 433 500 408 481 408 458 c 0
 408 435 433 416 450 416 c 0
90 333 m 0
 107 333 132 352 132 375 c 0
 132 398 107 417 90 417 c 0
 73 417 48 398 48 375 c 0
 48 352 73 333 90 333 c 0
210 333 m 0
 227 333 252 352 252 375 c 0
 252 398 227 417 210 417 c 0
 193 417 168 398 168 375 c 0
 168 352 193 333 210 333 c 0
450 333 m 0
 467 333 492 352 492 375 c 0
 492 398 467 417 450 417 c 0
 433 417 408 398 408 375 c 0
 408 352 433 333 450 333 c 0
90 250 m 0
 107 250 132 269 132 292 c 0
 132 315 107 334 90 334 c 0
 73 334 48 315 48 292 c 0
 48 269 73 250 90 250 c 0
270 250 m 0
 287 250 312 269 312 292 c 0
 312 315 287 334 270 334 c 0
 253 334 228 315 228 292 c 0
 228 269 253 250 270 250 c 0
450 250 m 0
 467 250 492 269 492 292 c 0
 492 315 467 334 450 334 c 0
 433 334 408 315 408 292 c 0
 408 269 433 250 450 250 c 0
90 166 m 0
 107 166 132 185 132 208 c 0
 132 231 107 250 90 250 c 0
 73 250 48 231 48 208 c 0
 48 185 73 166 90 166 c 0
330 166 m 0
 347 166 372 185 372 208 c 0
 372 231 347 250 330 250 c 0
 313 250 288 231 288 208 c 0
 288 185 313 166 330 166 c 0
450 166 m 0
 467 166 492 185 492 208 c 0
 492 231 467 250 450 250 c 0
 433 250 408 231 408 208 c 0
 408 185 433 166 450 166 c 0
90 83 m 0
 107 83 132 102 132 125 c 0
 132 148 107 167 90 167 c 0
 73 167 48 148 48 125 c 0
 48 102 73 83 90 83 c 0
390 83 m 0
 407 83 432 102 432 125 c 0
 432 148 407 167 390 167 c 0
 373 167 348 148 348 125 c 0
 348 102 373 83 390 83 c 0
90 0 m 0
 107 0 132 19 132 42 c 0
 132 65 107 84 90 84 c 0
 73 84 48 65 48 42 c 0
 48 19 73 0 90 0 c 0
450 0 m 0
 467 0 492 19 492 42 c 0
 492 65 467 84 450 84 c 0
 433 84 408 65 408 42 c 0
 408 19 433 0 450 0 c 0
EndSplineSet
EndChar

StartChar: O
Encoding: 79 79 47
Width: 600
Flags: HW
LayerCount: 2
Back
Fore
SplineSet
150 500 m 0
 167 500 192 519 192 542 c 0
 192 565 167 584 150 584 c 0
 133 584 108 565 108 542 c 0
 108 519 133 500 150 500 c 0
270 500 m 0
 287 500 312 519 312 542 c 0
 312 565 287 584 270 584 c 0
 253 584 228 565 228 542 c 0
 228 519 253 500 270 500 c 0
390 500 m 0
 407 500 432 519 432 542 c 0
 432 565 407 584 390 584 c 0
 373 584 348 565 348 542 c 0
 348 519 373 500 390 500 c 0
90 416 m 0
 107 416 132 435 132 458 c 0
 132 481 107 500 90 500 c 0
 73 500 48 481 48 458 c 0
 48 435 73 416 90 416 c 0
450 416 m 0
 467 416 492 435 492 458 c 0
 492 481 467 500 450 500 c 0
 433 500 408 481 408 458 c 0
 408 435 433 416 450 416 c 0
90 333 m 0
 107 333 132 352 132 375 c 0
 132 398 107 417 90 417 c 0
 73 417 48 398 48 375 c 0
 48 352 73 333 90 333 c 0
450 333 m 0
 467 333 492 352 492 375 c 0
 492 398 467 417 450 417 c 0
 433 417 408 398 408 375 c 0
 408 352 433 333 450 333 c 0
90 250 m 0
 107 250 132 269 132 292 c 0
 132 315 107 334 90 334 c 0
 73 334 48 315 48 292 c 0
 48 269 73 250 90 250 c 0
450 250 m 0
 467 250 492 269 492 292 c 0
 492 315 467 334 450 334 c 0
 433 334 408 315 408 292 c 0
 408 269 433 250 450 250 c 0
90 166 m 0
 107 166 132 185 132 208 c 0
 132 231 107 250 90 250 c 0
 73 250 48 231 48 208 c 0
 48 185 73 166 90 166 c 0
450 166 m 0
 467 166 492 185 492 208 c 0
 492 231 467 250 450 250 c 0
 433 250 408 231 408 208 c 0
 408 185 433 166 450 166 c 0
90 83 m 0
 107 83 132 102 132 125 c 0
 132 148 107 167 90 167 c 0
 73 167 48 148 48 125 c 0
 48 102 73 83 90 83 c 0
450 83 m 0
 467 83 492 102 492 125 c 0
 492 148 467 167 450 167 c 0
 433 167 408 148 408 125 c 0
 408 102 433 83 450 83 c 0
150 0 m 0
 167 0 192 19 192 42 c 0
 192 65 167 84 150 84 c 0
 133 84 108 65 108 42 c 0
 108 19 133 0 150 0 c 0
270 0 m 0
 287 0 312 19 312 42 c 0
 312 65 287 84 270 84 c 0
 253 84 228 65 228 42 c 0
 228 19 253 0 270 0 c 0
390 0 m 0
 407 0 432 19 432 42 c 0
 432 65 407 84 390 84 c 0
 373 84 348 65 348 42 c 0
 348 19 373 0 390 0 c 0
EndSplineSet
EndChar

StartChar: P
Encoding: 80 80 48
Width: 600
Flags: HW
LayerCount: 2
Back
Fore
SplineSet
90 500 m 0
 107 500 132 519 132 542 c 0
 132 565 107 584 90 584 c 0
 73 584 48 565 48 542 c 0
 48 519 73 500 90 500 c 0
210 500 m 0
 227 500 252 519 252 542 c 0
 252 565 227 584 210 584 c 0
 193 584 168 565 168 542 c 0
 168 519 193 500 210 500 c 0
330 500 m 0
 347 500 372 519 372 542 c 0
 372 565 347 584 330 584 c 0
 313 584 288 565 288 542 c 0
 288 519 313 500 330 500 c 0
90 416 m 0
 107 416 132 435 132 458 c 0
 132 481 107 500 90 500 c 0
 73 500 48 481 48 458 c 0
 48 435 73 416 90 416 c 0
450 416 m 0
 467 416 492 435 492 458 c 0
 492 481 467 500 450 500 c 0
 433 500 408 481 408 458 c 0
 408 435 433 416 450 416 c 0
90 333 m 0
 107 333 132 352 132 375 c 0
 132 398 107 417 90 417 c 0
 73 417 48 398 48 375 c 0
 48 352 73 333 90 333 c 0
450 333 m 0
 467 333 492 352 492 375 c 0
 492 398 467 417 450 417 c 0
 433 417 408 398 408 375 c 0
 408 352 433 333 450 333 c 0
90 250 m 0
 107 250 132 269 132 292 c 0
 132 315 107 334 90 334 c 0
 73 334 48 315 48 292 c 0
 48 269 73 250 90 250 c 0
210 250 m 0
 227 250 252 269 252 292 c 0
 252 315 227 334 210 334 c 0
 193 334 168 315 168 292 c 0
 168 269 193 250 210 250 c 0
330 250 m 0
 347 250 372 269 372 292 c 0
 372 315 347 334 330 334 c 0
 313 334 288 315 288 292 c 0
 288 269 313 250 330 250 c 0
90 166 m 0
 107 166 132 185 132 208 c 0
 132 231 107 250 90 250 c 0
 73 250 48 231 48 208 c 0
 48 185 73 166 90 166 c 0
90 83 m 0
 107 83 132 102 132 125 c 0
 132 148 107 167 90 167 c 0
 73 167 48 148 48 125 c 0
 48 102 73 83 90 83 c 0
90 0 m 0
 107 0 132 19 132 42 c 0
 132 65 107 84 90 84 c 0
 73 84 48 65 48 42 c 0
 48 19 73 0 90 0 c 0
EndSplineSet
EndChar

StartChar: Q
Encoding: 81 81 49
Width: 600
Flags: HW
LayerCount: 2
Back
Fore
SplineSet
150 500 m 0
 167 500 192 519 192 542 c 0
 192 565 167 584 150 584 c 0
 133 584 108 565 108 542 c 0
 108 519 133 500 150 500 c 0
270 500 m 0
 287 500 312 519 312 542 c 0
 312 565 287 584 270 584 c 0
 253 584 228 565 228 542 c 0
 228 519 253 500 270 500 c 0
390 500 m 0
 407 500 432 519 432 542 c 0
 432 565 407 584 390 584 c 0
 373 584 348 565 348 542 c 0
 348 519 373 500 390 500 c 0
90 416 m 0
 107 416 132 435 132 458 c 0
 132 481 107 500 90 500 c 0
 73 500 48 481 48 458 c 0
 48 435 73 416 90 416 c 0
450 416 m 0
 467 416 492 435 492 458 c 0
 492 481 467 500 450 500 c 0
 433 500 408 481 408 458 c 0
 408 435 433 416 450 416 c 0
90 333 m 0
 107 333 132 352 132 375 c 0
 132 398 107 417 90 417 c 0
 73 417 48 398 48 375 c 0
 48 352 73 333 90 333 c 0
450 333 m 0
 467 333 492 352 492 375 c 0
 492 398 467 417 450 417 c 0
 433 417 408 398 408 375 c 0
 408 352 433 333 450 333 c 0
90 250 m 0
 107 250 132 269 132 292 c 0
 132 315 107 334 90 334 c 0
 73 334 48 315 48 292 c 0
 48 269 73 250 90 250 c 0
450 250 m 0
 467 250 492 269 492 292 c 0
 492 315 467 334 450 334 c 0
 433 334 408 315 408 292 c 0
 408 269 433 250 450 250 c 0
90 166 m 0
 107 166 132 185 132 208 c 0
 132 231 107 250 90 250 c 0
 73 250 48 231 48 208 c 0
 48 185 73 166 90 166 c 0
330 166 m 0
 347 166 372 185 372 208 c 0
 372 231 347 250 330 250 c 0
 313 250 288 231 288 208 c 0
 288 185 313 166 330 166 c 0
450 166 m 0
 467 166 492 185 492 208 c 0
 492 231 467 250 450 250 c 0
 433 250 408 231 408 208 c 0
 408 185 433 166 450 166 c 0
90 83 m 0
 107 83 132 102 132 125 c 0
 132 148 107 167 90 167 c 0
 73 167 48 148 48 125 c 0
 48 102 73 83 90 83 c 0
390 83 m 0
 407 83 432 102 432 125 c 0
 432 148 407 167 390 167 c 0
 373 167 348 148 348 125 c 0
 348 102 373 83 390 83 c 0
150 0 m 0
 167 0 192 19 192 42 c 0
 192 65 167 84 150 84 c 0
 133 84 108 65 108 42 c 0
 108 19 133 0 150 0 c 0
270 0 m 0
 287 0 312 19 312 42 c 0
 312 65 287 84 270 84 c 0
 253 84 228 65 228 42 c 0
 228 19 253 0 270 0 c 0
450 0 m 0
 467 0 492 19 492 42 c 0
 492 65 467 84 450 84 c 0
 433 84 408 65 408 42 c 0
 408 19 433 0 450 0 c 0
EndSplineSet
EndChar

StartChar: R
Encoding: 82 82 50
Width: 600
Flags: HW
LayerCount: 2
Back
Fore
SplineSet
90 500 m 0
 107 500 132 519 132 542 c 0
 132 565 107 584 90 584 c 0
 73 584 48 565 48 542 c 0
 48 519 73 500 90 500 c 0
210 500 m 0
 227 500 252 519 252 542 c 0
 252 565 227 584 210 584 c 0
 193 584 168 565 168 542 c 0
 168 519 193 500 210 500 c 0
330 500 m 0
 347 500 372 519 372 542 c 0
 372 565 347 584 330 584 c 0
 313 584 288 565 288 542 c 0
 288 519 313 500 330 500 c 0
90 416 m 0
 107 416 132 435 132 458 c 0
 132 481 107 500 90 500 c 0
 73 500 48 481 48 458 c 0
 48 435 73 416 90 416 c 0
450 416 m 0
 467 416 492 435 492 458 c 0
 492 481 467 500 450 500 c 0
 433 500 408 481 408 458 c 0
 408 435 433 416 450 416 c 0
90 333 m 0
 107 333 132 352 132 375 c 0
 132 398 107 417 90 417 c 0
 73 417 48 398 48 375 c 0
 48 352 73 333 90 333 c 0
450 333 m 0
 467 333 492 352 492 375 c 0
 492 398 467 417 450 417 c 0
 433 417 408 398 408 375 c 0
 408 352 433 333 450 333 c 0
90 250 m 0
 107 250 132 269 132 292 c 0
 132 315 107 334 90 334 c 0
 73 334 48 315 48 292 c 0
 48 269 73 250 90 250 c 0
210 250 m 0
 227 250 252 269 252 292 c 0
 252 315 227 334 210 334 c 0
 193 334 168 315 168 292 c 0
 168 269 193 250 210 250 c 0
330 250 m 0
 347 250 372 269 372 292 c 0
 372 315 347 334 330 334 c 0
 313 334 288 315 288 292 c 0
 288 269 313 250 330 250 c 0
90 166 m 0
 107 166 132 185 132 208 c 0
 132 231 107 250 90 250 c 0
 73 250 48 231 48 208 c 0
 48 185 73 166 90 166 c 0
330 166 m 0
 347 166 372 185 372 208 c 0
 372 231 347 250 330 250 c 0
 313 250 288 231 288 208 c 0
 288 185 313 166 330 166 c 0
90 83 m 0
 107 83 132 102 132 125 c 0
 132 148 107 167 90 167 c 0
 73 167 48 148 48 125 c 0
 48 102 73 83 90 83 c 0
390 83 m 0
 407 83 432 102 432 125 c 0
 432 148 407 167 390 167 c 0
 373 167 348 148 348 125 c 0
 348 102 373 83 390 83 c 0
90 0 m 0
 107 0 132 19 132 42 c 0
 132 65 107 84 90 84 c 0
 73 84 48 65 48 42 c 0
 48 19 73 0 90 0 c 0
450 0 m 0
 467 0 492 19 492 42 c 0
 492 65 467 84 450 84 c 0
 433 84 408 65 408 42 c 0
 408 19 433 0 450 0 c 0
EndSplineSet
EndChar

StartChar: S
Encoding: 83 83 51
Width: 600
Flags: HW
LayerCount: 2
Back
Fore
SplineSet
150 500 m 0
 167 500 192 519 192 542 c 0
 192 565 167 584 150 584 c 0
 133 584 108 565 108 542 c 0
 108 519 133 500 150 500 c 0
270 500 m 0
 287 500 312 519 312 542 c 0
 312 565 287 584 270 584 c 0
 253 584 228 565 228 542 c 0
 228 519 253 500 270 500 c 0
390 500 m 0
 407 500 432 519 432 542 c 0
 432 565 407 584 390 584 c 0
 373 584 348 565 348 542 c 0
 348 519 373 500 390 500 c 0
90 416 m 0
 107 416 132 435 132 458 c 0
 132 481 107 500 90 500 c 0
 73 500 48 481 48 458 c 0
 48 435 73 416 90 416 c 0
450 416 m 0
 467 416 492 435 492 458 c 0
 492 481 467 500 450 500 c 0
 433 500 408 481 408 458 c 0
 408 435 433 416 450 416 c 0
90 333 m 0
 107 333 132 352 132 375 c 0
 132 398 107 417 90 417 c 0
 73 417 48 398 48 375 c 0
 48 352 73 333 90 333 c 0
150 250 m 0
 167 250 192 269 192 292 c 0
 192 315 167 334 150 334 c 0
 133 334 108 315 108 292 c 0
 108 269 133 250 150 250 c 0
270 250 m 0
 287 250 312 269 312 292 c 0
 312 315 287 334 270 334 c 0
 253 334 228 315 228 292 c 0
 228 269 253 250 270 250 c 0
390 250 m 0
 407 250 432 269 432 292 c 0
 432 315 407 334 390 334 c 0
 373 334 348 315 348 292 c 0
 348 269 373 250 390 250 c 0
450 166 m 0
 467 166 492 185 492 208 c 0
 492 231 467 250 450 250 c 0
 433 250 408 231 408 208 c 0
 408 185 433 166 450 166 c 0
90 83 m 0
 107 83 132 102 132 125 c 0
 132 148 107 167 90 167 c 0
 73 167 48 148 48 125 c 0
 48 102 73 83 90 83 c 0
450 83 m 0
 467 83 492 102 492 125 c 0
 492 148 467 167 450 167 c 0
 433 167 408 148 408 125 c 0
 408 102 433 83 450 83 c 0
150 0 m 0
 167 0 192 19 192 42 c 0
 192 65 167 84 150 84 c 0
 133 84 108 65 108 42 c 0
 108 19 133 0 150 0 c 0
270 0 m 0
 287 0 312 19 312 42 c 0
 312 65 287 84 270 84 c 0
 253 84 228 65 228 42 c 0
 228 19 253 0 270 0 c 0
390 0 m 0
 407 0 432 19 432 42 c 0
 432 65 407 84 390 84 c 0
 373 84 348 65 348 42 c 0
 348 19 373 0 390 0 c 0
EndSplineSet
EndChar

StartChar: T
Encoding: 84 84 52
Width: 600
Flags: HW
LayerCount: 2
Back
Fore
SplineSet
90 500 m 0
 107 500 132 519 132 542 c 0
 132 565 107 584 90 584 c 0
 73 584 48 565 48 542 c 0
 48 519 73 500 90 500 c 0
210 500 m 0
 227 500 252 519 252 542 c 0
 252 565 227 584 210 584 c 0
 193 584 168 565 168 542 c 0
 168 519 193 500 210 500 c 0
330 500 m 0
 347 500 372 519 372 542 c 0
 372 565 347 584 330 584 c 0
 313 584 288 565 288 542 c 0
 288 519 313 500 330 500 c 0
450 500 m 0
 467 500 492 519 492 542 c 0
 492 565 467 584 450 584 c 0
 433 584 408 565 408 542 c 0
 408 519 433 500 450 500 c 0
270 416 m 0
 287 416 312 435 312 458 c 0
 312 481 287 500 270 500 c 0
 253 500 228 481 228 458 c 0
 228 435 253 416 270 416 c 0
270 333 m 0
 287 333 312 352 312 375 c 0
 312 398 287 417 270 417 c 0
 253 417 228 398 228 375 c 0
 228 352 253 333 270 333 c 0
270 250 m 0
 287 250 312 269 312 292 c 0
 312 315 287 334 270 334 c 0
 253 334 228 315 228 292 c 0
 228 269 253 250 270 250 c 0
270 166 m 0
 287 166 312 185 312 208 c 0
 312 231 287 250 270 250 c 0
 253 250 228 231 228 208 c 0
 228 185 253 166 270 166 c 0
270 83 m 0
 287 83 312 102 312 125 c 0
 312 148 287 167 270 167 c 0
 253 167 228 148 228 125 c 0
 228 102 253 83 270 83 c 0
270 0 m 0
 287 0 312 19 312 42 c 0
 312 65 287 84 270 84 c 0
 253 84 228 65 228 42 c 0
 228 19 253 0 270 0 c 0
EndSplineSet
EndChar

StartChar: U
Encoding: 85 85 53
Width: 600
Flags: HW
LayerCount: 2
Back
Fore
SplineSet
90 500 m 0
 107 500 132 519 132 542 c 0
 132 565 107 584 90 584 c 0
 73 584 48 565 48 542 c 0
 48 519 73 500 90 500 c 0
450 500 m 0
 467 500 492 519 492 542 c 0
 492 565 467 584 450 584 c 0
 433 584 408 565 408 542 c 0
 408 519 433 500 450 500 c 0
90 416 m 0
 107 416 132 435 132 458 c 0
 132 481 107 500 90 500 c 0
 73 500 48 481 48 458 c 0
 48 435 73 416 90 416 c 0
450 416 m 0
 467 416 492 435 492 458 c 0
 492 481 467 500 450 500 c 0
 433 500 408 481 408 458 c 0
 408 435 433 416 450 416 c 0
90 333 m 0
 107 333 132 352 132 375 c 0
 132 398 107 417 90 417 c 0
 73 417 48 398 48 375 c 0
 48 352 73 333 90 333 c 0
450 333 m 0
 467 333 492 352 492 375 c 0
 492 398 467 417 450 417 c 0
 433 417 408 398 408 375 c 0
 408 352 433 333 450 333 c 0
90 250 m 0
 107 250 132 269 132 292 c 0
 132 315 107 334 90 334 c 0
 73 334 48 315 48 292 c 0
 48 269 73 250 90 250 c 0
450 250 m 0
 467 250 492 269 492 292 c 0
 492 315 467 334 450 334 c 0
 433 334 408 315 408 292 c 0
 408 269 433 250 450 250 c 0
90 166 m 0
 107 166 132 185 132 208 c 0
 132 231 107 250 90 250 c 0
 73 250 48 231 48 208 c 0
 48 185 73 166 90 166 c 0
450 166 m 0
 467 166 492 185 492 208 c 0
 492 231 467 250 450 250 c 0
 433 250 408 231 408 208 c 0
 408 185 433 166 450 166 c 0
90 83 m 0
 107 83 132 102 132 125 c 0
 132 148 107 167 90 167 c 0
 73 167 48 148 48 125 c 0
 48 102 73 83 90 83 c 0
450 83 m 0
 467 83 492 102 492 125 c 0
 492 148 467 167 450 167 c 0
 433 167 408 148 408 125 c 0
 408 102 433 83 450 83 c 0
150 0 m 0
 167 0 192 19 192 42 c 0
 192 65 167 84 150 84 c 0
 133 84 108 65 108 42 c 0
 108 19 133 0 150 0 c 0
270 0 m 0
 287 0 312 19 312 42 c 0
 312 65 287 84 270 84 c 0
 253 84 228 65 228 42 c 0
 228 19 253 0 270 0 c 0
390 0 m 0
 407 0 432 19 432 42 c 0
 432 65 407 84 390 84 c 0
 373 84 348 65 348 42 c 0
 348 19 373 0 390 0 c 0
EndSplineSet
EndChar

StartChar: V
Encoding: 86 86 54
Width: 600
Flags: HW
LayerCount: 2
Back
Fore
SplineSet
90 500 m 0
 107 500 132 519 132 542 c 0
 132 565 107 584 90 584 c 0
 73 584 48 565 48 542 c 0
 48 519 73 500 90 500 c 0
450 500 m 0
 467 500 492 519 492 542 c 0
 492 565 467 584 450 584 c 0
 433 584 408 565 408 542 c 0
 408 519 433 500 450 500 c 0
90 416 m 0
 107 416 132 435 132 458 c 0
 132 481 107 500 90 500 c 0
 73 500 48 481 48 458 c 0
 48 435 73 416 90 416 c 0
450 416 m 0
 467 416 492 435 492 458 c 0
 492 481 467 500 450 500 c 0
 433 500 408 481 408 458 c 0
 408 435 433 416 450 416 c 0
90 333 m 0
 107 333 132 352 132 375 c 0
 132 398 107 417 90 417 c 0
 73 417 48 398 48 375 c 0
 48 352 73 333 90 333 c 0
450 333 m 0
 467 333 492 352 492 375 c 0
 492 398 467 417 450 417 c 0
 433 417 408 398 408 375 c 0
 408 352 433 333 450 333 c 0
90 250 m 0
 107 250 132 269 132 292 c 0
 132 315 107 334 90 334 c 0
 73 334 48 315 48 292 c 0
 48 269 73 250 90 250 c 0
450 250 m 0
 467 250 492 269 492 292 c 0
 492 315 467 334 450 334 c 0
 433 334 408 315 408 292 c 0
 408 269 433 250 450 250 c 0
150 166 m 0
 167 166 192 185 192 208 c 0
 192 231 167 250 150 250 c 0
 133 250 108 231 108 208 c 0
 108 185 133 166 150 166 c 0
390 166 m 0
 407 166 432 185 432 208 c 0
 432 231 407 250 390 250 c 0
 373 250 348 231 348 208 c 0
 348 185 373 166 390 166 c 0
210 83 m 0
 227 83 252 102 252 125 c 0
 252 148 227 167 210 167 c 0
 193 167 168 148 168 125 c 0
 168 102 193 83 210 83 c 0
330 83 m 0
 347 83 372 102 372 125 c 0
 372 148 347 167 330 167 c 0
 313 167 288 148 288 125 c 0
 288 102 313 83 330 83 c 0
270 0 m 0
 287 0 312 19 312 42 c 0
 312 65 287 84 270 84 c 0
 253 84 228 65 228 42 c 0
 228 19 253 0 270 0 c 0
EndSplineSet
EndChar

StartChar: W
Encoding: 87 87 55
Width: 600
Flags: HW
LayerCount: 2
Back
Fore
SplineSet
90 500 m 0
 107 500 132 519 132 542 c 0
 132 565 107 584 90 584 c 0
 73 584 48 565 48 542 c 0
 48 519 73 500 90 500 c 0
450 500 m 0
 467 500 492 519 492 542 c 0
 492 565 467 584 450 584 c 0
 433 584 408 565 408 542 c 0
 408 519 433 500 450 500 c 0
90 416 m 0
 107 416 132 435 132 458 c 0
 132 481 107 500 90 500 c 0
 73 500 48 481 48 458 c 0
 48 435 73 416 90 416 c 0
450 416 m 0
 467 416 492 435 492 458 c 0
 492 481 467 500 450 500 c 0
 433 500 408 481 408 458 c 0
 408 435 433 416 450 416 c 0
90 333 m 0
 107 333 132 352 132 375 c 0
 132 398 107 417 90 417 c 0
 73 417 48 398 48 375 c 0
 48 352 73 333 90 333 c 0
450 333 m 0
 467 333 492 352 492 375 c 0
 492 398 467 417 450 417 c 0
 433 417 408 398 408 375 c 0
 408 352 433 333 450 333 c 0
90 250 m 0
 107 250 132 269 132 292 c 0
 132 315 107 334 90 334 c 0
 73 334 48 315 48 292 c 0
 48 269 73 250 90 250 c 0
270 250 m 0
 287 250 312 269 312 292 c 0
 312 315 287 334 270 334 c 0
 253 334 228 315 228 292 c 0
 228 269 253 250 270 250 c 0
450 250 m 0
 467 250 492 269 492 292 c 0
 492 315 467 334 450 334 c 0
 433 334 408 315 408 292 c 0
 408 269 433 250 450 250 c 0
90 166 m 0
 107 166 132 185 132 208 c 0
 132 231 107 250 90 250 c 0
 73 250 48 231 48 208 c 0
 48 185 73 166 90 166 c 0
270 166 m 0
 287 166 312 185 312 208 c 0
 312 231 287 250 270 250 c 0
 253 250 228 231 228 208 c 0
 228 185 253 166 270 166 c 0
450 166 m 0
 467 166 492 185 492 208 c 0
 492 231 467 250 450 250 c 0
 433 250 408 231 408 208 c 0
 408 185 433 166 450 166 c 0
90 83 m 0
 107 83 132 102 132 125 c 0
 132 148 107 167 90 167 c 0
 73 167 48 148 48 125 c 0
 48 102 73 83 90 83 c 0
210 83 m 0
 227 83 252 102 252 125 c 0
 252 148 227 167 210 167 c 0
 193 167 168 148 168 125 c 0
 168 102 193 83 210 83 c 0
330 83 m 0
 347 83 372 102 372 125 c 0
 372 148 347 167 330 167 c 0
 313 167 288 148 288 125 c 0
 288 102 313 83 330 83 c 0
450 83 m 0
 467 83 492 102 492 125 c 0
 492 148 467 167 450 167 c 0
 433 167 408 148 408 125 c 0
 408 102 433 83 450 83 c 0
150 0 m 0
 167 0 192 19 192 42 c 0
 192 65 167 84 150 84 c 0
 133 84 108 65 108 42 c 0
 108 19 133 0 150 0 c 0
390 0 m 0
 407 0 432 19 432 42 c 0
 432 65 407 84 390 84 c 0
 373 84 348 65 348 42 c 0
 348 19 373 0 390 0 c 0
EndSplineSet
EndChar

StartChar: X
Encoding: 88 88 56
Width: 600
Flags: HW
LayerCount: 2
Back
Fore
SplineSet
90 500 m 0
 107 500 132 519 132 542 c 0
 132 565 107 584 90 584 c 0
 73 584 48 565 48 542 c 0
 48 519 73 500 90 500 c 0
450 500 m 0
 467 500 492 519 492 542 c 0
 492 565 467 584 450 584 c 0
 433 584 408 565 408 542 c 0
 408 519 433 500 450 500 c 0
150 416 m 0
 167 416 192 435 192 458 c 0
 192 481 167 500 150 500 c 0
 133 500 108 481 108 458 c 0
 108 435 133 416 150 416 c 0
390 416 m 0
 407 416 432 435 432 458 c 0
 432 481 407 500 390 500 c 0
 373 500 348 481 348 458 c 0
 348 435 373 416 390 416 c 0
210 333 m 0
 227 333 252 352 252 375 c 0
 252 398 227 417 210 417 c 0
 193 417 168 398 168 375 c 0
 168 352 193 333 210 333 c 0
330 333 m 0
 347 333 372 352 372 375 c 0
 372 398 347 417 330 417 c 0
 313 417 288 398 288 375 c 0
 288 352 313 333 330 333 c 0
270 250 m 0
 287 250 312 269 312 292 c 0
 312 315 287 334 270 334 c 0
 253 334 228 315 228 292 c 0
 228 269 253 250 270 250 c 0
210 166 m 0
 227 166 252 185 252 208 c 0
 252 231 227 250 210 250 c 0
 193 250 168 231 168 208 c 0
 168 185 193 166 210 166 c 0
330 166 m 0
 347 166 372 185 372 208 c 0
 372 231 347 250 330 250 c 0
 313 250 288 231 288 208 c 0
 288 185 313 166 330 166 c 0
150 83 m 0
 167 83 192 102 192 125 c 0
 192 148 167 167 150 167 c 0
 133 167 108 148 108 125 c 0
 108 102 133 83 150 83 c 0
390 83 m 0
 407 83 432 102 432 125 c 0
 432 148 407 167 390 167 c 0
 373 167 348 148 348 125 c 0
 348 102 373 83 390 83 c 0
90 0 m 0
 107 0 132 19 132 42 c 0
 132 65 107 84 90 84 c 0
 73 84 48 65 48 42 c 0
 48 19 73 0 90 0 c 0
450 0 m 0
 467 0 492 19 492 42 c 0
 492 65 467 84 450 84 c 0
 433 84 408 65 408 42 c 0
 408 19 433 0 450 0 c 0
EndSplineSet
EndChar

StartChar: Y
Encoding: 89 89 57
Width: 600
Flags: HW
LayerCount: 2
Back
Fore
SplineSet
90 500 m 0
 107 500 132 519 132 542 c 0
 132 565 107 584 90 584 c 0
 73 584 48 565 48 542 c 0
 48 519 73 500 90 500 c 0
450 500 m 0
 467 500 492 519 492 542 c 0
 492 565 467 584 450 584 c 0
 433 584 408 565 408 542 c 0
 408 519 433 500 450 500 c 0
150 416 m 0
 167 416 192 435 192 458 c 0
 192 481 167 500 150 500 c 0
 133 500 108 481 108 458 c 0
 108 435 133 416 150 416 c 0
390 416 m 0
 407 416 432 435 432 458 c 0
 432 481 407 500 390 500 c 0
 373 500 348 481 348 458 c 0
 348 435 373 416 390 416 c 0
210 333 m 0
 227 333 252 352 252 375 c 0
 252 398 227 417 210 417 c 0
 193 417 168 398 168 375 c 0
 168 352 193 333 210 333 c 0
330 333 m 0
 347 333 372 352 372 375 c 0
 372 398 347 417 330 417 c 0
 313 417 288 398 288 375 c 0
 288 352 313 333 330 333 c 0
270 250 m 0
 287 250 312 269 312 292 c 0
 312 315 287 334 270 334 c 0
 253 334 228 315 228 292 c 0
 228 269 253 250 270 250 c 0
270 166 m 0
 287 166 312 185 312 208 c 0
 312 231 287 250 270 250 c 0
 253 250 228 231 228 208 c 0
 228 185 253 166 270 166 c 0
270 83 m 0
 287 83 312 102 312 125 c 0
 312 148 287 167 270 167 c 0
 253 167 228 148 228 125 c 0
 228 102 253 83 270 83 c 0
270 0 m 0
 287 0 312 19 312 42 c 0
 312 65 287 84 270 84 c 0
 253 84 228 65 228 42 c 0
 228 19 253 0 270 0 c 0
EndSplineSet
EndChar

StartChar: Z
Encoding: 90 90 58
Width: 600
Flags: HW
LayerCount: 2
Back
Fore
SplineSet
90 500 m 0
 107 500 132 519 132 542 c 0
 132 565 107 584 90 584 c 0
 73 584 48 565 48 542 c 0
 48 519 73 500 90 500 c 0
210 500 m 0
 227 500 252 519 252 542 c 0
 252 565 227 584 210 584 c 0
 193 584 168 565 168 542 c 0
 168 519 193 500 210 500 c 0
330 500 m 0
 347 500 372 519 372 542 c 0
 372 565 347 584 330 584 c 0
 313 584 288 565 288 542 c 0
 288 519 313 500 330 500 c 0
450 500 m 0
 467 500 492 519 492 542 c 0
 492 565 467 584 450 584 c 0
 433 584 408 565 408 542 c 0
 408 519 433 500 450 500 c 0
390 416 m 0
 407 416 432 435 432 458 c 0
 432 481 407 500 390 500 c 0
 373 500 348 481 348 458 c 0
 348 435 373 416 390 416 c 0
330 333 m 0
 347 333 372 352 372 375 c 0
 372 398 347 417 330 417 c 0
 313 417 288 398 288 375 c 0
 288 352 313 333 330 333 c 0
270 250 m 0
 287 250 312 269 312 292 c 0
 312 315 287 334 270 334 c 0
 253 334 228 315 228 292 c 0
 228 269 253 250 270 250 c 0
210 166 m 0
 227 166 252 185 252 208 c 0
 252 231 227 250 210 250 c 0
 193 250 168 231 168 208 c 0
 168 185 193 166 210 166 c 0
150 83 m 0
 167 83 192 102 192 125 c 0
 192 148 167 167 150 167 c 0
 133 167 108 148 108 125 c 0
 108 102 133 83 150 83 c 0
90 0 m 0
 107 0 132 19 132 42 c 0
 132 65 107 84 90 84 c 0
 73 84 48 65 48 42 c 0
 48 19 73 0 90 0 c 0
210 0 m 0
 227 0 252 19 252 42 c 0
 252 65 227 84 210 84 c 0
 193 84 168 65 168 42 c 0
 168 19 193 0 210 0 c 0
330 0 m 0
 347 0 372 19 372 42 c 0
 372 65 347 84 330 84 c 0
 313 84 288 65 288 42 c 0
 288 19 313 0 330 0 c 0
450 0 m 0
 467 0 492 19 492 42 c 0
 492 65 467 84 450 84 c 0
 433 84 408 65 408 42 c 0
 408 19 433 0 450 0 c 0
EndSplineSet
EndChar

StartChar: bracketleft
Encoding: 91 91 59
Width: 600
Flags: HW
LayerCount: 2
Back
Fore
SplineSet
210 500 m 0
 227 500 252 519 252 542 c 0
 252 565 227 584 210 584 c 0
 193 584 168 565 168 542 c 0
 168 519 193 500 210 500 c 0
330 500 m 0
 347 500 372 519 372 542 c 0
 372 565 347 584 330 584 c 0
 313 584 288 565 288 542 c 0
 288 519 313 500 330 500 c 0
450 500 m 0
 467 500 492 519 492 542 c 0
 492 565 467 584 450 584 c 0
 433 584 408 565 408 542 c 0
 408 519 433 500 450 500 c 0
210 416 m 0
 227 416 252 435 252 458 c 0
 252 481 227 500 210 500 c 0
 193 500 168 481 168 458 c 0
 168 435 193 416 210 416 c 0
210 333 m 0
 227 333 252 352 252 375 c 0
 252 398 227 417 210 417 c 0
 193 417 168 398 168 375 c 0
 168 352 193 333 210 333 c 0
210 250 m 0
 227 250 252 269 252 292 c 0
 252 315 227 334 210 334 c 0
 193 334 168 315 168 292 c 0
 168 269 193 250 210 250 c 0
210 166 m 0
 227 166 252 185 252 208 c 0
 252 231 227 250 210 250 c 0
 193 250 168 231 168 208 c 0
 168 185 193 166 210 166 c 0
210 83 m 0
 227 83 252 102 252 125 c 0
 252 148 227 167 210 167 c 0
 193 167 168 148 168 125 c 0
 168 102 193 83 210 83 c 0
210 0 m 0
 227 0 252 19 252 42 c 0
 252 65 227 84 210 84 c 0
 193 84 168 65 168 42 c 0
 168 19 193 0 210 0 c 0
330 0 m 0
 347 0 372 19 372 42 c 0
 372 65 347 84 330 84 c 0
 313 84 288 65 288 42 c 0
 288 19 313 0 330 0 c 0
450 0 m 0
 467 0 492 19 492 42 c 0
 492 65 467 84 450 84 c 0
 433 84 408 65 408 42 c 0
 408 19 433 0 450 0 c 0
EndSplineSet
EndChar

StartChar: backslash
Encoding: 92 92 60
Width: 600
Flags: HW
LayerCount: 2
Back
Fore
SplineSet
90 500 m 0
 107 500 132 519 132 542 c 0
 132 565 107 584 90 584 c 0
 73 584 48 565 48 542 c 0
 48 519 73 500 90 500 c 0
150 416 m 0
 167 416 192 435 192 458 c 0
 192 481 167 500 150 500 c 0
 133 500 108 481 108 458 c 0
 108 435 133 416 150 416 c 0
210 333 m 0
 227 333 252 352 252 375 c 0
 252 398 227 417 210 417 c 0
 193 417 168 398 168 375 c 0
 168 352 193 333 210 333 c 0
270 250 m 0
 287 250 312 269 312 292 c 0
 312 315 287 334 270 334 c 0
 253 334 228 315 228 292 c 0
 228 269 253 250 270 250 c 0
330 166 m 0
 347 166 372 185 372 208 c 0
 372 231 347 250 330 250 c 0
 313 250 288 231 288 208 c 0
 288 185 313 166 330 166 c 0
390 83 m 0
 407 83 432 102 432 125 c 0
 432 148 407 167 390 167 c 0
 373 167 348 148 348 125 c 0
 348 102 373 83 390 83 c 0
450 0 m 0
 467 0 492 19 492 42 c 0
 492 65 467 84 450 84 c 0
 433 84 408 65 408 42 c 0
 408 19 433 0 450 0 c 0
EndSplineSet
EndChar

StartChar: bracketright
Encoding: 93 93 61
Width: 600
Flags: HW
LayerCount: 2
Back
Fore
SplineSet
90 500 m 0
 107 500 132 519 132 542 c 0
 132 565 107 584 90 584 c 0
 73 584 48 565 48 542 c 0
 48 519 73 500 90 500 c 0
210 500 m 0
 227 500 252 519 252 542 c 0
 252 565 227 584 210 584 c 0
 193 584 168 565 168 542 c 0
 168 519 193 500 210 500 c 0
330 500 m 0
 347 500 372 519 372 542 c 0
 372 565 347 584 330 584 c 0
 313 584 288 565 288 542 c 0
 288 519 313 500 330 500 c 0
330 416 m 0
 347 416 372 435 372 458 c 0
 372 481 347 500 330 500 c 0
 313 500 288 481 288 458 c 0
 288 435 313 416 330 416 c 0
330 333 m 0
 347 333 372 352 372 375 c 0
 372 398 347 417 330 417 c 0
 313 417 288 398 288 375 c 0
 288 352 313 333 330 333 c 0
330 250 m 0
 347 250 372 269 372 292 c 0
 372 315 347 334 330 334 c 0
 313 334 288 315 288 292 c 0
 288 269 313 250 330 250 c 0
330 166 m 0
 347 166 372 185 372 208 c 0
 372 231 347 250 330 250 c 0
 313 250 288 231 288 208 c 0
 288 185 313 166 330 166 c 0
330 83 m 0
 347 83 372 102 372 125 c 0
 372 148 347 167 330 167 c 0
 313 167 288 148 288 125 c 0
 288 102 313 83 330 83 c 0
90 0 m 0
 107 0 132 19 132 42 c 0
 132 65 107 84 90 84 c 0
 73 84 48 65 48 42 c 0
 48 19 73 0 90 0 c 0
210 0 m 0
 227 0 252 19 252 42 c 0
 252 65 227 84 210 84 c 0
 193 84 168 65 168 42 c 0
 168 19 193 0 210 0 c 0
330 0 m 0
 347 0 372 19 372 42 c 0
 372 65 347 84 330 84 c 0
 313 84 288 65 288 42 c 0
 288 19 313 0 330 0 c 0
EndSplineSet
EndChar

StartChar: asciicircum
Encoding: 94 94 62
Width: 600
Flags: HW
LayerCount: 2
Back
Fore
SplineSet
150 500 m 0
 167 500 192 519 192 542 c 0
 192 565 167 584 150 584 c 0
 133 584 108 565 108 542 c 0
 108 519 133 500 150 500 c 0
270 500 m 0
 287 500 312 519 312 542 c 0
 312 565 287 584 270 584 c 0
 253 584 228 565 228 542 c 0
 228 519 253 500 270 500 c 0
390 500 m 0
 407 500 432 519 432 542 c 0
 432 565 407 584 390 584 c 0
 373 584 348 565 348 542 c 0
 348 519 373 500 390 500 c 0
90 416 m 0
 107 416 132 435 132 458 c 0
 132 481 107 500 90 500 c 0
 73 500 48 481 48 458 c 0
 48 435 73 416 90 416 c 0
450 416 m 0
 467 416 492 435 492 458 c 0
 492 481 467 500 450 500 c 0
 433 500 408 481 408 458 c 0
 408 435 433 416 450 416 c 0
EndSplineSet
EndChar

StartChar: underscore
Encoding: 95 95 63
Width: 600
Flags: HW
LayerCount: 2
Back
Fore
SplineSet
90 0 m 0
 107 0 132 19 132 42 c 0
 132 65 107 84 90 84 c 0
 73 84 48 65 48 42 c 0
 48 19 73 0 90 0 c 0
210 0 m 0
 227 0 252 19 252 42 c 0
 252 65 227 84 210 84 c 0
 193 84 168 65 168 42 c 0
 168 19 193 0 210 0 c 0
330 0 m 0
 347 0 372 19 372 42 c 0
 372 65 347 84 330 84 c 0
 313 84 288 65 288 42 c 0
 288 19 313 0 330 0 c 0
450 0 m 0
 467 0 492 19 492 42 c 0
 492 65 467 84 450 84 c 0
 433 84 408 65 408 42 c 0
 408 19 433 0 450 0 c 0
EndSplineSet
EndChar

StartChar: grave
Encoding: 96 96 64
Width: 600
Flags: HW
LayerCount: 2
Back
Fore
SplineSet
210 500 m 0
 227 500 252 519 252 542 c 0
 252 565 227 584 210 584 c 0
 193 584 168 565 168 542 c 0
 168 519 193 500 210 500 c 0
270 416 m 0
 287 416 312 435 312 458 c 0
 312 481 287 500 270 500 c 0
 253 500 228 481 228 458 c 0
 228 435 253 416 270 416 c 0
330 333 m 0
 347 333 372 352 372 375 c 0
 372 398 347 417 330 417 c 0
 313 417 288 398 288 375 c 0
 288 352 313 333 330 333 c 0
EndSplineSet
EndChar

StartChar: a
Encoding: 97 97 65
Width: 600
Flags: HW
LayerCount: 2
Back
Fore
SplineSet
150 333 m 0
 167 333 192 352 192 375 c 0
 192 398 167 417 150 417 c 0
 133 417 108 398 108 375 c 0
 108 352 133 333 150 333 c 0
270 333 m 0
 287 333 312 352 312 375 c 0
 312 398 287 417 270 417 c 0
 253 417 228 398 228 375 c 0
 228 352 253 333 270 333 c 0
390 333 m 0
 407 333 432 352 432 375 c 0
 432 398 407 417 390 417 c 0
 373 417 348 398 348 375 c 0
 348 352 373 333 390 333 c 0
450 250 m 0
 467 250 492 269 492 292 c 0
 492 315 467 334 450 334 c 0
 433 334 408 315 408 292 c 0
 408 269 433 250 450 250 c 0
150 166 m 0
 167 166 192 185 192 208 c 0
 192 231 167 250 150 250 c 0
 133 250 108 231 108 208 c 0
 108 185 133 166 150 166 c 0
270 166 m 0
 287 166 312 185 312 208 c 0
 312 231 287 250 270 250 c 0
 253 250 228 231 228 208 c 0
 228 185 253 166 270 166 c 0
390 166 m 0
 407 166 432 185 432 208 c 0
 432 231 407 250 390 250 c 0
 373 250 348 231 348 208 c 0
 348 185 373 166 390 166 c 0
90 83 m 0
 107 83 132 102 132 125 c 0
 132 148 107 167 90 167 c 0
 73 167 48 148 48 125 c 0
 48 102 73 83 90 83 c 0
450 83 m 0
 467 83 492 102 492 125 c 0
 492 148 467 167 450 167 c 0
 433 167 408 148 408 125 c 0
 408 102 433 83 450 83 c 0
150 0 m 0
 167 0 192 19 192 42 c 0
 192 65 167 84 150 84 c 0
 133 84 108 65 108 42 c 0
 108 19 133 0 150 0 c 0
270 0 m 0
 287 0 312 19 312 42 c 0
 312 65 287 84 270 84 c 0
 253 84 228 65 228 42 c 0
 228 19 253 0 270 0 c 0
390 0 m 0
 407 0 432 19 432 42 c 0
 432 65 407 84 390 84 c 0
 373 84 348 65 348 42 c 0
 348 19 373 0 390 0 c 0
EndSplineSet
EndChar

StartChar: b
Encoding: 98 98 66
Width: 600
Flags: HW
LayerCount: 2
Back
Fore
SplineSet
90 500 m 0
 107 500 132 519 132 542 c 0
 132 565 107 584 90 584 c 0
 73 584 48 565 48 542 c 0
 48 519 73 500 90 500 c 0
90 416 m 0
 107 416 132 435 132 458 c 0
 132 481 107 500 90 500 c 0
 73 500 48 481 48 458 c 0
 48 435 73 416 90 416 c 0
150 333 m 0
 167 333 192 352 192 375 c 0
 192 398 167 417 150 417 c 0
 133 417 108 398 108 375 c 0
 108 352 133 333 150 333 c 0
270 333 m 0
 287 333 312 352 312 375 c 0
 312 398 287 417 270 417 c 0
 253 417 228 398 228 375 c 0
 228 352 253 333 270 333 c 0
390 333 m 0
 407 333 432 352 432 375 c 0
 432 398 407 417 390 417 c 0
 373 417 348 398 348 375 c 0
 348 352 373 333 390 333 c 0
90 250 m 0
 107 250 132 269 132 292 c 0
 132 315 107 334 90 334 c 0
 73 334 48 315 48 292 c 0
 48 269 73 250 90 250 c 0
450 250 m 0
 467 250 492 269 492 292 c 0
 492 315 467 334 450 334 c 0
 433 334 408 315 408 292 c 0
 408 269 433 250 450 250 c 0
90 166 m 0
 107 166 132 185 132 208 c 0
 132 231 107 250 90 250 c 0
 73 250 48 231 48 208 c 0
 48 185 73 166 90 166 c 0
450 166 m 0
 467 166 492 185 492 208 c 0
 492 231 467 250 450 250 c 0
 433 250 408 231 408 208 c 0
 408 185 433 166 450 166 c 0
90 83 m 0
 107 83 132 102 132 125 c 0
 132 148 107 167 90 167 c 0
 73 167 48 148 48 125 c 0
 48 102 73 83 90 83 c 0
450 83 m 0
 467 83 492 102 492 125 c 0
 492 148 467 167 450 167 c 0
 433 167 408 148 408 125 c 0
 408 102 433 83 450 83 c 0
90 0 m 0
 107 0 132 19 132 42 c 0
 132 65 107 84 90 84 c 0
 73 84 48 65 48 42 c 0
 48 19 73 0 90 0 c 0
210 0 m 0
 227 0 252 19 252 42 c 0
 252 65 227 84 210 84 c 0
 193 84 168 65 168 42 c 0
 168 19 193 0 210 0 c 0
330 0 m 0
 347 0 372 19 372 42 c 0
 372 65 347 84 330 84 c 0
 313 84 288 65 288 42 c 0
 288 19 313 0 330 0 c 0
EndSplineSet
EndChar

StartChar: c
Encoding: 99 99 67
Width: 600
Flags: HW
LayerCount: 2
Back
Fore
SplineSet
150 333 m 0
 167 333 192 352 192 375 c 0
 192 398 167 417 150 417 c 0
 133 417 108 398 108 375 c 0
 108 352 133 333 150 333 c 0
270 333 m 0
 287 333 312 352 312 375 c 0
 312 398 287 417 270 417 c 0
 253 417 228 398 228 375 c 0
 228 352 253 333 270 333 c 0
390 333 m 0
 407 333 432 352 432 375 c 0
 432 398 407 417 390 417 c 0
 373 417 348 398 348 375 c 0
 348 352 373 333 390 333 c 0
90 250 m 0
 107 250 132 269 132 292 c 0
 132 315 107 334 90 334 c 0
 73 334 48 315 48 292 c 0
 48 269 73 250 90 250 c 0
450 250 m 0
 467 250 492 269 492 292 c 0
 492 315 467 334 450 334 c 0
 433 334 408 315 408 292 c 0
 408 269 433 250 450 250 c 0
90 166 m 0
 107 166 132 185 132 208 c 0
 132 231 107 250 90 250 c 0
 73 250 48 231 48 208 c 0
 48 185 73 166 90 166 c 0
90 83 m 0
 107 83 132 102 132 125 c 0
 132 148 107 167 90 167 c 0
 73 167 48 148 48 125 c 0
 48 102 73 83 90 83 c 0
150 0 m 0
 167 0 192 19 192 42 c 0
 192 65 167 84 150 84 c 0
 133 84 108 65 108 42 c 0
 108 19 133 0 150 0 c 0
270 0 m 0
 287 0 312 19 312 42 c 0
 312 65 287 84 270 84 c 0
 253 84 228 65 228 42 c 0
 228 19 253 0 270 0 c 0
390 0 m 0
 407 0 432 19 432 42 c 0
 432 65 407 84 390 84 c 0
 373 84 348 65 348 42 c 0
 348 19 373 0 390 0 c 0
EndSplineSet
EndChar

StartChar: d
Encoding: 100 100 68
Width: 600
Flags: HW
LayerCount: 2
Back
Fore
SplineSet
450 500 m 0
 467 500 492 519 492 542 c 0
 492 565 467 584 450 584 c 0
 433 584 408 565 408 542 c 0
 408 519 433 500 450 500 c 0
450 416 m 0
 467 416 492 435 492 458 c 0
 492 481 467 500 450 500 c 0
 433 500 408 481 408 458 c 0
 408 435 433 416 450 416 c 0
150 333 m 0
 167 333 192 352 192 375 c 0
 192 398 167 417 150 417 c 0
 133 417 108 398 108 375 c 0
 108 352 133 333 150 333 c 0
270 333 m 0
 287 333 312 352 312 375 c 0
 312 398 287 417 270 417 c 0
 253 417 228 398 228 375 c 0
 228 352 253 333 270 333 c 0
390 333 m 0
 407 333 432 352 432 375 c 0
 432 398 407 417 390 417 c 0
 373 417 348 398 348 375 c 0
 348 352 373 333 390 333 c 0
90 250 m 0
 107 250 132 269 132 292 c 0
 132 315 107 334 90 334 c 0
 73 334 48 315 48 292 c 0
 48 269 73 250 90 250 c 0
450 250 m 0
 467 250 492 269 492 292 c 0
 492 315 467 334 450 334 c 0
 433 334 408 315 408 292 c 0
 408 269 433 250 450 250 c 0
90 166 m 0
 107 166 132 185 132 208 c 0
 132 231 107 250 90 250 c 0
 73 250 48 231 48 208 c 0
 48 185 73 166 90 166 c 0
450 166 m 0
 467 166 492 185 492 208 c 0
 492 231 467 250 450 250 c 0
 433 250 408 231 408 208 c 0
 408 185 433 166 450 166 c 0
90 83 m 0
 107 83 132 102 132 125 c 0
 132 148 107 167 90 167 c 0
 73 167 48 148 48 125 c 0
 48 102 73 83 90 83 c 0
450 83 m 0
 467 83 492 102 492 125 c 0
 492 148 467 167 450 167 c 0
 433 167 408 148 408 125 c 0
 408 102 433 83 450 83 c 0
210 0 m 0
 227 0 252 19 252 42 c 0
 252 65 227 84 210 84 c 0
 193 84 168 65 168 42 c 0
 168 19 193 0 210 0 c 0
330 0 m 0
 347 0 372 19 372 42 c 0
 372 65 347 84 330 84 c 0
 313 84 288 65 288 42 c 0
 288 19 313 0 330 0 c 0
450 0 m 0
 467 0 492 19 492 42 c 0
 492 65 467 84 450 84 c 0
 433 84 408 65 408 42 c 0
 408 19 433 0 450 0 c 0
EndSplineSet
EndChar

StartChar: e
Encoding: 101 101 69
Width: 600
Flags: HW
LayerCount: 2
Back
Fore
SplineSet
150 333 m 0
 167 333 192 352 192 375 c 0
 192 398 167 417 150 417 c 0
 133 417 108 398 108 375 c 0
 108 352 133 333 150 333 c 0
270 333 m 0
 287 333 312 352 312 375 c 0
 312 398 287 417 270 417 c 0
 253 417 228 398 228 375 c 0
 228 352 253 333 270 333 c 0
390 333 m 0
 407 333 432 352 432 375 c 0
 432 398 407 417 390 417 c 0
 373 417 348 398 348 375 c 0
 348 352 373 333 390 333 c 0
90 250 m 0
 107 250 132 269 132 292 c 0
 132 315 107 334 90 334 c 0
 73 334 48 315 48 292 c 0
 48 269 73 250 90 250 c 0
450 250 m 0
 467 250 492 269 492 292 c 0
 492 315 467 334 450 334 c 0
 433 334 408 315 408 292 c 0
 408 269 433 250 450 250 c 0
90 166 m 0
 107 166 132 185 132 208 c 0
 132 231 107 250 90 250 c 0
 73 250 48 231 48 208 c 0
 48 185 73 166 90 166 c 0
210 166 m 0
 227 166 252 185 252 208 c 0
 252 231 227 250 210 250 c 0
 193 250 168 231 168 208 c 0
 168 185 193 166 210 166 c 0
330 166 m 0
 347 166 372 185 372 208 c 0
 372 231 347 250 330 250 c 0
 313 250 288 231 288 208 c 0
 288 185 313 166 330 166 c 0
450 166 m 0
 467 166 492 185 492 208 c 0
 492 231 467 250 450 250 c 0
 433 250 408 231 408 208 c 0
 408 185 433 166 450 166 c 0
90 83 m 0
 107 83 132 102 132 125 c 0
 132 148 107 167 90 167 c 0
 73 167 48 148 48 125 c 0
 48 102 73 83 90 83 c 0
150 0 m 0
 167 0 192 19 192 42 c 0
 192 65 167 84 150 84 c 0
 133 84 108 65 108 42 c 0
 108 19 133 0 150 0 c 0
270 0 m 0
 287 0 312 19 312 42 c 0
 312 65 287 84 270 84 c 0
 253 84 228 65 228 42 c 0
 228 19 253 0 270 0 c 0
390 0 m 0
 407 0 432 19 432 42 c 0
 432 65 407 84 390 84 c 0
 373 84 348 65 348 42 c 0
 348 19 373 0 390 0 c 0
EndSplineSet
EndChar

StartChar: f
Encoding: 102 102 70
Width: 600
Flags: HW
LayerCount: 2
Back
Fore
SplineSet
270 500 m 0
 287 500 312 519 312 542 c 0
 312 565 287 584 270 584 c 0
 253 584 228 565 228 542 c 0
 228 519 253 500 270 500 c 0
390 500 m 0
 407 500 432 519 432 542 c 0
 432 565 407 584 390 584 c 0
 373 584 348 565 348 542 c 0
 348 519 373 500 390 500 c 0
210 416 m 0
 227 416 252 435 252 458 c 0
 252 481 227 500 210 500 c 0
 193 500 168 481 168 458 c 0
 168 435 193 416 210 416 c 0
450 416 m 0
 467 416 492 435 492 458 c 0
 492 481 467 500 450 500 c 0
 433 500 408 481 408 458 c 0
 408 435 433 416 450 416 c 0
90 333 m 0
 107 333 132 352 132 375 c 0
 132 398 107 417 90 417 c 0
 73 417 48 398 48 375 c 0
 48 352 73 333 90 333 c 0
210 333 m 0
 227 333 252 352 252 375 c 0
 252 398 227 417 210 417 c 0
 193 417 168 398 168 375 c 0
 168 352 193 333 210 333 c 0
330 333 m 0
 347 333 372 352 372 375 c 0
 372 398 347 417 330 417 c 0
 313 417 288 398 288 375 c 0
 288 352 313 333 330 333 c 0
210 250 m 0
 227 250 252 269 252 292 c 0
 252 315 227 334 210 334 c 0
 193 334 168 315 168 292 c 0
 168 269 193 250 210 250 c 0
210 166 m 0
 227 166 252 185 252 208 c 0
 252 231 227 250 210 250 c 0
 193 250 168 231 168 208 c 0
 168 185 193 166 210 166 c 0
210 83 m 0
 227 83 252 102 252 125 c 0
 252 148 227 167 210 167 c 0
 193 167 168 148 168 125 c 0
 168 102 193 83 210 83 c 0
210 0 m 0
 227 0 252 19 252 42 c 0
 252 65 227 84 210 84 c 0
 193 84 168 65 168 42 c 0
 168 19 193 0 210 0 c 0
EndSplineSet
EndChar

StartChar: g
Encoding: 103 103 71
Width: 600
Flags: HW
LayerCount: 2
Back
Fore
SplineSet
450 416 m 0
 467 416 492 435 492 458 c 0
 492 481 467 500 450 500 c 0
 433 500 408 481 408 458 c 0
 408 435 433 416 450 416 c 0
150 333 m 0
 167 333 192 352 192 375 c 0
 192 398 167 417 150 417 c 0
 133 417 108 398 108 375 c 0
 108 352 133 333 150 333 c 0
270 333 m 0
 287 333 312 352 312 375 c 0
 312 398 287 417 270 417 c 0
 253 417 228 398 228 375 c 0
 228 352 253 333 270 333 c 0
390 333 m 0
 407 333 432 352 432 375 c 0
 432 398 407 417 390 417 c 0
 373 417 348 398 348 375 c 0
 348 352 373 333 390 333 c 0
90 250 m 0
 107 250 132 269 132 292 c 0
 132 315 107 334 90 334 c 0
 73 334 48 315 48 292 c 0
 48 269 73 250 90 250 c 0
450 250 m 0
 467 250 492 269 492 292 c 0
 492 315 467 334 450 334 c 0
 433 334 408 315 408 292 c 0
 408 269 433 250 450 250 c 0
150 166 m 0
 167 166 192 185 192 208 c 0
 192 231 167 250 150 250 c 0
 133 250 108 231 108 208 c 0
 108 185 133 166 150 166 c 0
270 166 m 0
 287 166 312 185 312 208 c 0
 312 231 287 250 270 250 c 0
 253 250 228 231 228 208 c 0
 228 185 253 166 270 166 c 0
390 166 m 0
 407 166 432 185 432 208 c 0
 432 231 407 250 390 250 c 0
 373 250 348 231 348 208 c 0
 348 185 373 166 390 166 c 0
450 83 m 0
 467 83 492 102 492 125 c 0
 492 148 467 167 450 167 c 0
 433 167 408 148 408 125 c 0
 408 102 433 83 450 83 c 0
90 0 m 0
 107 0 132 19 132 42 c 0
 132 65 107 84 90 84 c 0
 73 84 48 65 48 42 c 0
 48 19 73 0 90 0 c 0
210 0 m 0
 227 0 252 19 252 42 c 0
 252 65 227 84 210 84 c 0
 193 84 168 65 168 42 c 0
 168 19 193 0 210 0 c 0
330 0 m 0
 347 0 372 19 372 42 c 0
 372 65 347 84 330 84 c 0
 313 84 288 65 288 42 c 0
 288 19 313 0 330 0 c 0
450 0 m 0
 467 0 492 19 492 42 c 0
 492 65 467 84 450 84 c 0
 433 84 408 65 408 42 c 0
 408 19 433 0 450 0 c 0
EndSplineSet
EndChar

StartChar: h
Encoding: 104 104 72
Width: 600
Flags: HW
LayerCount: 2
Back
Fore
SplineSet
90 500 m 0
 107 500 132 519 132 542 c 0
 132 565 107 584 90 584 c 0
 73 584 48 565 48 542 c 0
 48 519 73 500 90 500 c 0
90 416 m 0
 107 416 132 435 132 458 c 0
 132 481 107 500 90 500 c 0
 73 500 48 481 48 458 c 0
 48 435 73 416 90 416 c 0
150 333 m 0
 167 333 192 352 192 375 c 0
 192 398 167 417 150 417 c 0
 133 417 108 398 108 375 c 0
 108 352 133 333 150 333 c 0
270 333 m 0
 287 333 312 352 312 375 c 0
 312 398 287 417 270 417 c 0
 253 417 228 398 228 375 c 0
 228 352 253 333 270 333 c 0
390 333 m 0
 407 333 432 352 432 375 c 0
 432 398 407 417 390 417 c 0
 373 417 348 398 348 375 c 0
 348 352 373 333 390 333 c 0
90 250 m 0
 107 250 132 269 132 292 c 0
 132 315 107 334 90 334 c 0
 73 334 48 315 48 292 c 0
 48 269 73 250 90 250 c 0
450 250 m 0
 467 250 492 269 492 292 c 0
 492 315 467 334 450 334 c 0
 433 334 408 315 408 292 c 0
 408 269 433 250 450 250 c 0
90 166 m 0
 107 166 132 185 132 208 c 0
 132 231 107 250 90 250 c 0
 73 250 48 231 48 208 c 0
 48 185 73 166 90 166 c 0
450 166 m 0
 467 166 492 185 492 208 c 0
 492 231 467 250 450 250 c 0
 433 250 408 231 408 208 c 0
 408 185 433 166 450 166 c 0
90 83 m 0
 107 83 132 102 132 125 c 0
 132 148 107 167 90 167 c 0
 73 167 48 148 48 125 c 0
 48 102 73 83 90 83 c 0
450 83 m 0
 467 83 492 102 492 125 c 0
 492 148 467 167 450 167 c 0
 433 167 408 148 408 125 c 0
 408 102 433 83 450 83 c 0
90 0 m 0
 107 0 132 19 132 42 c 0
 132 65 107 84 90 84 c 0
 73 84 48 65 48 42 c 0
 48 19 73 0 90 0 c 0
450 0 m 0
 467 0 492 19 492 42 c 0
 492 65 467 84 450 84 c 0
 433 84 408 65 408 42 c 0
 408 19 433 0 450 0 c 0
EndSplineSet
EndChar

StartChar: i
Encoding: 105 105 73
Width: 600
Flags: HW
LayerCount: 2
Back
Fore
SplineSet
270 500 m 0
 287 500 312 519 312 542 c 0
 312 565 287 584 270 584 c 0
 253 584 228 565 228 542 c 0
 228 519 253 500 270 500 c 0
150 333 m 0
 167 333 192 352 192 375 c 0
 192 398 167 417 150 417 c 0
 133 417 108 398 108 375 c 0
 108 352 133 333 150 333 c 0
270 333 m 0
 287 333 312 352 312 375 c 0
 312 398 287 417 270 417 c 0
 253 417 228 398 228 375 c 0
 228 352 253 333 270 333 c 0
270 250 m 0
 287 250 312 269 312 292 c 0
 312 315 287 334 270 334 c 0
 253 334 228 315 228 292 c 0
 228 269 253 250 270 250 c 0
270 166 m 0
 287 166 312 185 312 208 c 0
 312 231 287 250 270 250 c 0
 253 250 228 231 228 208 c 0
 228 185 253 166 270 166 c 0
270 83 m 0
 287 83 312 102 312 125 c 0
 312 148 287 167 270 167 c 0
 253 167 228 148 228 125 c 0
 228 102 253 83 270 83 c 0
150 0 m 0
 167 0 192 19 192 42 c 0
 192 65 167 84 150 84 c 0
 133 84 108 65 108 42 c 0
 108 19 133 0 150 0 c 0
270 0 m 0
 287 0 312 19 312 42 c 0
 312 65 287 84 270 84 c 0
 253 84 228 65 228 42 c 0
 228 19 253 0 270 0 c 0
390 0 m 0
 407 0 432 19 432 42 c 0
 432 65 407 84 390 84 c 0
 373 84 348 65 348 42 c 0
 348 19 373 0 390 0 c 0
EndSplineSet
EndChar

StartChar: j
Encoding: 106 106 74
Width: 600
Flags: HW
LayerCount: 2
Back
Fore
SplineSet
450 500 m 0
 467 500 492 519 492 542 c 0
 492 565 467 584 450 584 c 0
 433 584 408 565 408 542 c 0
 408 519 433 500 450 500 c 0
450 333 m 0
 467 333 492 352 492 375 c 0
 492 398 467 417 450 417 c 0
 433 417 408 398 408 375 c 0
 408 352 433 333 450 333 c 0
450 250 m 0
 467 250 492 269 492 292 c 0
 492 315 467 334 450 334 c 0
 433 334 408 315 408 292 c 0
 408 269 433 250 450 250 c 0
450 166 m 0
 467 166 492 185 492 208 c 0
 492 231 467 250 450 250 c 0
 433 250 408 231 408 208 c 0
 408 185 433 166 450 166 c 0
90 83 m 0
 107 83 132 102 132 125 c 0
 132 148 107 167 90 167 c 0
 73 167 48 148 48 125 c 0
 48 102 73 83 90 83 c 0
450 83 m 0
 467 83 492 102 492 125 c 0
 492 148 467 167 450 167 c 0
 433 167 408 148 408 125 c 0
 408 102 433 83 450 83 c 0
150 0 m 0
 167 0 192 19 192 42 c 0
 192 65 167 84 150 84 c 0
 133 84 108 65 108 42 c 0
 108 19 133 0 150 0 c 0
270 0 m 0
 287 0 312 19 312 42 c 0
 312 65 287 84 270 84 c 0
 253 84 228 65 228 42 c 0
 228 19 253 0 270 0 c 0
390 0 m 0
 407 0 432 19 432 42 c 0
 432 65 407 84 390 84 c 0
 373 84 348 65 348 42 c 0
 348 19 373 0 390 0 c 0
EndSplineSet
EndChar

StartChar: k
Encoding: 107 107 75
Width: 600
Flags: HW
LayerCount: 2
Back
Fore
SplineSet
90 500 m 0
 107 500 132 519 132 542 c 0
 132 565 107 584 90 584 c 0
 73 584 48 565 48 542 c 0
 48 519 73 500 90 500 c 0
90 416 m 0
 107 416 132 435 132 458 c 0
 132 481 107 500 90 500 c 0
 73 500 48 481 48 458 c 0
 48 435 73 416 90 416 c 0
90 333 m 0
 107 333 132 352 132 375 c 0
 132 398 107 417 90 417 c 0
 73 417 48 398 48 375 c 0
 48 352 73 333 90 333 c 0
330 333 m 0
 347 333 372 352 372 375 c 0
 372 398 347 417 330 417 c 0
 313 417 288 398 288 375 c 0
 288 352 313 333 330 333 c 0
90 250 m 0
 107 250 132 269 132 292 c 0
 132 315 107 334 90 334 c 0
 73 334 48 315 48 292 c 0
 48 269 73 250 90 250 c 0
270 250 m 0
 287 250 312 269 312 292 c 0
 312 315 287 334 270 334 c 0
 253 334 228 315 228 292 c 0
 228 269 253 250 270 250 c 0
90 166 m 0
 107 166 132 185 132 208 c 0
 132 231 107 250 90 250 c 0
 73 250 48 231 48 208 c 0
 48 185 73 166 90 166 c 0
210 166 m 0
 227 166 252 185 252 208 c 0
 252 231 227 250 210 250 c 0
 193 250 168 231 168 208 c 0
 168 185 193 166 210 166 c 0
90 83 m 0
 107 83 132 102 132 125 c 0
 132 148 107 167 90 167 c 0
 73 167 48 148 48 125 c 0
 48 102 73 83 90 83 c 0
330 83 m 0
 347 83 372 102 372 125 c 0
 372 148 347 167 330 167 c 0
 313 167 288 148 288 125 c 0
 288 102 313 83 330 83 c 0
90 0 m 0
 107 0 132 19 132 42 c 0
 132 65 107 84 90 84 c 0
 73 84 48 65 48 42 c 0
 48 19 73 0 90 0 c 0
450 0 m 0
 467 0 492 19 492 42 c 0
 492 65 467 84 450 84 c 0
 433 84 408 65 408 42 c 0
 408 19 433 0 450 0 c 0
EndSplineSet
EndChar

StartChar: l
Encoding: 108 108 76
Width: 600
Flags: HW
LayerCount: 2
Back
Fore
SplineSet
150 500 m 0
 167 500 192 519 192 542 c 0
 192 565 167 584 150 584 c 0
 133 584 108 565 108 542 c 0
 108 519 133 500 150 500 c 0
270 500 m 0
 287 500 312 519 312 542 c 0
 312 565 287 584 270 584 c 0
 253 584 228 565 228 542 c 0
 228 519 253 500 270 500 c 0
270 416 m 0
 287 416 312 435 312 458 c 0
 312 481 287 500 270 500 c 0
 253 500 228 481 228 458 c 0
 228 435 253 416 270 416 c 0
270 333 m 0
 287 333 312 352 312 375 c 0
 312 398 287 417 270 417 c 0
 253 417 228 398 228 375 c 0
 228 352 253 333 270 333 c 0
270 250 m 0
 287 250 312 269 312 292 c 0
 312 315 287 334 270 334 c 0
 253 334 228 315 228 292 c 0
 228 269 253 250 270 250 c 0
270 166 m 0
 287 166 312 185 312 208 c 0
 312 231 287 250 270 250 c 0
 253 250 228 231 228 208 c 0
 228 185 253 166 270 166 c 0
270 83 m 0
 287 83 312 102 312 125 c 0
 312 148 287 167 270 167 c 0
 253 167 228 148 228 125 c 0
 228 102 253 83 270 83 c 0
150 0 m 0
 167 0 192 19 192 42 c 0
 192 65 167 84 150 84 c 0
 133 84 108 65 108 42 c 0
 108 19 133 0 150 0 c 0
270 0 m 0
 287 0 312 19 312 42 c 0
 312 65 287 84 270 84 c 0
 253 84 228 65 228 42 c 0
 228 19 253 0 270 0 c 0
390 0 m 0
 407 0 432 19 432 42 c 0
 432 65 407 84 390 84 c 0
 373 84 348 65 348 42 c 0
 348 19 373 0 390 0 c 0
EndSplineSet
EndChar

StartChar: m
Encoding: 109 109 77
Width: 600
Flags: HW
LayerCount: 2
Back
Fore
SplineSet
90 333 m 0
 107 333 132 352 132 375 c 0
 132 398 107 417 90 417 c 0
 73 417 48 398 48 375 c 0
 48 352 73 333 90 333 c 0
210 333 m 0
 227 333 252 352 252 375 c 0
 252 398 227 417 210 417 c 0
 193 417 168 398 168 375 c 0
 168 352 193 333 210 333 c 0
330 333 m 0
 347 333 372 352 372 375 c 0
 372 398 347 417 330 417 c 0
 313 417 288 398 288 375 c 0
 288 352 313 333 330 333 c 0
90 250 m 0
 107 250 132 269 132 292 c 0
 132 315 107 334 90 334 c 0
 73 334 48 315 48 292 c 0
 48 269 73 250 90 250 c 0
270 250 m 0
 287 250 312 269 312 292 c 0
 312 315 287 334 270 334 c 0
 253 334 228 315 228 292 c 0
 228 269 253 250 270 250 c 0
450 250 m 0
 467 250 492 269 492 292 c 0
 492 315 467 334 450 334 c 0
 433 334 408 315 408 292 c 0
 408 269 433 250 450 250 c 0
90 166 m 0
 107 166 132 185 132 208 c 0
 132 231 107 250 90 250 c 0
 73 250 48 231 48 208 c 0
 48 185 73 166 90 166 c 0
270 166 m 0
 287 166 312 185 312 208 c 0
 312 231 287 250 270 250 c 0
 253 250 228 231 228 208 c 0
 228 185 253 166 270 166 c 0
450 166 m 0
 467 166 492 185 492 208 c 0
 492 231 467 250 450 250 c 0
 433 250 408 231 408 208 c 0
 408 185 433 166 450 166 c 0
90 83 m 0
 107 83 132 102 132 125 c 0
 132 148 107 167 90 167 c 0
 73 167 48 148 48 125 c 0
 48 102 73 83 90 83 c 0
270 83 m 0
 287 83 312 102 312 125 c 0
 312 148 287 167 270 167 c 0
 253 167 228 148 228 125 c 0
 228 102 253 83 270 83 c 0
450 83 m 0
 467 83 492 102 492 125 c 0
 492 148 467 167 450 167 c 0
 433 167 408 148 408 125 c 0
 408 102 433 83 450 83 c 0
90 0 m 0
 107 0 132 19 132 42 c 0
 132 65 107 84 90 84 c 0
 73 84 48 65 48 42 c 0
 48 19 73 0 90 0 c 0
270 0 m 0
 287 0 312 19 312 42 c 0
 312 65 287 84 270 84 c 0
 253 84 228 65 228 42 c 0
 228 19 253 0 270 0 c 0
450 0 m 0
 467 0 492 19 492 42 c 0
 492 65 467 84 450 84 c 0
 433 84 408 65 408 42 c 0
 408 19 433 0 450 0 c 0
EndSplineSet
EndChar

StartChar: n
Encoding: 110 110 78
Width: 600
Flags: HW
LayerCount: 2
Back
Fore
SplineSet
90 333 m 0
 107 333 132 352 132 375 c 0
 132 398 107 417 90 417 c 0
 73 417 48 398 48 375 c 0
 48 352 73 333 90 333 c 0
210 333 m 0
 227 333 252 352 252 375 c 0
 252 398 227 417 210 417 c 0
 193 417 168 398 168 375 c 0
 168 352 193 333 210 333 c 0
330 333 m 0
 347 333 372 352 372 375 c 0
 372 398 347 417 330 417 c 0
 313 417 288 398 288 375 c 0
 288 352 313 333 330 333 c 0
90 250 m 0
 107 250 132 269 132 292 c 0
 132 315 107 334 90 334 c 0
 73 334 48 315 48 292 c 0
 48 269 73 250 90 250 c 0
450 250 m 0
 467 250 492 269 492 292 c 0
 492 315 467 334 450 334 c 0
 433 334 408 315 408 292 c 0
 408 269 433 250 450 250 c 0
90 166 m 0
 107 166 132 185 132 208 c 0
 132 231 107 250 90 250 c 0
 73 250 48 231 48 208 c 0
 48 185 73 166 90 166 c 0
450 166 m 0
 467 166 492 185 492 208 c 0
 492 231 467 250 450 250 c 0
 433 250 408 231 408 208 c 0
 408 185 433 166 450 166 c 0
90 83 m 0
 107 83 132 102 132 125 c 0
 132 148 107 167 90 167 c 0
 73 167 48 148 48 125 c 0
 48 102 73 83 90 83 c 0
450 83 m 0
 467 83 492 102 492 125 c 0
 492 148 467 167 450 167 c 0
 433 167 408 148 408 125 c 0
 408 102 433 83 450 83 c 0
90 0 m 0
 107 0 132 19 132 42 c 0
 132 65 107 84 90 84 c 0
 73 84 48 65 48 42 c 0
 48 19 73 0 90 0 c 0
450 0 m 0
 467 0 492 19 492 42 c 0
 492 65 467 84 450 84 c 0
 433 84 408 65 408 42 c 0
 408 19 433 0 450 0 c 0
EndSplineSet
EndChar

StartChar: o
Encoding: 111 111 79
Width: 600
Flags: HW
LayerCount: 2
Back
Fore
SplineSet
150 333 m 0
 167 333 192 352 192 375 c 0
 192 398 167 417 150 417 c 0
 133 417 108 398 108 375 c 0
 108 352 133 333 150 333 c 0
270 333 m 0
 287 333 312 352 312 375 c 0
 312 398 287 417 270 417 c 0
 253 417 228 398 228 375 c 0
 228 352 253 333 270 333 c 0
390 333 m 0
 407 333 432 352 432 375 c 0
 432 398 407 417 390 417 c 0
 373 417 348 398 348 375 c 0
 348 352 373 333 390 333 c 0
90 250 m 0
 107 250 132 269 132 292 c 0
 132 315 107 334 90 334 c 0
 73 334 48 315 48 292 c 0
 48 269 73 250 90 250 c 0
450 250 m 0
 467 250 492 269 492 292 c 0
 492 315 467 334 450 334 c 0
 433 334 408 315 408 292 c 0
 408 269 433 250 450 250 c 0
90 166 m 0
 107 166 132 185 132 208 c 0
 132 231 107 250 90 250 c 0
 73 250 48 231 48 208 c 0
 48 185 73 166 90 166 c 0
450 166 m 0
 467 166 492 185 492 208 c 0
 492 231 467 250 450 250 c 0
 433 250 408 231 408 208 c 0
 408 185 433 166 450 166 c 0
90 83 m 0
 107 83 132 102 132 125 c 0
 132 148 107 167 90 167 c 0
 73 167 48 148 48 125 c 0
 48 102 73 83 90 83 c 0
450 83 m 0
 467 83 492 102 492 125 c 0
 492 148 467 167 450 167 c 0
 433 167 408 148 408 125 c 0
 408 102 433 83 450 83 c 0
150 0 m 0
 167 0 192 19 192 42 c 0
 192 65 167 84 150 84 c 0
 133 84 108 65 108 42 c 0
 108 19 133 0 150 0 c 0
270 0 m 0
 287 0 312 19 312 42 c 0
 312 65 287 84 270 84 c 0
 253 84 228 65 228 42 c 0
 228 19 253 0 270 0 c 0
390 0 m 0
 407 0 432 19 432 42 c 0
 432 65 407 84 390 84 c 0
 373 84 348 65 348 42 c 0
 348 19 373 0 390 0 c 0
EndSplineSet
EndChar

StartChar: p
Encoding: 112 112 80
Width: 600
Flags: HW
LayerCount: 2
Back
Fore
SplineSet
90 333 m 0
 107 333 132 352 132 375 c 0
 132 398 107 417 90 417 c 0
 73 417 48 398 48 375 c 0
 48 352 73 333 90 333 c 0
210 333 m 0
 227 333 252 352 252 375 c 0
 252 398 227 417 210 417 c 0
 193 417 168 398 168 375 c 0
 168 352 193 333 210 333 c 0
330 333 m 0
 347 333 372 352 372 375 c 0
 372 398 347 417 330 417 c 0
 313 417 288 398 288 375 c 0
 288 352 313 333 330 333 c 0
90 250 m 0
 107 250 132 269 132 292 c 0
 132 315 107 334 90 334 c 0
 73 334 48 315 48 292 c 0
 48 269 73 250 90 250 c 0
450 250 m 0
 467 250 492 269 492 292 c 0
 492 315 467 334 450 334 c 0
 433 334 408 315 408 292 c 0
 408 269 433 250 450 250 c 0
90 166 m 0
 107 166 132 185 132 208 c 0
 132 231 107 250 90 250 c 0
 73 250 48 231 48 208 c 0
 48 185 73 166 90 166 c 0
210 166 m 0
 227 166 252 185 252 208 c 0
 252 231 227 250 210 250 c 0
 193 250 168 231 168 208 c 0
 168 185 193 166 210 166 c 0
330 166 m 0
 347 166 372 185 372 208 c 0
 372 231 347 250 330 250 c 0
 313 250 288 231 288 208 c 0
 288 185 313 166 330 166 c 0
90 83 m 0
 107 83 132 102 132 125 c 0
 132 148 107 167 90 167 c 0
 73 167 48 148 48 125 c 0
 48 102 73 83 90 83 c 0
90 0 m 0
 107 0 132 19 132 42 c 0
 132 65 107 84 90 84 c 0
 73 84 48 65 48 42 c 0
 48 19 73 0 90 0 c 0
EndSplineSet
EndChar

StartChar: q
Encoding: 113 113 81
Width: 600
Flags: HW
LayerCount: 2
Back
Fore
SplineSet
150 333 m 0
 167 333 192 352 192 375 c 0
 192 398 167 417 150 417 c 0
 133 417 108 398 108 375 c 0
 108 352 133 333 150 333 c 0
270 333 m 0
 287 333 312 352 312 375 c 0
 312 398 287 417 270 417 c 0
 253 417 228 398 228 375 c 0
 228 352 253 333 270 333 c 0
390 333 m 0
 407 333 432 352 432 375 c 0
 432 398 407 417 390 417 c 0
 373 417 348 398 348 375 c 0
 348 352 373 333 390 333 c 0
90 250 m 0
 107 250 132 269 132 292 c 0
 132 315 107 334 90 334 c 0
 73 334 48 315 48 292 c 0
 48 269 73 250 90 250 c 0
450 250 m 0
 467 250 492 269 492 292 c 0
 492 315 467 334 450 334 c 0
 433 334 408 315 408 292 c 0
 408 269 433 250 450 250 c 0
90 166 m 0
 107 166 132 185 132 208 c 0
 132 231 107 250 90 250 c 0
 73 250 48 231 48 208 c 0
 48 185 73 166 90 166 c 0
330 166 m 0
 347 166 372 185 372 208 c 0
 372 231 347 250 330 250 c 0
 313 250 288 231 288 208 c 0
 288 185 313 166 330 166 c 0
450 166 m 0
 467 166 492 185 492 208 c 0
 492 231 467 250 450 250 c 0
 433 250 408 231 408 208 c 0
 408 185 433 166 450 166 c 0
90 83 m 0
 107 83 132 102 132 125 c 0
 132 148 107 167 90 167 c 0
 73 167 48 148 48 125 c 0
 48 102 73 83 90 83 c 0
390 83 m 0
 407 83 432 102 432 125 c 0
 432 148 407 167 390 167 c 0
 373 167 348 148 348 125 c 0
 348 102 373 83 390 83 c 0
150 0 m 0
 167 0 192 19 192 42 c 0
 192 65 167 84 150 84 c 0
 133 84 108 65 108 42 c 0
 108 19 133 0 150 0 c 0
270 0 m 0
 287 0 312 19 312 42 c 0
 312 65 287 84 270 84 c 0
 253 84 228 65 228 42 c 0
 228 19 253 0 270 0 c 0
450 0 m 0
 467 0 492 19 492 42 c 0
 492 65 467 84 450 84 c 0
 433 84 408 65 408 42 c 0
 408 19 433 0 450 0 c 0
EndSplineSet
EndChar

StartChar: r
Encoding: 114 114 82
Width: 600
Flags: HW
LayerCount: 2
Back
Fore
SplineSet
150 333 m 0
 167 333 192 352 192 375 c 0
 192 398 167 417 150 417 c 0
 133 417 108 398 108 375 c 0
 108 352 133 333 150 333 c 0
270 333 m 0
 287 333 312 352 312 375 c 0
 312 398 287 417 270 417 c 0
 253 417 228 398 228 375 c 0
 228 352 253 333 270 333 c 0
390 333 m 0
 407 333 432 352 432 375 c 0
 432 398 407 417 390 417 c 0
 373 417 348 398 348 375 c 0
 348 352 373 333 390 333 c 0
210 250 m 0
 227 250 252 269 252 292 c 0
 252 315 227 334 210 334 c 0
 193 334 168 315 168 292 c 0
 168 269 193 250 210 250 c 0
450 250 m 0
 467 250 492 269 492 292 c 0
 492 315 467 334 450 334 c 0
 433 334 408 315 408 292 c 0
 408 269 433 250 450 250 c 0
210 166 m 0
 227 166 252 185 252 208 c 0
 252 231 227 250 210 250 c 0
 193 250 168 231 168 208 c 0
 168 185 193 166 210 166 c 0
210 83 m 0
 227 83 252 102 252 125 c 0
 252 148 227 167 210 167 c 0
 193 167 168 148 168 125 c 0
 168 102 193 83 210 83 c 0
210 0 m 0
 227 0 252 19 252 42 c 0
 252 65 227 84 210 84 c 0
 193 84 168 65 168 42 c 0
 168 19 193 0 210 0 c 0
EndSplineSet
EndChar

StartChar: s
Encoding: 115 115 83
Width: 600
Flags: HW
LayerCount: 2
Back
Fore
SplineSet
150 333 m 0
 167 333 192 352 192 375 c 0
 192 398 167 417 150 417 c 0
 133 417 108 398 108 375 c 0
 108 352 133 333 150 333 c 0
270 333 m 0
 287 333 312 352 312 375 c 0
 312 398 287 417 270 417 c 0
 253 417 228 398 228 375 c 0
 228 352 253 333 270 333 c 0
390 333 m 0
 407 333 432 352 432 375 c 0
 432 398 407 417 390 417 c 0
 373 417 348 398 348 375 c 0
 348 352 373 333 390 333 c 0
90 250 m 0
 107 250 132 269 132 292 c 0
 132 315 107 334 90 334 c 0
 73 334 48 315 48 292 c 0
 48 269 73 250 90 250 c 0
150 166 m 0
 167 166 192 185 192 208 c 0
 192 231 167 250 150 250 c 0
 133 250 108 231 108 208 c 0
 108 185 133 166 150 166 c 0
270 166 m 0
 287 166 312 185 312 208 c 0
 312 231 287 250 270 250 c 0
 253 250 228 231 228 208 c 0
 228 185 253 166 270 166 c 0
390 166 m 0
 407 166 432 185 432 208 c 0
 432 231 407 250 390 250 c 0
 373 250 348 231 348 208 c 0
 348 185 373 166 390 166 c 0
450 83 m 0
 467 83 492 102 492 125 c 0
 492 148 467 167 450 167 c 0
 433 167 408 148 408 125 c 0
 408 102 433 83 450 83 c 0
150 0 m 0
 167 0 192 19 192 42 c 0
 192 65 167 84 150 84 c 0
 133 84 108 65 108 42 c 0
 108 19 133 0 150 0 c 0
270 0 m 0
 287 0 312 19 312 42 c 0
 312 65 287 84 270 84 c 0
 253 84 228 65 228 42 c 0
 228 19 253 0 270 0 c 0
390 0 m 0
 407 0 432 19 432 42 c 0
 432 65 407 84 390 84 c 0
 373 84 348 65 348 42 c 0
 348 19 373 0 390 0 c 0
EndSplineSet
EndChar

StartChar: t
Encoding: 116 116 84
Width: 600
Flags: HW
LayerCount: 2
Back
Fore
SplineSet
210 500 m 0
 227 500 252 519 252 542 c 0
 252 565 227 584 210 584 c 0
 193 584 168 565 168 542 c 0
 168 519 193 500 210 500 c 0
210 416 m 0
 227 416 252 435 252 458 c 0
 252 481 227 500 210 500 c 0
 193 500 168 481 168 458 c 0
 168 435 193 416 210 416 c 0
90 333 m 0
 107 333 132 352 132 375 c 0
 132 398 107 417 90 417 c 0
 73 417 48 398 48 375 c 0
 48 352 73 333 90 333 c 0
210 333 m 0
 227 333 252 352 252 375 c 0
 252 398 227 417 210 417 c 0
 193 417 168 398 168 375 c 0
 168 352 193 333 210 333 c 0
330 333 m 0
 347 333 372 352 372 375 c 0
 372 398 347 417 330 417 c 0
 313 417 288 398 288 375 c 0
 288 352 313 333 330 333 c 0
210 250 m 0
 227 250 252 269 252 292 c 0
 252 315 227 334 210 334 c 0
 193 334 168 315 168 292 c 0
 168 269 193 250 210 250 c 0
210 166 m 0
 227 166 252 185 252 208 c 0
 252 231 227 250 210 250 c 0
 193 250 168 231 168 208 c 0
 168 185 193 166 210 166 c 0
210 83 m 0
 227 83 252 102 252 125 c 0
 252 148 227 167 210 167 c 0
 193 167 168 148 168 125 c 0
 168 102 193 83 210 83 c 0
450 83 m 0
 467 83 492 102 492 125 c 0
 492 148 467 167 450 167 c 0
 433 167 408 148 408 125 c 0
 408 102 433 83 450 83 c 0
270 0 m 0
 287 0 312 19 312 42 c 0
 312 65 287 84 270 84 c 0
 253 84 228 65 228 42 c 0
 228 19 253 0 270 0 c 0
390 0 m 0
 407 0 432 19 432 42 c 0
 432 65 407 84 390 84 c 0
 373 84 348 65 348 42 c 0
 348 19 373 0 390 0 c 0
EndSplineSet
EndChar

StartChar: u
Encoding: 117 117 85
Width: 600
Flags: HW
LayerCount: 2
Back
Fore
SplineSet
90 333 m 0
 107 333 132 352 132 375 c 0
 132 398 107 417 90 417 c 0
 73 417 48 398 48 375 c 0
 48 352 73 333 90 333 c 0
450 333 m 0
 467 333 492 352 492 375 c 0
 492 398 467 417 450 417 c 0
 433 417 408 398 408 375 c 0
 408 352 433 333 450 333 c 0
90 250 m 0
 107 250 132 269 132 292 c 0
 132 315 107 334 90 334 c 0
 73 334 48 315 48 292 c 0
 48 269 73 250 90 250 c 0
450 250 m 0
 467 250 492 269 492 292 c 0
 492 315 467 334 450 334 c 0
 433 334 408 315 408 292 c 0
 408 269 433 250 450 250 c 0
90 166 m 0
 107 166 132 185 132 208 c 0
 132 231 107 250 90 250 c 0
 73 250 48 231 48 208 c 0
 48 185 73 166 90 166 c 0
450 166 m 0
 467 166 492 185 492 208 c 0
 492 231 467 250 450 250 c 0
 433 250 408 231 408 208 c 0
 408 185 433 166 450 166 c 0
90 83 m 0
 107 83 132 102 132 125 c 0
 132 148 107 167 90 167 c 0
 73 167 48 148 48 125 c 0
 48 102 73 83 90 83 c 0
450 83 m 0
 467 83 492 102 492 125 c 0
 492 148 467 167 450 167 c 0
 433 167 408 148 408 125 c 0
 408 102 433 83 450 83 c 0
210 0 m 0
 227 0 252 19 252 42 c 0
 252 65 227 84 210 84 c 0
 193 84 168 65 168 42 c 0
 168 19 193 0 210 0 c 0
330 0 m 0
 347 0 372 19 372 42 c 0
 372 65 347 84 330 84 c 0
 313 84 288 65 288 42 c 0
 288 19 313 0 330 0 c 0
450 0 m 0
 467 0 492 19 492 42 c 0
 492 65 467 84 450 84 c 0
 433 84 408 65 408 42 c 0
 408 19 433 0 450 0 c 0
EndSplineSet
EndChar

StartChar: v
Encoding: 118 118 86
Width: 600
Flags: HW
LayerCount: 2
Back
Fore
SplineSet
90 333 m 0
 107 333 132 352 132 375 c 0
 132 398 107 417 90 417 c 0
 73 417 48 398 48 375 c 0
 48 352 73 333 90 333 c 0
450 333 m 0
 467 333 492 352 492 375 c 0
 492 398 467 417 450 417 c 0
 433 417 408 398 408 375 c 0
 408 352 433 333 450 333 c 0
90 250 m 0
 107 250 132 269 132 292 c 0
 132 315 107 334 90 334 c 0
 73 334 48 315 48 292 c 0
 48 269 73 250 90 250 c 0
450 250 m 0
 467 250 492 269 492 292 c 0
 492 315 467 334 450 334 c 0
 433 334 408 315 408 292 c 0
 408 269 433 250 450 250 c 0
150 166 m 0
 167 166 192 185 192 208 c 0
 192 231 167 250 150 250 c 0
 133 250 108 231 108 208 c 0
 108 185 133 166 150 166 c 0
390 166 m 0
 407 166 432 185 432 208 c 0
 432 231 407 250 390 250 c 0
 373 250 348 231 348 208 c 0
 348 185 373 166 390 166 c 0
210 83 m 0
 227 83 252 102 252 125 c 0
 252 148 227 167 210 167 c 0
 193 167 168 148 168 125 c 0
 168 102 193 83 210 83 c 0
330 83 m 0
 347 83 372 102 372 125 c 0
 372 148 347 167 330 167 c 0
 313 167 288 148 288 125 c 0
 288 102 313 83 330 83 c 0
270 0 m 0
 287 0 312 19 312 42 c 0
 312 65 287 84 270 84 c 0
 253 84 228 65 228 42 c 0
 228 19 253 0 270 0 c 0
EndSplineSet
EndChar

StartChar: w
Encoding: 119 119 87
Width: 600
Flags: HW
LayerCount: 2
Back
Fore
SplineSet
90 333 m 0
 107 333 132 352 132 375 c 0
 132 398 107 417 90 417 c 0
 73 417 48 398 48 375 c 0
 48 352 73 333 90 333 c 0
450 333 m 0
 467 333 492 352 492 375 c 0
 492 398 467 417 450 417 c 0
 433 417 408 398 408 375 c 0
 408 352 433 333 450 333 c 0
90 250 m 0
 107 250 132 269 132 292 c 0
 132 315 107 334 90 334 c 0
 73 334 48 315 48 292 c 0
 48 269 73 250 90 250 c 0
450 250 m 0
 467 250 492 269 492 292 c 0
 492 315 467 334 450 334 c 0
 433 334 408 315 408 292 c 0
 408 269 433 250 450 250 c 0
90 166 m 0
 107 166 132 185 132 208 c 0
 132 231 107 250 90 250 c 0
 73 250 48 231 48 208 c 0
 48 185 73 166 90 166 c 0
270 166 m 0
 287 166 312 185 312 208 c 0
 312 231 287 250 270 250 c 0
 253 250 228 231 228 208 c 0
 228 185 253 166 270 166 c 0
450 166 m 0
 467 166 492 185 492 208 c 0
 492 231 467 250 450 250 c 0
 433 250 408 231 408 208 c 0
 408 185 433 166 450 166 c 0
90 83 m 0
 107 83 132 102 132 125 c 0
 132 148 107 167 90 167 c 0
 73 167 48 148 48 125 c 0
 48 102 73 83 90 83 c 0
210 83 m 0
 227 83 252 102 252 125 c 0
 252 148 227 167 210 167 c 0
 193 167 168 148 168 125 c 0
 168 102 193 83 210 83 c 0
330 83 m 0
 347 83 372 102 372 125 c 0
 372 148 347 167 330 167 c 0
 313 167 288 148 288 125 c 0
 288 102 313 83 330 83 c 0
450 83 m 0
 467 83 492 102 492 125 c 0
 492 148 467 167 450 167 c 0
 433 167 408 148 408 125 c 0
 408 102 433 83 450 83 c 0
150 0 m 0
 167 0 192 19 192 42 c 0
 192 65 167 84 150 84 c 0
 133 84 108 65 108 42 c 0
 108 19 133 0 150 0 c 0
390 0 m 0
 407 0 432 19 432 42 c 0
 432 65 407 84 390 84 c 0
 373 84 348 65 348 42 c 0
 348 19 373 0 390 0 c 0
EndSplineSet
EndChar

StartChar: x
Encoding: 120 120 88
Width: 600
Flags: HW
LayerCount: 2
Back
Fore
SplineSet
90 333 m 0
 107 333 132 352 132 375 c 0
 132 398 107 417 90 417 c 0
 73 417 48 398 48 375 c 0
 48 352 73 333 90 333 c 0
450 333 m 0
 467 333 492 352 492 375 c 0
 492 398 467 417 450 417 c 0
 433 417 408 398 408 375 c 0
 408 352 433 333 450 333 c 0
150 250 m 0
 167 250 192 269 192 292 c 0
 192 315 167 334 150 334 c 0
 133 334 108 315 108 292 c 0
 108 269 133 250 150 250 c 0
390 250 m 0
 407 250 432 269 432 292 c 0
 432 315 407 334 390 334 c 0
 373 334 348 315 348 292 c 0
 348 269 373 250 390 250 c 0
270 166 m 0
 287 166 312 185 312 208 c 0
 312 231 287 250 270 250 c 0
 253 250 228 231 228 208 c 0
 228 185 253 166 270 166 c 0
150 83 m 0
 167 83 192 102 192 125 c 0
 192 148 167 167 150 167 c 0
 133 167 108 148 108 125 c 0
 108 102 133 83 150 83 c 0
390 83 m 0
 407 83 432 102 432 125 c 0
 432 148 407 167 390 167 c 0
 373 167 348 148 348 125 c 0
 348 102 373 83 390 83 c 0
90 0 m 0
 107 0 132 19 132 42 c 0
 132 65 107 84 90 84 c 0
 73 84 48 65 48 42 c 0
 48 19 73 0 90 0 c 0
450 0 m 0
 467 0 492 19 492 42 c 0
 492 65 467 84 450 84 c 0
 433 84 408 65 408 42 c 0
 408 19 433 0 450 0 c 0
EndSplineSet
EndChar

StartChar: y
Encoding: 121 121 89
Width: 600
Flags: HW
LayerCount: 2
Back
Fore
SplineSet
90 333 m 0
 107 333 132 352 132 375 c 0
 132 398 107 417 90 417 c 0
 73 417 48 398 48 375 c 0
 48 352 73 333 90 333 c 0
450 333 m 0
 467 333 492 352 492 375 c 0
 492 398 467 417 450 417 c 0
 433 417 408 398 408 375 c 0
 408 352 433 333 450 333 c 0
90 250 m 0
 107 250 132 269 132 292 c 0
 132 315 107 334 90 334 c 0
 73 334 48 315 48 292 c 0
 48 269 73 250 90 250 c 0
450 250 m 0
 467 250 492 269 492 292 c 0
 492 315 467 334 450 334 c 0
 433 334 408 315 408 292 c 0
 408 269 433 250 450 250 c 0
150 166 m 0
 167 166 192 185 192 208 c 0
 192 231 167 250 150 250 c 0
 133 250 108 231 108 208 c 0
 108 185 133 166 150 166 c 0
270 166 m 0
 287 166 312 185 312 208 c 0
 312 231 287 250 270 250 c 0
 253 250 228 231 228 208 c 0
 228 185 253 166 270 166 c 0
390 166 m 0
 407 166 432 185 432 208 c 0
 432 231 407 250 390 250 c 0
 373 250 348 231 348 208 c 0
 348 185 373 166 390 166 c 0
450 83 m 0
 467 83 492 102 492 125 c 0
 492 148 467 167 450 167 c 0
 433 167 408 148 408 125 c 0
 408 102 433 83 450 83 c 0
150 0 m 0
 167 0 192 19 192 42 c 0
 192 65 167 84 150 84 c 0
 133 84 108 65 108 42 c 0
 108 19 133 0 150 0 c 0
270 0 m 0
 287 0 312 19 312 42 c 0
 312 65 287 84 270 84 c 0
 253 84 228 65 228 42 c 0
 228 19 253 0 270 0 c 0
390 0 m 0
 407 0 432 19 432 42 c 0
 432 65 407 84 390 84 c 0
 373 84 348 65 348 42 c 0
 348 19 373 0 390 0 c 0
EndSplineSet
EndChar

StartChar: z
Encoding: 122 122 90
Width: 600
Flags: HW
LayerCount: 2
Back
Fore
SplineSet
90 333 m 0
 107 333 132 352 132 375 c 0
 132 398 107 417 90 417 c 0
 73 417 48 398 48 375 c 0
 48 352 73 333 90 333 c 0
210 333 m 0
 227 333 252 352 252 375 c 0
 252 398 227 417 210 417 c 0
 193 417 168 398 168 375 c 0
 168 352 193 333 210 333 c 0
330 333 m 0
 347 333 372 352 372 375 c 0
 372 398 347 417 330 417 c 0
 313 417 288 398 288 375 c 0
 288 352 313 333 330 333 c 0
450 333 m 0
 467 333 492 352 492 375 c 0
 492 398 467 417 450 417 c 0
 433 417 408 398 408 375 c 0
 408 352 433 333 450 333 c 0
390 250 m 0
 407 250 432 269 432 292 c 0
 432 315 407 334 390 334 c 0
 373 334 348 315 348 292 c 0
 348 269 373 250 390 250 c 0
270 166 m 0
 287 166 312 185 312 208 c 0
 312 231 287 250 270 250 c 0
 253 250 228 231 228 208 c 0
 228 185 253 166 270 166 c 0
150 83 m 0
 167 83 192 102 192 125 c 0
 192 148 167 167 150 167 c 0
 133 167 108 148 108 125 c 0
 108 102 133 83 150 83 c 0
90 0 m 0
 107 0 132 19 132 42 c 0
 132 65 107 84 90 84 c 0
 73 84 48 65 48 42 c 0
 48 19 73 0 90 0 c 0
210 0 m 0
 227 0 252 19 252 42 c 0
 252 65 227 84 210 84 c 0
 193 84 168 65 168 42 c 0
 168 19 193 0 210 0 c 0
330 0 m 0
 347 0 372 19 372 42 c 0
 372 65 347 84 330 84 c 0
 313 84 288 65 288 42 c 0
 288 19 313 0 330 0 c 0
450 0 m 0
 467 0 492 19 492 42 c 0
 492 65 467 84 450 84 c 0
 433 84 408 65 408 42 c 0
 408 19 433 0 450 0 c 0
EndSplineSet
EndChar

StartChar: braceleft
Encoding: 123 123 91
Width: 600
Flags: HW
LayerCount: 2
Back
Fore
SplineSet
330 500 m 0
 347 500 372 519 372 542 c 0
 372 565 347 584 330 584 c 0
 313 584 288 565 288 542 c 0
 288 519 313 500 330 500 c 0
450 500 m 0
 467 500 492 519 492 542 c 0
 492 565 467 584 450 584 c 0
 433 584 408 565 408 542 c 0
 408 519 433 500 450 500 c 0
270 416 m 0
 287 416 312 435 312 458 c 0
 312 481 287 500 270 500 c 0
 253 500 228 481 228 458 c 0
 228 435 253 416 270 416 c 0
270 333 m 0
 287 333 312 352 312 375 c 0
 312 398 287 417 270 417 c 0
 253 417 228 398 228 375 c 0
 228 352 253 333 270 333 c 0
90 250 m 0
 107 250 132 269 132 292 c 0
 132 315 107 334 90 334 c 0
 73 334 48 315 48 292 c 0
 48 269 73 250 90 250 c 0
210 250 m 0
 227 250 252 269 252 292 c 0
 252 315 227 334 210 334 c 0
 193 334 168 315 168 292 c 0
 168 269 193 250 210 250 c 0
270 166 m 0
 287 166 312 185 312 208 c 0
 312 231 287 250 270 250 c 0
 253 250 228 231 228 208 c 0
 228 185 253 166 270 166 c 0
270 83 m 0
 287 83 312 102 312 125 c 0
 312 148 287 167 270 167 c 0
 253 167 228 148 228 125 c 0
 228 102 253 83 270 83 c 0
330 0 m 0
 347 0 372 19 372 42 c 0
 372 65 347 84 330 84 c 0
 313 84 288 65 288 42 c 0
 288 19 313 0 330 0 c 0
450 0 m 0
 467 0 492 19 492 42 c 0
 492 65 467 84 450 84 c 0
 433 84 408 65 408 42 c 0
 408 19 433 0 450 0 c 0
EndSplineSet
EndChar

StartChar: bar
Encoding: 124 124 92
Width: 600
Flags: HW
LayerCount: 2
Back
Fore
SplineSet
270 500 m 0
 287 500 312 519 312 542 c 0
 312 565 287 584 270 584 c 0
 253 584 228 565 228 542 c 0
 228 519 253 500 270 500 c 0
270 416 m 0
 287 416 312 435 312 458 c 0
 312 481 287 500 270 500 c 0
 253 500 228 481 228 458 c 0
 228 435 253 416 270 416 c 0
270 333 m 0
 287 333 312 352 312 375 c 0
 312 398 287 417 270 417 c 0
 253 417 228 398 228 375 c 0
 228 352 253 333 270 333 c 0
270 250 m 0
 287 250 312 269 312 292 c 0
 312 315 287 334 270 334 c 0
 253 334 228 315 228 292 c 0
 228 269 253 250 270 250 c 0
270 166 m 0
 287 166 312 185 312 208 c 0
 312 231 287 250 270 250 c 0
 253 250 228 231 228 208 c 0
 228 185 253 166 270 166 c 0
270 83 m 0
 287 83 312 102 312 125 c 0
 312 148 287 167 270 167 c 0
 253 167 228 148 228 125 c 0
 228 102 253 83 270 83 c 0
270 0 m 0
 287 0 312 19 312 42 c 0
 312 65 287 84 270 84 c 0
 253 84 228 65 228 42 c 0
 228 19 253 0 270 0 c 0
EndSplineSet
EndChar

StartChar: braceright
Encoding: 125 125 93
Width: 600
Flags: HW
LayerCount: 2
Back
Fore
SplineSet
90 500 m 0
 107 500 132 519 132 542 c 0
 132 565 107 584 90 584 c 0
 73 584 48 565 48 542 c 0
 48 519 73 500 90 500 c 0
210 500 m 0
 227 500 252 519 252 542 c 0
 252 565 227 584 210 584 c 0
 193 584 168 565 168 542 c 0
 168 519 193 500 210 500 c 0
270 416 m 0
 287 416 312 435 312 458 c 0
 312 481 287 500 270 500 c 0
 253 500 228 481 228 458 c 0
 228 435 253 416 270 416 c 0
270 333 m 0
 287 333 312 352 312 375 c 0
 312 398 287 417 270 417 c 0
 253 417 228 398 228 375 c 0
 228 352 253 333 270 333 c 0
330 250 m 0
 347 250 372 269 372 292 c 0
 372 315 347 334 330 334 c 0
 313 334 288 315 288 292 c 0
 288 269 313 250 330 250 c 0
450 250 m 0
 467 250 492 269 492 292 c 0
 492 315 467 334 450 334 c 0
 433 334 408 315 408 292 c 0
 408 269 433 250 450 250 c 0
270 166 m 0
 287 166 312 185 312 208 c 0
 312 231 287 250 270 250 c 0
 253 250 228 231 228 208 c 0
 228 185 253 166 270 166 c 0
270 83 m 0
 287 83 312 102 312 125 c 0
 312 148 287 167 270 167 c 0
 253 167 228 148 228 125 c 0
 228 102 253 83 270 83 c 0
90 0 m 0
 107 0 132 19 132 42 c 0
 132 65 107 84 90 84 c 0
 73 84 48 65 48 42 c 0
 48 19 73 0 90 0 c 0
210 0 m 0
 227 0 252 19 252 42 c 0
 252 65 227 84 210 84 c 0
 193 84 168 65 168 42 c 0
 168 19 193 0 210 0 c 0
EndSplineSet
EndChar

StartChar: asciitilde
Encoding: 126 126 94
Width: 600
Flags: HW
LayerCount: 2
Back
Fore
SplineSet
210 500 m 0
 227 500 252 519 252 542 c 0
 252 565 227 584 210 584 c 0
 193 584 168 565 168 542 c 0
 168 519 193 500 210 500 c 0
450 500 m 0
 467 500 492 519 492 542 c 0
 492 565 467 584 450 584 c 0
 433 584 408 565 408 542 c 0
 408 519 433 500 450 500 c 0
150 416 m 0
 167 416 192 435 192 458 c 0
 192 481 167 500 150 500 c 0
 133 500 108 481 108 458 c 0
 108 435 133 416 150 416 c 0
270 416 m 0
 287 416 312 435 312 458 c 0
 312 481 287 500 270 500 c 0
 253 500 228 481 228 458 c 0
 228 435 253 416 270 416 c 0
390 416 m 0
 407 416 432 435 432 458 c 0
 432 481 407 500 390 500 c 0
 373 500 348 481 348 458 c 0
 348 435 373 416 390 416 c 0
90 333 m 0
 107 333 132 352 132 375 c 0
 132 398 107 417 90 417 c 0
 73 417 48 398 48 375 c 0
 48 352 73 333 90 333 c 0
330 333 m 0
 347 333 372 352 372 375 c 0
 372 398 347 417 330 417 c 0
 313 417 288 398 288 375 c 0
 288 352 313 333 330 333 c 0
EndSplineSet
EndChar

StartChar: registered
Encoding: 174 174 95
Width: 600
Flags: HW
LayerCount: 2
Back
Fore
SplineSet
270 500 m 0
 287 500 312 519 312 542 c 0
 312 565 287 584 270 584 c 0
 253 584 228 565 228 542 c 0
 228 519 253 500 270 500 c 0
390 500 m 0
 407 500 432 519 432 542 c 0
 432 565 407 584 390 584 c 0
 373 584 348 565 348 542 c 0
 348 519 373 500 390 500 c 0
210 416 m 0
 227 416 252 435 252 458 c 0
 252 481 227 500 210 500 c 0
 193 500 168 481 168 458 c 0
 168 435 193 416 210 416 c 0
450 416 m 0
 467 416 492 435 492 458 c 0
 492 481 467 500 450 500 c 0
 433 500 408 481 408 458 c 0
 408 435 433 416 450 416 c 0
210 333 m 0
 227 333 252 352 252 375 c 0
 252 398 227 417 210 417 c 0
 193 417 168 398 168 375 c 0
 168 352 193 333 210 333 c 0
90 250 m 0
 107 250 132 269 132 292 c 0
 132 315 107 334 90 334 c 0
 73 334 48 315 48 292 c 0
 48 269 73 250 90 250 c 0
210 250 m 0
 227 250 252 269 252 292 c 0
 252 315 227 334 210 334 c 0
 193 334 168 315 168 292 c 0
 168 269 193 250 210 250 c 0
330 250 m 0
 347 250 372 269 372 292 c 0
 372 315 347 334 330 334 c 0
 313 334 288 315 288 292 c 0
 288 269 313 250 330 250 c 0
210 166 m 0
 227 166 252 185 252 208 c 0
 252 231 227 250 210 250 c 0
 193 250 168 231 168 208 c 0
 168 185 193 166 210 166 c 0
210 83 m 0
 227 83 252 102 252 125 c 0
 252 148 227 167 210 167 c 0
 193 167 168 148 168 125 c 0
 168 102 193 83 210 83 c 0
90 0 m 0
 107 0 132 19 132 42 c 0
 132 65 107 84 90 84 c 0
 73 84 48 65 48 42 c 0
 48 19 73 0 90 0 c 0
210 0 m 0
 227 0 252 19 252 42 c 0
 252 65 227 84 210 84 c 0
 193 84 168 65 168 42 c 0
 168 19 193 0 210 0 c 0
330 0 m 0
 347 0 372 19 372 42 c 0
 372 65 347 84 330 84 c 0
 313 84 288 65 288 42 c 0
 288 19 313 0 330 0 c 0
450 0 m 0
 467 0 492 19 492 42 c 0
 492 65 467 84 450 84 c 0
 433 84 408 65 408 42 c 0
 408 19 433 0 450 0 c 0
EndSplineSet
EndChar

StartChar: Adieresis
Encoding: 196 196 96
Width: 600
Flags: HW
LayerCount: 2
Back
Fore
SplineSet
150 500 m 0
 167 500 192 519 192 542 c 0
 192 565 167 584 150 584 c 0
 133 584 108 565 108 542 c 0
 108 519 133 500 150 500 c 0
390 500 m 0
 407 500 432 519 432 542 c 0
 432 565 407 584 390 584 c 0
 373 584 348 565 348 542 c 0
 348 519 373 500 390 500 c 0
270 416 m 0
 287 416 312 435 312 458 c 0
 312 481 287 500 270 500 c 0
 253 500 228 481 228 458 c 0
 228 435 253 416 270 416 c 0
210 333 m 0
 227 333 252 352 252 375 c 0
 252 398 227 417 210 417 c 0
 193 417 168 398 168 375 c 0
 168 352 193 333 210 333 c 0
330 333 m 0
 347 333 372 352 372 375 c 0
 372 398 347 417 330 417 c 0
 313 417 288 398 288 375 c 0
 288 352 313 333 330 333 c 0
150 250 m 0
 167 250 192 269 192 292 c 0
 192 315 167 334 150 334 c 0
 133 334 108 315 108 292 c 0
 108 269 133 250 150 250 c 0
390 250 m 0
 407 250 432 269 432 292 c 0
 432 315 407 334 390 334 c 0
 373 334 348 315 348 292 c 0
 348 269 373 250 390 250 c 0
90 166 m 0
 107 166 132 185 132 208 c 0
 132 231 107 250 90 250 c 0
 73 250 48 231 48 208 c 0
 48 185 73 166 90 166 c 0
450 166 m 0
 467 166 492 185 492 208 c 0
 492 231 467 250 450 250 c 0
 433 250 408 231 408 208 c 0
 408 185 433 166 450 166 c 0
90 83 m 0
 107 83 132 102 132 125 c 0
 132 148 107 167 90 167 c 0
 73 167 48 148 48 125 c 0
 48 102 73 83 90 83 c 0
210 83 m 0
 227 83 252 102 252 125 c 0
 252 148 227 167 210 167 c 0
 193 167 168 148 168 125 c 0
 168 102 193 83 210 83 c 0
330 83 m 0
 347 83 372 102 372 125 c 0
 372 148 347 167 330 167 c 0
 313 167 288 148 288 125 c 0
 288 102 313 83 330 83 c 0
450 83 m 0
 467 83 492 102 492 125 c 0
 492 148 467 167 450 167 c 0
 433 167 408 148 408 125 c 0
 408 102 433 83 450 83 c 0
90 0 m 0
 107 0 132 19 132 42 c 0
 132 65 107 84 90 84 c 0
 73 84 48 65 48 42 c 0
 48 19 73 0 90 0 c 0
450 0 m 0
 467 0 492 19 492 42 c 0
 492 65 467 84 450 84 c 0
 433 84 408 65 408 42 c 0
 408 19 433 0 450 0 c 0
EndSplineSet
EndChar

StartChar: adieresis
Encoding: 228 228 97
Width: 600
Flags: HW
LayerCount: 2
Back
Fore
SplineSet
150 500 m 0
 167 500 192 519 192 542 c 0
 192 565 167 584 150 584 c 0
 133 584 108 565 108 542 c 0
 108 519 133 500 150 500 c 0
390 500 m 0
 407 500 432 519 432 542 c 0
 432 565 407 584 390 584 c 0
 373 584 348 565 348 542 c 0
 348 519 373 500 390 500 c 0
150 333 m 0
 167 333 192 352 192 375 c 0
 192 398 167 417 150 417 c 0
 133 417 108 398 108 375 c 0
 108 352 133 333 150 333 c 0
270 333 m 0
 287 333 312 352 312 375 c 0
 312 398 287 417 270 417 c 0
 253 417 228 398 228 375 c 0
 228 352 253 333 270 333 c 0
390 333 m 0
 407 333 432 352 432 375 c 0
 432 398 407 417 390 417 c 0
 373 417 348 398 348 375 c 0
 348 352 373 333 390 333 c 0
450 250 m 0
 467 250 492 269 492 292 c 0
 492 315 467 334 450 334 c 0
 433 334 408 315 408 292 c 0
 408 269 433 250 450 250 c 0
150 166 m 0
 167 166 192 185 192 208 c 0
 192 231 167 250 150 250 c 0
 133 250 108 231 108 208 c 0
 108 185 133 166 150 166 c 0
270 166 m 0
 287 166 312 185 312 208 c 0
 312 231 287 250 270 250 c 0
 253 250 228 231 228 208 c 0
 228 185 253 166 270 166 c 0
390 166 m 0
 407 166 432 185 432 208 c 0
 432 231 407 250 390 250 c 0
 373 250 348 231 348 208 c 0
 348 185 373 166 390 166 c 0
90 83 m 0
 107 83 132 102 132 125 c 0
 132 148 107 167 90 167 c 0
 73 167 48 148 48 125 c 0
 48 102 73 83 90 83 c 0
450 83 m 0
 467 83 492 102 492 125 c 0
 492 148 467 167 450 167 c 0
 433 167 408 148 408 125 c 0
 408 102 433 83 450 83 c 0
150 0 m 0
 167 0 192 19 192 42 c 0
 192 65 167 84 150 84 c 0
 133 84 108 65 108 42 c 0
 108 19 133 0 150 0 c 0
270 0 m 0
 287 0 312 19 312 42 c 0
 312 65 287 84 270 84 c 0
 253 84 228 65 228 42 c 0
 228 19 253 0 270 0 c 0
390 0 m 0
 407 0 432 19 432 42 c 0
 432 65 407 84 390 84 c 0
 373 84 348 65 348 42 c 0
 348 19 373 0 390 0 c 0
EndSplineSet
EndChar

StartChar: Aring
Encoding: 197 197 98
Width: 600
Flags: HW
LayerCount: 2
Back
Fore
SplineSet
270 500 m 0
 287 500 312 519 312 542 c 0
 312 565 287 584 270 584 c 0
 253 584 228 565 228 542 c 0
 228 519 253 500 270 500 c 0
210 416 m 0
 227 416 252 435 252 458 c 0
 252 481 227 500 210 500 c 0
 193 500 168 481 168 458 c 0
 168 435 193 416 210 416 c 0
330 416 m 0
 347 416 372 435 372 458 c 0
 372 481 347 500 330 500 c 0
 313 500 288 481 288 458 c 0
 288 435 313 416 330 416 c 0
270 333 m 0
 287 333 312 352 312 375 c 0
 312 398 287 417 270 417 c 0
 253 417 228 398 228 375 c 0
 228 352 253 333 270 333 c 0
210 250 m 0
 227 250 252 269 252 292 c 0
 252 315 227 334 210 334 c 0
 193 334 168 315 168 292 c 0
 168 269 193 250 210 250 c 0
330 250 m 0
 347 250 372 269 372 292 c 0
 372 315 347 334 330 334 c 0
 313 334 288 315 288 292 c 0
 288 269 313 250 330 250 c 0
150 166 m 0
 167 166 192 185 192 208 c 0
 192 231 167 250 150 250 c 0
 133 250 108 231 108 208 c 0
 108 185 133 166 150 166 c 0
390 166 m 0
 407 166 432 185 432 208 c 0
 432 231 407 250 390 250 c 0
 373 250 348 231 348 208 c 0
 348 185 373 166 390 166 c 0
90 83 m 0
 107 83 132 102 132 125 c 0
 132 148 107 167 90 167 c 0
 73 167 48 148 48 125 c 0
 48 102 73 83 90 83 c 0
210 83 m 0
 227 83 252 102 252 125 c 0
 252 148 227 167 210 167 c 0
 193 167 168 148 168 125 c 0
 168 102 193 83 210 83 c 0
330 83 m 0
 347 83 372 102 372 125 c 0
 372 148 347 167 330 167 c 0
 313 167 288 148 288 125 c 0
 288 102 313 83 330 83 c 0
450 83 m 0
 467 83 492 102 492 125 c 0
 492 148 467 167 450 167 c 0
 433 167 408 148 408 125 c 0
 408 102 433 83 450 83 c 0
90 0 m 0
 107 0 132 19 132 42 c 0
 132 65 107 84 90 84 c 0
 73 84 48 65 48 42 c 0
 48 19 73 0 90 0 c 0
450 0 m 0
 467 0 492 19 492 42 c 0
 492 65 467 84 450 84 c 0
 433 84 408 65 408 42 c 0
 408 19 433 0 450 0 c 0
EndSplineSet
EndChar

StartChar: aring
Encoding: 229 229 99
Width: 600
Flags: HW
LayerCount: 2
Back
Fore
SplineSet
270 500 m 0
 287 500 312 519 312 542 c 0
 312 565 287 584 270 584 c 0
 253 584 228 565 228 542 c 0
 228 519 253 500 270 500 c 0
210 416 m 0
 227 416 252 435 252 458 c 0
 252 481 227 500 210 500 c 0
 193 500 168 481 168 458 c 0
 168 435 193 416 210 416 c 0
330 416 m 0
 347 416 372 435 372 458 c 0
 372 481 347 500 330 500 c 0
 313 500 288 481 288 458 c 0
 288 435 313 416 330 416 c 0
270 333 m 0
 287 333 312 352 312 375 c 0
 312 398 287 417 270 417 c 0
 253 417 228 398 228 375 c 0
 228 352 253 333 270 333 c 0
150 250 m 0
 167 250 192 269 192 292 c 0
 192 315 167 334 150 334 c 0
 133 334 108 315 108 292 c 0
 108 269 133 250 150 250 c 0
270 250 m 0
 287 250 312 269 312 292 c 0
 312 315 287 334 270 334 c 0
 253 334 228 315 228 292 c 0
 228 269 253 250 270 250 c 0
390 250 m 0
 407 250 432 269 432 292 c 0
 432 315 407 334 390 334 c 0
 373 334 348 315 348 292 c 0
 348 269 373 250 390 250 c 0
90 166 m 0
 107 166 132 185 132 208 c 0
 132 231 107 250 90 250 c 0
 73 250 48 231 48 208 c 0
 48 185 73 166 90 166 c 0
390 166 m 0
 407 166 432 185 432 208 c 0
 432 231 407 250 390 250 c 0
 373 250 348 231 348 208 c 0
 348 185 373 166 390 166 c 0
90 83 m 0
 107 83 132 102 132 125 c 0
 132 148 107 167 90 167 c 0
 73 167 48 148 48 125 c 0
 48 102 73 83 90 83 c 0
390 83 m 0
 407 83 432 102 432 125 c 0
 432 148 407 167 390 167 c 0
 373 167 348 148 348 125 c 0
 348 102 373 83 390 83 c 0
150 0 m 0
 167 0 192 19 192 42 c 0
 192 65 167 84 150 84 c 0
 133 84 108 65 108 42 c 0
 108 19 133 0 150 0 c 0
270 0 m 0
 287 0 312 19 312 42 c 0
 312 65 287 84 270 84 c 0
 253 84 228 65 228 42 c 0
 228 19 253 0 270 0 c 0
450 0 m 0
 467 0 492 19 492 42 c 0
 492 65 467 84 450 84 c 0
 433 84 408 65 408 42 c 0
 408 19 433 0 450 0 c 0
EndSplineSet
EndChar

StartChar: Eacute
Encoding: 201 201 100
Width: 600
Flags: HW
LayerCount: 2
Back
Fore
SplineSet
330 500 m 0
 347 500 372 519 372 542 c 0
 372 565 347 584 330 584 c 0
 313 584 288 565 288 542 c 0
 288 519 313 500 330 500 c 0
270 416 m 0
 287 416 312 435 312 458 c 0
 312 481 287 500 270 500 c 0
 253 500 228 481 228 458 c 0
 228 435 253 416 270 416 c 0
90 333 m 0
 107 333 132 352 132 375 c 0
 132 398 107 417 90 417 c 0
 73 417 48 398 48 375 c 0
 48 352 73 333 90 333 c 0
210 333 m 0
 227 333 252 352 252 375 c 0
 252 398 227 417 210 417 c 0
 193 417 168 398 168 375 c 0
 168 352 193 333 210 333 c 0
330 333 m 0
 347 333 372 352 372 375 c 0
 372 398 347 417 330 417 c 0
 313 417 288 398 288 375 c 0
 288 352 313 333 330 333 c 0
450 333 m 0
 467 333 492 352 492 375 c 0
 492 398 467 417 450 417 c 0
 433 417 408 398 408 375 c 0
 408 352 433 333 450 333 c 0
90 250 m 0
 107 250 132 269 132 292 c 0
 132 315 107 334 90 334 c 0
 73 334 48 315 48 292 c 0
 48 269 73 250 90 250 c 0
90 166 m 0
 107 166 132 185 132 208 c 0
 132 231 107 250 90 250 c 0
 73 250 48 231 48 208 c 0
 48 185 73 166 90 166 c 0
210 166 m 0
 227 166 252 185 252 208 c 0
 252 231 227 250 210 250 c 0
 193 250 168 231 168 208 c 0
 168 185 193 166 210 166 c 0
330 166 m 0
 347 166 372 185 372 208 c 0
 372 231 347 250 330 250 c 0
 313 250 288 231 288 208 c 0
 288 185 313 166 330 166 c 0
90 83 m 0
 107 83 132 102 132 125 c 0
 132 148 107 167 90 167 c 0
 73 167 48 148 48 125 c 0
 48 102 73 83 90 83 c 0
90 0 m 0
 107 0 132 19 132 42 c 0
 132 65 107 84 90 84 c 0
 73 84 48 65 48 42 c 0
 48 19 73 0 90 0 c 0
210 0 m 0
 227 0 252 19 252 42 c 0
 252 65 227 84 210 84 c 0
 193 84 168 65 168 42 c 0
 168 19 193 0 210 0 c 0
330 0 m 0
 347 0 372 19 372 42 c 0
 372 65 347 84 330 84 c 0
 313 84 288 65 288 42 c 0
 288 19 313 0 330 0 c 0
450 0 m 0
 467 0 492 19 492 42 c 0
 492 65 467 84 450 84 c 0
 433 84 408 65 408 42 c 0
 408 19 433 0 450 0 c 0
EndSplineSet
EndChar

StartChar: eacute
Encoding: 233 233 101
Width: 600
Flags: HW
LayerCount: 2
Back
Fore
SplineSet
330 500 m 0
 347 500 372 519 372 542 c 0
 372 565 347 584 330 584 c 0
 313 584 288 565 288 542 c 0
 288 519 313 500 330 500 c 0
270 416 m 0
 287 416 312 435 312 458 c 0
 312 481 287 500 270 500 c 0
 253 500 228 481 228 458 c 0
 228 435 253 416 270 416 c 0
150 333 m 0
 167 333 192 352 192 375 c 0
 192 398 167 417 150 417 c 0
 133 417 108 398 108 375 c 0
 108 352 133 333 150 333 c 0
270 333 m 0
 287 333 312 352 312 375 c 0
 312 398 287 417 270 417 c 0
 253 417 228 398 228 375 c 0
 228 352 253 333 270 333 c 0
390 333 m 0
 407 333 432 352 432 375 c 0
 432 398 407 417 390 417 c 0
 373 417 348 398 348 375 c 0
 348 352 373 333 390 333 c 0
90 250 m 0
 107 250 132 269 132 292 c 0
 132 315 107 334 90 334 c 0
 73 334 48 315 48 292 c 0
 48 269 73 250 90 250 c 0
450 250 m 0
 467 250 492 269 492 292 c 0
 492 315 467 334 450 334 c 0
 433 334 408 315 408 292 c 0
 408 269 433 250 450 250 c 0
90 166 m 0
 107 166 132 185 132 208 c 0
 132 231 107 250 90 250 c 0
 73 250 48 231 48 208 c 0
 48 185 73 166 90 166 c 0
210 166 m 0
 227 166 252 185 252 208 c 0
 252 231 227 250 210 250 c 0
 193 250 168 231 168 208 c 0
 168 185 193 166 210 166 c 0
330 166 m 0
 347 166 372 185 372 208 c 0
 372 231 347 250 330 250 c 0
 313 250 288 231 288 208 c 0
 288 185 313 166 330 166 c 0
450 166 m 0
 467 166 492 185 492 208 c 0
 492 231 467 250 450 250 c 0
 433 250 408 231 408 208 c 0
 408 185 433 166 450 166 c 0
90 83 m 0
 107 83 132 102 132 125 c 0
 132 148 107 167 90 167 c 0
 73 167 48 148 48 125 c 0
 48 102 73 83 90 83 c 0
150 0 m 0
 167 0 192 19 192 42 c 0
 192 65 167 84 150 84 c 0
 133 84 108 65 108 42 c 0
 108 19 133 0 150 0 c 0
270 0 m 0
 287 0 312 19 312 42 c 0
 312 65 287 84 270 84 c 0
 253 84 228 65 228 42 c 0
 228 19 253 0 270 0 c 0
390 0 m 0
 407 0 432 19 432 42 c 0
 432 65 407 84 390 84 c 0
 373 84 348 65 348 42 c 0
 348 19 373 0 390 0 c 0
EndSplineSet
EndChar

StartChar: Odieresis
Encoding: 214 214 102
Width: 600
Flags: HW
LayerCount: 2
Back
Fore
SplineSet
90 500 m 0
 107 500 132 519 132 542 c 0
 132 565 107 584 90 584 c 0
 73 584 48 565 48 542 c 0
 48 519 73 500 90 500 c 0
450 500 m 0
 467 500 492 519 492 542 c 0
 492 565 467 584 450 584 c 0
 433 584 408 565 408 542 c 0
 408 519 433 500 450 500 c 0
210 416 m 0
 227 416 252 435 252 458 c 0
 252 481 227 500 210 500 c 0
 193 500 168 481 168 458 c 0
 168 435 193 416 210 416 c 0
330 416 m 0
 347 416 372 435 372 458 c 0
 372 481 347 500 330 500 c 0
 313 500 288 481 288 458 c 0
 288 435 313 416 330 416 c 0
150 333 m 0
 167 333 192 352 192 375 c 0
 192 398 167 417 150 417 c 0
 133 417 108 398 108 375 c 0
 108 352 133 333 150 333 c 0
390 333 m 0
 407 333 432 352 432 375 c 0
 432 398 407 417 390 417 c 0
 373 417 348 398 348 375 c 0
 348 352 373 333 390 333 c 0
90 250 m 0
 107 250 132 269 132 292 c 0
 132 315 107 334 90 334 c 0
 73 334 48 315 48 292 c 0
 48 269 73 250 90 250 c 0
450 250 m 0
 467 250 492 269 492 292 c 0
 492 315 467 334 450 334 c 0
 433 334 408 315 408 292 c 0
 408 269 433 250 450 250 c 0
90 166 m 0
 107 166 132 185 132 208 c 0
 132 231 107 250 90 250 c 0
 73 250 48 231 48 208 c 0
 48 185 73 166 90 166 c 0
450 166 m 0
 467 166 492 185 492 208 c 0
 492 231 467 250 450 250 c 0
 433 250 408 231 408 208 c 0
 408 185 433 166 450 166 c 0
150 83 m 0
 167 83 192 102 192 125 c 0
 192 148 167 167 150 167 c 0
 133 167 108 148 108 125 c 0
 108 102 133 83 150 83 c 0
390 83 m 0
 407 83 432 102 432 125 c 0
 432 148 407 167 390 167 c 0
 373 167 348 148 348 125 c 0
 348 102 373 83 390 83 c 0
210 0 m 0
 227 0 252 19 252 42 c 0
 252 65 227 84 210 84 c 0
 193 84 168 65 168 42 c 0
 168 19 193 0 210 0 c 0
330 0 m 0
 347 0 372 19 372 42 c 0
 372 65 347 84 330 84 c 0
 313 84 288 65 288 42 c 0
 288 19 313 0 330 0 c 0
EndSplineSet
EndChar

StartChar: odieresis
Encoding: 246 246 103
Width: 600
Flags: HW
LayerCount: 2
Back
Fore
SplineSet
150 500 m 0
 167 500 192 519 192 542 c 0
 192 565 167 584 150 584 c 0
 133 584 108 565 108 542 c 0
 108 519 133 500 150 500 c 0
390 500 m 0
 407 500 432 519 432 542 c 0
 432 565 407 584 390 584 c 0
 373 584 348 565 348 542 c 0
 348 519 373 500 390 500 c 0
150 333 m 0
 167 333 192 352 192 375 c 0
 192 398 167 417 150 417 c 0
 133 417 108 398 108 375 c 0
 108 352 133 333 150 333 c 0
270 333 m 0
 287 333 312 352 312 375 c 0
 312 398 287 417 270 417 c 0
 253 417 228 398 228 375 c 0
 228 352 253 333 270 333 c 0
390 333 m 0
 407 333 432 352 432 375 c 0
 432 398 407 417 390 417 c 0
 373 417 348 398 348 375 c 0
 348 352 373 333 390 333 c 0
90 250 m 0
 107 250 132 269 132 292 c 0
 132 315 107 334 90 334 c 0
 73 334 48 315 48 292 c 0
 48 269 73 250 90 250 c 0
450 250 m 0
 467 250 492 269 492 292 c 0
 492 315 467 334 450 334 c 0
 433 334 408 315 408 292 c 0
 408 269 433 250 450 250 c 0
90 166 m 0
 107 166 132 185 132 208 c 0
 132 231 107 250 90 250 c 0
 73 250 48 231 48 208 c 0
 48 185 73 166 90 166 c 0
450 166 m 0
 467 166 492 185 492 208 c 0
 492 231 467 250 450 250 c 0
 433 250 408 231 408 208 c 0
 408 185 433 166 450 166 c 0
90 83 m 0
 107 83 132 102 132 125 c 0
 132 148 107 167 90 167 c 0
 73 167 48 148 48 125 c 0
 48 102 73 83 90 83 c 0
450 83 m 0
 467 83 492 102 492 125 c 0
 492 148 467 167 450 167 c 0
 433 167 408 148 408 125 c 0
 408 102 433 83 450 83 c 0
150 0 m 0
 167 0 192 19 192 42 c 0
 192 65 167 84 150 84 c 0
 133 84 108 65 108 42 c 0
 108 19 133 0 150 0 c 0
270 0 m 0
 287 0 312 19 312 42 c 0
 312 65 287 84 270 84 c 0
 253 84 228 65 228 42 c 0
 228 19 253 0 270 0 c 0
390 0 m 0
 407 0 432 19 432 42 c 0
 432 65 407 84 390 84 c 0
 373 84 348 65 348 42 c 0
 348 19 373 0 390 0 c 0
EndSplineSet
EndChar

StartChar: Udieresis
Encoding: 220 220 104
Width: 600
Flags: HW
LayerCount: 2
Back
Fore
SplineSet
90 500 m 0
 107 500 132 519 132 542 c 0
 132 565 107 584 90 584 c 0
 73 584 48 565 48 542 c 0
 48 519 73 500 90 500 c 0
450 500 m 0
 467 500 492 519 492 542 c 0
 492 565 467 584 450 584 c 0
 433 584 408 565 408 542 c 0
 408 519 433 500 450 500 c 0
90 333 m 0
 107 333 132 352 132 375 c 0
 132 398 107 417 90 417 c 0
 73 417 48 398 48 375 c 0
 48 352 73 333 90 333 c 0
450 333 m 0
 467 333 492 352 492 375 c 0
 492 398 467 417 450 417 c 0
 433 417 408 398 408 375 c 0
 408 352 433 333 450 333 c 0
90 250 m 0
 107 250 132 269 132 292 c 0
 132 315 107 334 90 334 c 0
 73 334 48 315 48 292 c 0
 48 269 73 250 90 250 c 0
450 250 m 0
 467 250 492 269 492 292 c 0
 492 315 467 334 450 334 c 0
 433 334 408 315 408 292 c 0
 408 269 433 250 450 250 c 0
90 166 m 0
 107 166 132 185 132 208 c 0
 132 231 107 250 90 250 c 0
 73 250 48 231 48 208 c 0
 48 185 73 166 90 166 c 0
450 166 m 0
 467 166 492 185 492 208 c 0
 492 231 467 250 450 250 c 0
 433 250 408 231 408 208 c 0
 408 185 433 166 450 166 c 0
90 83 m 0
 107 83 132 102 132 125 c 0
 132 148 107 167 90 167 c 0
 73 167 48 148 48 125 c 0
 48 102 73 83 90 83 c 0
450 83 m 0
 467 83 492 102 492 125 c 0
 492 148 467 167 450 167 c 0
 433 167 408 148 408 125 c 0
 408 102 433 83 450 83 c 0
150 0 m 0
 167 0 192 19 192 42 c 0
 192 65 167 84 150 84 c 0
 133 84 108 65 108 42 c 0
 108 19 133 0 150 0 c 0
270 0 m 0
 287 0 312 19 312 42 c 0
 312 65 287 84 270 84 c 0
 253 84 228 65 228 42 c 0
 228 19 253 0 270 0 c 0
390 0 m 0
 407 0 432 19 432 42 c 0
 432 65 407 84 390 84 c 0
 373 84 348 65 348 42 c 0
 348 19 373 0 390 0 c 0
EndSplineSet
EndChar

StartChar: udieresis
Encoding: 252 252 105
Width: 600
Flags: HW
LayerCount: 2
Back
Fore
SplineSet
150 500 m 0
 167 500 192 519 192 542 c 0
 192 565 167 584 150 584 c 0
 133 584 108 565 108 542 c 0
 108 519 133 500 150 500 c 0
390 500 m 0
 407 500 432 519 432 542 c 0
 432 565 407 584 390 584 c 0
 373 584 348 565 348 542 c 0
 348 519 373 500 390 500 c 0
90 333 m 0
 107 333 132 352 132 375 c 0
 132 398 107 417 90 417 c 0
 73 417 48 398 48 375 c 0
 48 352 73 333 90 333 c 0
450 333 m 0
 467 333 492 352 492 375 c 0
 492 398 467 417 450 417 c 0
 433 417 408 398 408 375 c 0
 408 352 433 333 450 333 c 0
90 250 m 0
 107 250 132 269 132 292 c 0
 132 315 107 334 90 334 c 0
 73 334 48 315 48 292 c 0
 48 269 73 250 90 250 c 0
450 250 m 0
 467 250 492 269 492 292 c 0
 492 315 467 334 450 334 c 0
 433 334 408 315 408 292 c 0
 408 269 433 250 450 250 c 0
90 166 m 0
 107 166 132 185 132 208 c 0
 132 231 107 250 90 250 c 0
 73 250 48 231 48 208 c 0
 48 185 73 166 90 166 c 0
450 166 m 0
 467 166 492 185 492 208 c 0
 492 231 467 250 450 250 c 0
 433 250 408 231 408 208 c 0
 408 185 433 166 450 166 c 0
90 83 m 0
 107 83 132 102 132 125 c 0
 132 148 107 167 90 167 c 0
 73 167 48 148 48 125 c 0
 48 102 73 83 90 83 c 0
450 83 m 0
 467 83 492 102 492 125 c 0
 492 148 467 167 450 167 c 0
 433 167 408 148 408 125 c 0
 408 102 433 83 450 83 c 0
210 0 m 0
 227 0 252 19 252 42 c 0
 252 65 227 84 210 84 c 0
 193 84 168 65 168 42 c 0
 168 19 193 0 210 0 c 0
330 0 m 0
 347 0 372 19 372 42 c 0
 372 65 347 84 330 84 c 0
 313 84 288 65 288 42 c 0
 288 19 313 0 330 0 c 0
450 0 m 0
 467 0 492 19 492 42 c 0
 492 65 467 84 450 84 c 0
 433 84 408 65 408 42 c 0
 408 19 433 0 450 0 c 0
EndSplineSet
EndChar

StartChar: AE
Encoding: 198 198 106
Width: 600
Flags: HW
LayerCount: 2
Back
Fore
SplineSet
210 500 m 0
 227 500 252 519 252 542 c 0
 252 565 227 584 210 584 c 0
 193 584 168 565 168 542 c 0
 168 519 193 500 210 500 c 0
330 500 m 0
 347 500 372 519 372 542 c 0
 372 565 347 584 330 584 c 0
 313 584 288 565 288 542 c 0
 288 519 313 500 330 500 c 0
450 500 m 0
 467 500 492 519 492 542 c 0
 492 565 467 584 450 584 c 0
 433 584 408 565 408 542 c 0
 408 519 433 500 450 500 c 0
150 416 m 0
 167 416 192 435 192 458 c 0
 192 481 167 500 150 500 c 0
 133 500 108 481 108 458 c 0
 108 435 133 416 150 416 c 0
330 416 m 0
 347 416 372 435 372 458 c 0
 372 481 347 500 330 500 c 0
 313 500 288 481 288 458 c 0
 288 435 313 416 330 416 c 0
90 333 m 0
 107 333 132 352 132 375 c 0
 132 398 107 417 90 417 c 0
 73 417 48 398 48 375 c 0
 48 352 73 333 90 333 c 0
330 333 m 0
 347 333 372 352 372 375 c 0
 372 398 347 417 330 417 c 0
 313 417 288 398 288 375 c 0
 288 352 313 333 330 333 c 0
90 250 m 0
 107 250 132 269 132 292 c 0
 132 315 107 334 90 334 c 0
 73 334 48 315 48 292 c 0
 48 269 73 250 90 250 c 0
210 250 m 0
 227 250 252 269 252 292 c 0
 252 315 227 334 210 334 c 0
 193 334 168 315 168 292 c 0
 168 269 193 250 210 250 c 0
330 250 m 0
 347 250 372 269 372 292 c 0
 372 315 347 334 330 334 c 0
 313 334 288 315 288 292 c 0
 288 269 313 250 330 250 c 0
450 250 m 0
 467 250 492 269 492 292 c 0
 492 315 467 334 450 334 c 0
 433 334 408 315 408 292 c 0
 408 269 433 250 450 250 c 0
90 166 m 0
 107 166 132 185 132 208 c 0
 132 231 107 250 90 250 c 0
 73 250 48 231 48 208 c 0
 48 185 73 166 90 166 c 0
330 166 m 0
 347 166 372 185 372 208 c 0
 372 231 347 250 330 250 c 0
 313 250 288 231 288 208 c 0
 288 185 313 166 330 166 c 0
90 83 m 0
 107 83 132 102 132 125 c 0
 132 148 107 167 90 167 c 0
 73 167 48 148 48 125 c 0
 48 102 73 83 90 83 c 0
330 83 m 0
 347 83 372 102 372 125 c 0
 372 148 347 167 330 167 c 0
 313 167 288 148 288 125 c 0
 288 102 313 83 330 83 c 0
90 0 m 0
 107 0 132 19 132 42 c 0
 132 65 107 84 90 84 c 0
 73 84 48 65 48 42 c 0
 48 19 73 0 90 0 c 0
330 0 m 0
 347 0 372 19 372 42 c 0
 372 65 347 84 330 84 c 0
 313 84 288 65 288 42 c 0
 288 19 313 0 330 0 c 0
450 0 m 0
 467 0 492 19 492 42 c 0
 492 65 467 84 450 84 c 0
 433 84 408 65 408 42 c 0
 408 19 433 0 450 0 c 0
EndSplineSet
EndChar

StartChar: ae
Encoding: 230 230 107
Width: 600
Flags: HW
LayerCount: 2
Back
Fore
SplineSet
90 333 m 0
 107 333 132 352 132 375 c 0
 132 398 107 417 90 417 c 0
 73 417 48 398 48 375 c 0
 48 352 73 333 90 333 c 0
210 333 m 0
 227 333 252 352 252 375 c 0
 252 398 227 417 210 417 c 0
 193 417 168 398 168 375 c 0
 168 352 193 333 210 333 c 0
330 333 m 0
 347 333 372 352 372 375 c 0
 372 398 347 417 330 417 c 0
 313 417 288 398 288 375 c 0
 288 352 313 333 330 333 c 0
450 333 m 0
 467 333 492 352 492 375 c 0
 492 398 467 417 450 417 c 0
 433 417 408 398 408 375 c 0
 408 352 433 333 450 333 c 0
270 250 m 0
 287 250 312 269 312 292 c 0
 312 315 287 334 270 334 c 0
 253 334 228 315 228 292 c 0
 228 269 253 250 270 250 c 0
450 250 m 0
 467 250 492 269 492 292 c 0
 492 315 467 334 450 334 c 0
 433 334 408 315 408 292 c 0
 408 269 433 250 450 250 c 0
150 166 m 0
 167 166 192 185 192 208 c 0
 192 231 167 250 150 250 c 0
 133 250 108 231 108 208 c 0
 108 185 133 166 150 166 c 0
270 166 m 0
 287 166 312 185 312 208 c 0
 312 231 287 250 270 250 c 0
 253 250 228 231 228 208 c 0
 228 185 253 166 270 166 c 0
390 166 m 0
 407 166 432 185 432 208 c 0
 432 231 407 250 390 250 c 0
 373 250 348 231 348 208 c 0
 348 185 373 166 390 166 c 0
90 83 m 0
 107 83 132 102 132 125 c 0
 132 148 107 167 90 167 c 0
 73 167 48 148 48 125 c 0
 48 102 73 83 90 83 c 0
270 83 m 0
 287 83 312 102 312 125 c 0
 312 148 287 167 270 167 c 0
 253 167 228 148 228 125 c 0
 228 102 253 83 270 83 c 0
90 0 m 0
 107 0 132 19 132 42 c 0
 132 65 107 84 90 84 c 0
 73 84 48 65 48 42 c 0
 48 19 73 0 90 0 c 0
210 0 m 0
 227 0 252 19 252 42 c 0
 252 65 227 84 210 84 c 0
 193 84 168 65 168 42 c 0
 168 19 193 0 210 0 c 0
330 0 m 0
 347 0 372 19 372 42 c 0
 372 65 347 84 330 84 c 0
 313 84 288 65 288 42 c 0
 288 19 313 0 330 0 c 0
450 0 m 0
 467 0 492 19 492 42 c 0
 492 65 467 84 450 84 c 0
 433 84 408 65 408 42 c 0
 408 19 433 0 450 0 c 0
EndSplineSet
EndChar

StartChar: Oslash
Encoding: 216 216 108
Width: 600
Flags: HW
LayerCount: 2
Back
Fore
SplineSet
210 500 m 0
 227 500 252 519 252 542 c 0
 252 565 227 584 210 584 c 0
 193 584 168 565 168 542 c 0
 168 519 193 500 210 500 c 0
330 500 m 0
 347 500 372 519 372 542 c 0
 372 565 347 584 330 584 c 0
 313 584 288 565 288 542 c 0
 288 519 313 500 330 500 c 0
150 416 m 0
 167 416 192 435 192 458 c 0
 192 481 167 500 150 500 c 0
 133 500 108 481 108 458 c 0
 108 435 133 416 150 416 c 0
390 416 m 0
 407 416 432 435 432 458 c 0
 432 481 407 500 390 500 c 0
 373 500 348 481 348 458 c 0
 348 435 373 416 390 416 c 0
90 333 m 0
 107 333 132 352 132 375 c 0
 132 398 107 417 90 417 c 0
 73 417 48 398 48 375 c 0
 48 352 73 333 90 333 c 0
330 333 m 0
 347 333 372 352 372 375 c 0
 372 398 347 417 330 417 c 0
 313 417 288 398 288 375 c 0
 288 352 313 333 330 333 c 0
450 333 m 0
 467 333 492 352 492 375 c 0
 492 398 467 417 450 417 c 0
 433 417 408 398 408 375 c 0
 408 352 433 333 450 333 c 0
90 250 m 0
 107 250 132 269 132 292 c 0
 132 315 107 334 90 334 c 0
 73 334 48 315 48 292 c 0
 48 269 73 250 90 250 c 0
270 250 m 0
 287 250 312 269 312 292 c 0
 312 315 287 334 270 334 c 0
 253 334 228 315 228 292 c 0
 228 269 253 250 270 250 c 0
450 250 m 0
 467 250 492 269 492 292 c 0
 492 315 467 334 450 334 c 0
 433 334 408 315 408 292 c 0
 408 269 433 250 450 250 c 0
90 166 m 0
 107 166 132 185 132 208 c 0
 132 231 107 250 90 250 c 0
 73 250 48 231 48 208 c 0
 48 185 73 166 90 166 c 0
210 166 m 0
 227 166 252 185 252 208 c 0
 252 231 227 250 210 250 c 0
 193 250 168 231 168 208 c 0
 168 185 193 166 210 166 c 0
450 166 m 0
 467 166 492 185 492 208 c 0
 492 231 467 250 450 250 c 0
 433 250 408 231 408 208 c 0
 408 185 433 166 450 166 c 0
150 83 m 0
 167 83 192 102 192 125 c 0
 192 148 167 167 150 167 c 0
 133 167 108 148 108 125 c 0
 108 102 133 83 150 83 c 0
390 83 m 0
 407 83 432 102 432 125 c 0
 432 148 407 167 390 167 c 0
 373 167 348 148 348 125 c 0
 348 102 373 83 390 83 c 0
210 0 m 0
 227 0 252 19 252 42 c 0
 252 65 227 84 210 84 c 0
 193 84 168 65 168 42 c 0
 168 19 193 0 210 0 c 0
330 0 m 0
 347 0 372 19 372 42 c 0
 372 65 347 84 330 84 c 0
 313 84 288 65 288 42 c 0
 288 19 313 0 330 0 c 0
EndSplineSet
EndChar

StartChar: oslash
Encoding: 248 248 109
Width: 600
Flags: HW
LayerCount: 2
Back
Fore
SplineSet
150 333 m 0
 167 333 192 352 192 375 c 0
 192 398 167 417 150 417 c 0
 133 417 108 398 108 375 c 0
 108 352 133 333 150 333 c 0
270 333 m 0
 287 333 312 352 312 375 c 0
 312 398 287 417 270 417 c 0
 253 417 228 398 228 375 c 0
 228 352 253 333 270 333 c 0
390 333 m 0
 407 333 432 352 432 375 c 0
 432 398 407 417 390 417 c 0
 373 417 348 398 348 375 c 0
 348 352 373 333 390 333 c 0
90 250 m 0
 107 250 132 269 132 292 c 0
 132 315 107 334 90 334 c 0
 73 334 48 315 48 292 c 0
 48 269 73 250 90 250 c 0
330 250 m 0
 347 250 372 269 372 292 c 0
 372 315 347 334 330 334 c 0
 313 334 288 315 288 292 c 0
 288 269 313 250 330 250 c 0
450 250 m 0
 467 250 492 269 492 292 c 0
 492 315 467 334 450 334 c 0
 433 334 408 315 408 292 c 0
 408 269 433 250 450 250 c 0
90 166 m 0
 107 166 132 185 132 208 c 0
 132 231 107 250 90 250 c 0
 73 250 48 231 48 208 c 0
 48 185 73 166 90 166 c 0
270 166 m 0
 287 166 312 185 312 208 c 0
 312 231 287 250 270 250 c 0
 253 250 228 231 228 208 c 0
 228 185 253 166 270 166 c 0
450 166 m 0
 467 166 492 185 492 208 c 0
 492 231 467 250 450 250 c 0
 433 250 408 231 408 208 c 0
 408 185 433 166 450 166 c 0
90 83 m 0
 107 83 132 102 132 125 c 0
 132 148 107 167 90 167 c 0
 73 167 48 148 48 125 c 0
 48 102 73 83 90 83 c 0
210 83 m 0
 227 83 252 102 252 125 c 0
 252 148 227 167 210 167 c 0
 193 167 168 148 168 125 c 0
 168 102 193 83 210 83 c 0
450 83 m 0
 467 83 492 102 492 125 c 0
 492 148 467 167 450 167 c 0
 433 167 408 148 408 125 c 0
 408 102 433 83 450 83 c 0
150 0 m 0
 167 0 192 19 192 42 c 0
 192 65 167 84 150 84 c 0
 133 84 108 65 108 42 c 0
 108 19 133 0 150 0 c 0
270 0 m 0
 287 0 312 19 312 42 c 0
 312 65 287 84 270 84 c 0
 253 84 228 65 228 42 c 0
 228 19 253 0 270 0 c 0
390 0 m 0
 407 0 432 19 432 42 c 0
 432 65 407 84 390 84 c 0
 373 84 348 65 348 42 c 0
 348 19 373 0 390 0 c 0
EndSplineSet
EndChar

StartChar: section
Encoding: 167 167 110
Width: 600
Flags: HW
LayerCount: 2
Back
Fore
SplineSet
270 500 m 0
 287 500 312 519 312 542 c 0
 312 565 287 584 270 584 c 0
 253 584 228 565 228 542 c 0
 228 519 253 500 270 500 c 0
390 500 m 0
 407 500 432 519 432 542 c 0
 432 565 407 584 390 584 c 0
 373 584 348 565 348 542 c 0
 348 519 373 500 390 500 c 0
210 416 m 0
 227 416 252 435 252 458 c 0
 252 481 227 500 210 500 c 0
 193 500 168 481 168 458 c 0
 168 435 193 416 210 416 c 0
210 333 m 0
 227 333 252 352 252 375 c 0
 252 398 227 417 210 417 c 0
 193 417 168 398 168 375 c 0
 168 352 193 333 210 333 c 0
330 333 m 0
 347 333 372 352 372 375 c 0
 372 398 347 417 330 417 c 0
 313 417 288 398 288 375 c 0
 288 352 313 333 330 333 c 0
150 250 m 0
 167 250 192 269 192 292 c 0
 192 315 167 334 150 334 c 0
 133 334 108 315 108 292 c 0
 108 269 133 250 150 250 c 0
390 250 m 0
 407 250 432 269 432 292 c 0
 432 315 407 334 390 334 c 0
 373 334 348 315 348 292 c 0
 348 269 373 250 390 250 c 0
210 166 m 0
 227 166 252 185 252 208 c 0
 252 231 227 250 210 250 c 0
 193 250 168 231 168 208 c 0
 168 185 193 166 210 166 c 0
330 166 m 0
 347 166 372 185 372 208 c 0
 372 231 347 250 330 250 c 0
 313 250 288 231 288 208 c 0
 288 185 313 166 330 166 c 0
330 83 m 0
 347 83 372 102 372 125 c 0
 372 148 347 167 330 167 c 0
 313 167 288 148 288 125 c 0
 288 102 313 83 330 83 c 0
150 0 m 0
 167 0 192 19 192 42 c 0
 192 65 167 84 150 84 c 0
 133 84 108 65 108 42 c 0
 108 19 133 0 150 0 c 0
270 0 m 0
 287 0 312 19 312 42 c 0
 312 65 287 84 270 84 c 0
 253 84 228 65 228 42 c 0
 228 19 253 0 270 0 c 0
EndSplineSet
EndChar

StartChar: degree
Encoding: 176 176 111
Width: 600
Flags: HW
LayerCount: 2
Back
Fore
SplineSet
210 500 m 0
 227 500 252 519 252 542 c 0
 252 565 227 584 210 584 c 0
 193 584 168 565 168 542 c 0
 168 519 193 500 210 500 c 0
330 500 m 0
 347 500 372 519 372 542 c 0
 372 565 347 584 330 584 c 0
 313 584 288 565 288 542 c 0
 288 519 313 500 330 500 c 0
150 416 m 0
 167 416 192 435 192 458 c 0
 192 481 167 500 150 500 c 0
 133 500 108 481 108 458 c 0
 108 435 133 416 150 416 c 0
390 416 m 0
 407 416 432 435 432 458 c 0
 432 481 407 500 390 500 c 0
 373 500 348 481 348 458 c 0
 348 435 373 416 390 416 c 0
210 333 m 0
 227 333 252 352 252 375 c 0
 252 398 227 417 210 417 c 0
 193 417 168 398 168 375 c 0
 168 352 193 333 210 333 c 0
330 333 m 0
 347 333 372 352 372 375 c 0
 372 398 347 417 330 417 c 0
 313 417 288 398 288 375 c 0
 288 352 313 333 330 333 c 0
EndSplineSet
EndChar

StartChar: ccedilla
Encoding: 231 231 112
Width: 600
Flags: HW
LayerCount: 2
Back
Fore
SplineSet
150 416 m 0
 167 416 192 435 192 458 c 0
 192 481 167 500 150 500 c 0
 133 500 108 481 108 458 c 0
 108 435 133 416 150 416 c 0
270 416 m 0
 287 416 312 435 312 458 c 0
 312 481 287 500 270 500 c 0
 253 500 228 481 228 458 c 0
 228 435 253 416 270 416 c 0
390 416 m 0
 407 416 432 435 432 458 c 0
 432 481 407 500 390 500 c 0
 373 500 348 481 348 458 c 0
 348 435 373 416 390 416 c 0
90 333 m 0
 107 333 132 352 132 375 c 0
 132 398 107 417 90 417 c 0
 73 417 48 398 48 375 c 0
 48 352 73 333 90 333 c 0
450 333 m 0
 467 333 492 352 492 375 c 0
 492 398 467 417 450 417 c 0
 433 417 408 398 408 375 c 0
 408 352 433 333 450 333 c 0
90 250 m 0
 107 250 132 269 132 292 c 0
 132 315 107 334 90 334 c 0
 73 334 48 315 48 292 c 0
 48 269 73 250 90 250 c 0
90 166 m 0
 107 166 132 185 132 208 c 0
 132 231 107 250 90 250 c 0
 73 250 48 231 48 208 c 0
 48 185 73 166 90 166 c 0
150 83 m 0
 167 83 192 102 192 125 c 0
 192 148 167 167 150 167 c 0
 133 167 108 148 108 125 c 0
 108 102 133 83 150 83 c 0
270 83 m 0
 287 83 312 102 312 125 c 0
 312 148 287 167 270 167 c 0
 253 167 228 148 228 125 c 0
 228 102 253 83 270 83 c 0
390 83 m 0
 407 83 432 102 432 125 c 0
 432 148 407 167 390 167 c 0
 373 167 348 148 348 125 c 0
 348 102 373 83 390 83 c 0
270 0 m 0
 287 0 312 19 312 42 c 0
 312 65 287 84 270 84 c 0
 253 84 228 65 228 42 c 0
 228 19 253 0 270 0 c 0
EndSplineSet
EndChar

StartChar: dieresis
Encoding: 168 168 113
Width: 600
Flags: HW
LayerCount: 2
Back
Fore
SplineSet
150 500 m 0
 167 500 192 519 192 542 c 0
 192 565 167 584 150 584 c 0
 133 584 108 565 108 542 c 0
 108 519 133 500 150 500 c 0
390 500 m 0
 407 500 432 519 432 542 c 0
 432 565 407 584 390 584 c 0
 373 584 348 565 348 542 c 0
 348 519 373 500 390 500 c 0
EndSplineSet
EndChar

StartChar: germandbls
Encoding: 223 223 114
Width: 600
Flags: HW
LayerCount: 2
Back
Fore
SplineSet
150 500 m 0
 167 500 192 519 192 542 c 0
 192 565 167 584 150 584 c 0
 133 584 108 565 108 542 c 0
 108 519 133 500 150 500 c 0
270 500 m 0
 287 500 312 519 312 542 c 0
 312 565 287 584 270 584 c 0
 253 584 228 565 228 542 c 0
 228 519 253 500 270 500 c 0
90 416 m 0
 107 416 132 435 132 458 c 0
 132 481 107 500 90 500 c 0
 73 500 48 481 48 458 c 0
 48 435 73 416 90 416 c 0
330 416 m 0
 347 416 372 435 372 458 c 0
 372 481 347 500 330 500 c 0
 313 500 288 481 288 458 c 0
 288 435 313 416 330 416 c 0
90 333 m 0
 107 333 132 352 132 375 c 0
 132 398 107 417 90 417 c 0
 73 417 48 398 48 375 c 0
 48 352 73 333 90 333 c 0
270 333 m 0
 287 333 312 352 312 375 c 0
 312 398 287 417 270 417 c 0
 253 417 228 398 228 375 c 0
 228 352 253 333 270 333 c 0
90 250 m 0
 107 250 132 269 132 292 c 0
 132 315 107 334 90 334 c 0
 73 334 48 315 48 292 c 0
 48 269 73 250 90 250 c 0
210 250 m 0
 227 250 252 269 252 292 c 0
 252 315 227 334 210 334 c 0
 193 334 168 315 168 292 c 0
 168 269 193 250 210 250 c 0
330 250 m 0
 347 250 372 269 372 292 c 0
 372 315 347 334 330 334 c 0
 313 334 288 315 288 292 c 0
 288 269 313 250 330 250 c 0
90 166 m 0
 107 166 132 185 132 208 c 0
 132 231 107 250 90 250 c 0
 73 250 48 231 48 208 c 0
 48 185 73 166 90 166 c 0
390 166 m 0
 407 166 432 185 432 208 c 0
 432 231 407 250 390 250 c 0
 373 250 348 231 348 208 c 0
 348 185 373 166 390 166 c 0
90 83 m 0
 107 83 132 102 132 125 c 0
 132 148 107 167 90 167 c 0
 73 167 48 148 48 125 c 0
 48 102 73 83 90 83 c 0
390 83 m 0
 407 83 432 102 432 125 c 0
 432 148 407 167 390 167 c 0
 373 167 348 148 348 125 c 0
 348 102 373 83 390 83 c 0
90 0 m 0
 107 0 132 19 132 42 c 0
 132 65 107 84 90 84 c 0
 73 84 48 65 48 42 c 0
 48 19 73 0 90 0 c 0
210 0 m 0
 227 0 252 19 252 42 c 0
 252 65 227 84 210 84 c 0
 193 84 168 65 168 42 c 0
 168 19 193 0 210 0 c 0
330 0 m 0
 347 0 372 19 372 42 c 0
 372 65 347 84 330 84 c 0
 313 84 288 65 288 42 c 0
 288 19 313 0 330 0 c 0
EndSplineSet
EndChar

StartChar: agrave
Encoding: 224 224 115
Width: 600
Flags: HW
LayerCount: 2
Back
Fore
SplineSet
210 500 m 0
 227 500 252 519 252 542 c 0
 252 565 227 584 210 584 c 0
 193 584 168 565 168 542 c 0
 168 519 193 500 210 500 c 0
270 416 m 0
 287 416 312 435 312 458 c 0
 312 481 287 500 270 500 c 0
 253 500 228 481 228 458 c 0
 228 435 253 416 270 416 c 0
150 333 m 0
 167 333 192 352 192 375 c 0
 192 398 167 417 150 417 c 0
 133 417 108 398 108 375 c 0
 108 352 133 333 150 333 c 0
270 333 m 0
 287 333 312 352 312 375 c 0
 312 398 287 417 270 417 c 0
 253 417 228 398 228 375 c 0
 228 352 253 333 270 333 c 0
390 333 m 0
 407 333 432 352 432 375 c 0
 432 398 407 417 390 417 c 0
 373 417 348 398 348 375 c 0
 348 352 373 333 390 333 c 0
450 250 m 0
 467 250 492 269 492 292 c 0
 492 315 467 334 450 334 c 0
 433 334 408 315 408 292 c 0
 408 269 433 250 450 250 c 0
150 166 m 0
 167 166 192 185 192 208 c 0
 192 231 167 250 150 250 c 0
 133 250 108 231 108 208 c 0
 108 185 133 166 150 166 c 0
270 166 m 0
 287 166 312 185 312 208 c 0
 312 231 287 250 270 250 c 0
 253 250 228 231 228 208 c 0
 228 185 253 166 270 166 c 0
390 166 m 0
 407 166 432 185 432 208 c 0
 432 231 407 250 390 250 c 0
 373 250 348 231 348 208 c 0
 348 185 373 166 390 166 c 0
90 83 m 0
 107 83 132 102 132 125 c 0
 132 148 107 167 90 167 c 0
 73 167 48 148 48 125 c 0
 48 102 73 83 90 83 c 0
450 83 m 0
 467 83 492 102 492 125 c 0
 492 148 467 167 450 167 c 0
 433 167 408 148 408 125 c 0
 408 102 433 83 450 83 c 0
150 0 m 0
 167 0 192 19 192 42 c 0
 192 65 167 84 150 84 c 0
 133 84 108 65 108 42 c 0
 108 19 133 0 150 0 c 0
270 0 m 0
 287 0 312 19 312 42 c 0
 312 65 287 84 270 84 c 0
 253 84 228 65 228 42 c 0
 228 19 253 0 270 0 c 0
390 0 m 0
 407 0 432 19 432 42 c 0
 432 65 407 84 390 84 c 0
 373 84 348 65 348 42 c 0
 348 19 373 0 390 0 c 0
EndSplineSet
EndChar

StartChar: lessequal
Encoding: 8804 8804 116
Width: 600
Flags: HW
LayerCount: 2
Back
Fore
SplineSet
330 500 m 0
 347 500 372 519 372 542 c 0
 372 565 347 584 330 584 c 0
 313 584 288 565 288 542 c 0
 288 519 313 500 330 500 c 0
270 416 m 0
 287 416 312 435 312 458 c 0
 312 481 287 500 270 500 c 0
 253 500 228 481 228 458 c 0
 228 435 253 416 270 416 c 0
210 333 m 0
 227 333 252 352 252 375 c 0
 252 398 227 417 210 417 c 0
 193 417 168 398 168 375 c 0
 168 352 193 333 210 333 c 0
270 250 m 0
 287 250 312 269 312 292 c 0
 312 315 287 334 270 334 c 0
 253 334 228 315 228 292 c 0
 228 269 253 250 270 250 c 0
330 166 m 0
 347 166 372 185 372 208 c 0
 372 231 347 250 330 250 c 0
 313 250 288 231 288 208 c 0
 288 185 313 166 330 166 c 0
90 0 m 0
 107 0 132 19 132 42 c 0
 132 65 107 84 90 84 c 0
 73 84 48 65 48 42 c 0
 48 19 73 0 90 0 c 0
210 0 m 0
 227 0 252 19 252 42 c 0
 252 65 227 84 210 84 c 0
 193 84 168 65 168 42 c 0
 168 19 193 0 210 0 c 0
330 0 m 0
 347 0 372 19 372 42 c 0
 372 65 347 84 330 84 c 0
 313 84 288 65 288 42 c 0
 288 19 313 0 330 0 c 0
450 0 m 0
 467 0 492 19 492 42 c 0
 492 65 467 84 450 84 c 0
 433 84 408 65 408 42 c 0
 408 19 433 0 450 0 c 0
EndSplineSet
EndChar

StartChar: logicalor
Encoding: 8744 8744 117
Width: 600
Flags: HW
LayerCount: 2
Back
Fore
SplineSet
90 333 m 0
 107 333 132 352 132 375 c 0
 132 398 107 417 90 417 c 0
 73 417 48 398 48 375 c 0
 48 352 73 333 90 333 c 0
450 333 m 0
 467 333 492 352 492 375 c 0
 492 398 467 417 450 417 c 0
 433 417 408 398 408 375 c 0
 408 352 433 333 450 333 c 0
150 250 m 0
 167 250 192 269 192 292 c 0
 192 315 167 334 150 334 c 0
 133 334 108 315 108 292 c 0
 108 269 133 250 150 250 c 0
390 250 m 0
 407 250 432 269 432 292 c 0
 432 315 407 334 390 334 c 0
 373 334 348 315 348 292 c 0
 348 269 373 250 390 250 c 0
210 166 m 0
 227 166 252 185 252 208 c 0
 252 231 227 250 210 250 c 0
 193 250 168 231 168 208 c 0
 168 185 193 166 210 166 c 0
330 166 m 0
 347 166 372 185 372 208 c 0
 372 231 347 250 330 250 c 0
 313 250 288 231 288 208 c 0
 288 185 313 166 330 166 c 0
270 83 m 0
 287 83 312 102 312 125 c 0
 312 148 287 167 270 167 c 0
 253 167 228 148 228 125 c 0
 228 102 253 83 270 83 c 0
EndSplineSet
EndChar

StartChar: logicaland
Encoding: 8743 8743 118
Width: 600
Flags: HW
LayerCount: 2
Back
Fore
SplineSet
270 416 m 0
 287 416 312 435 312 458 c 0
 312 481 287 500 270 500 c 0
 253 500 228 481 228 458 c 0
 228 435 253 416 270 416 c 0
210 333 m 0
 227 333 252 352 252 375 c 0
 252 398 227 417 210 417 c 0
 193 417 168 398 168 375 c 0
 168 352 193 333 210 333 c 0
330 333 m 0
 347 333 372 352 372 375 c 0
 372 398 347 417 330 417 c 0
 313 417 288 398 288 375 c 0
 288 352 313 333 330 333 c 0
150 250 m 0
 167 250 192 269 192 292 c 0
 192 315 167 334 150 334 c 0
 133 334 108 315 108 292 c 0
 108 269 133 250 150 250 c 0
390 250 m 0
 407 250 432 269 432 292 c 0
 432 315 407 334 390 334 c 0
 373 334 348 315 348 292 c 0
 348 269 373 250 390 250 c 0
90 166 m 0
 107 166 132 185 132 208 c 0
 132 231 107 250 90 250 c 0
 73 250 48 231 48 208 c 0
 48 185 73 166 90 166 c 0
450 166 m 0
 467 166 492 185 492 208 c 0
 492 231 467 250 450 250 c 0
 433 250 408 231 408 208 c 0
 408 185 433 166 450 166 c 0
EndSplineSet
EndChar

StartChar: notequal
Encoding: 8800 8800 119
Width: 600
Flags: HW
LayerCount: 2
Back
Fore
SplineSet
450 500 m 0
 467 500 492 519 492 542 c 0
 492 565 467 584 450 584 c 0
 433 584 408 565 408 542 c 0
 408 519 433 500 450 500 c 0
390 416 m 0
 407 416 432 435 432 458 c 0
 432 481 407 500 390 500 c 0
 373 500 348 481 348 458 c 0
 348 435 373 416 390 416 c 0
90 333 m 0
 107 333 132 352 132 375 c 0
 132 398 107 417 90 417 c 0
 73 417 48 398 48 375 c 0
 48 352 73 333 90 333 c 0
210 333 m 0
 227 333 252 352 252 375 c 0
 252 398 227 417 210 417 c 0
 193 417 168 398 168 375 c 0
 168 352 193 333 210 333 c 0
330 333 m 0
 347 333 372 352 372 375 c 0
 372 398 347 417 330 417 c 0
 313 417 288 398 288 375 c 0
 288 352 313 333 330 333 c 0
450 333 m 0
 467 333 492 352 492 375 c 0
 492 398 467 417 450 417 c 0
 433 417 408 398 408 375 c 0
 408 352 433 333 450 333 c 0
270 250 m 0
 287 250 312 269 312 292 c 0
 312 315 287 334 270 334 c 0
 253 334 228 315 228 292 c 0
 228 269 253 250 270 250 c 0
90 166 m 0
 107 166 132 185 132 208 c 0
 132 231 107 250 90 250 c 0
 73 250 48 231 48 208 c 0
 48 185 73 166 90 166 c 0
210 166 m 0
 227 166 252 185 252 208 c 0
 252 231 227 250 210 250 c 0
 193 250 168 231 168 208 c 0
 168 185 193 166 210 166 c 0
330 166 m 0
 347 166 372 185 372 208 c 0
 372 231 347 250 330 250 c 0
 313 250 288 231 288 208 c 0
 288 185 313 166 330 166 c 0
450 166 m 0
 467 166 492 185 492 208 c 0
 492 231 467 250 450 250 c 0
 433 250 408 231 408 208 c 0
 408 185 433 166 450 166 c 0
150 83 m 0
 167 83 192 102 192 125 c 0
 192 148 167 167 150 167 c 0
 133 167 108 148 108 125 c 0
 108 102 133 83 150 83 c 0
90 0 m 0
 107 0 132 19 132 42 c 0
 132 65 107 84 90 84 c 0
 73 84 48 65 48 42 c 0
 48 19 73 0 90 0 c 0
EndSplineSet
EndChar

StartChar: divide
Encoding: 247 247 120
Width: 600
Flags: HW
LayerCount: 2
Back
Fore
SplineSet
270 416 m 0
 287 416 312 435 312 458 c 0
 312 481 287 500 270 500 c 0
 253 500 228 481 228 458 c 0
 228 435 253 416 270 416 c 0
90 250 m 0
 107 250 132 269 132 292 c 0
 132 315 107 334 90 334 c 0
 73 334 48 315 48 292 c 0
 48 269 73 250 90 250 c 0
210 250 m 0
 227 250 252 269 252 292 c 0
 252 315 227 334 210 334 c 0
 193 334 168 315 168 292 c 0
 168 269 193 250 210 250 c 0
330 250 m 0
 347 250 372 269 372 292 c 0
 372 315 347 334 330 334 c 0
 313 334 288 315 288 292 c 0
 288 269 313 250 330 250 c 0
450 250 m 0
 467 250 492 269 492 292 c 0
 492 315 467 334 450 334 c 0
 433 334 408 315 408 292 c 0
 408 269 433 250 450 250 c 0
270 83 m 0
 287 83 312 102 312 125 c 0
 312 148 287 167 270 167 c 0
 253 167 228 148 228 125 c 0
 228 102 253 83 270 83 c 0
EndSplineSet
EndChar

StartChar: multiply
Encoding: 215 215 121
Width: 600
Flags: HW
LayerCount: 2
Back
Fore
SplineSet
150 416 m 0
 167 416 192 435 192 458 c 0
 192 481 167 500 150 500 c 0
 133 500 108 481 108 458 c 0
 108 435 133 416 150 416 c 0
390 416 m 0
 407 416 432 435 432 458 c 0
 432 481 407 500 390 500 c 0
 373 500 348 481 348 458 c 0
 348 435 373 416 390 416 c 0
210 333 m 0
 227 333 252 352 252 375 c 0
 252 398 227 417 210 417 c 0
 193 417 168 398 168 375 c 0
 168 352 193 333 210 333 c 0
330 333 m 0
 347 333 372 352 372 375 c 0
 372 398 347 417 330 417 c 0
 313 417 288 398 288 375 c 0
 288 352 313 333 330 333 c 0
270 250 m 0
 287 250 312 269 312 292 c 0
 312 315 287 334 270 334 c 0
 253 334 228 315 228 292 c 0
 228 269 253 250 270 250 c 0
210 166 m 0
 227 166 252 185 252 208 c 0
 252 231 227 250 210 250 c 0
 193 250 168 231 168 208 c 0
 168 185 193 166 210 166 c 0
330 166 m 0
 347 166 372 185 372 208 c 0
 372 231 347 250 330 250 c 0
 313 250 288 231 288 208 c 0
 288 185 313 166 330 166 c 0
150 83 m 0
 167 83 192 102 192 125 c 0
 192 148 167 167 150 167 c 0
 133 167 108 148 108 125 c 0
 108 102 133 83 150 83 c 0
390 83 m 0
 407 83 432 102 432 125 c 0
 432 148 407 167 390 167 c 0
 373 167 348 148 348 125 c 0
 348 102 373 83 390 83 c 0
EndSplineSet
EndChar

StartChar: uni203E
Encoding: 8254 8254 122
Width: 600
Flags: HW
LayerCount: 2
Back
Fore
SplineSet
90 500 m 0
 107 500 132 519 132 542 c 0
 132 565 107 584 90 584 c 0
 73 584 48 565 48 542 c 0
 48 519 73 500 90 500 c 0
210 500 m 0
 227 500 252 519 252 542 c 0
 252 565 227 584 210 584 c 0
 193 584 168 565 168 542 c 0
 168 519 193 500 210 500 c 0
330 500 m 0
 347 500 372 519 372 542 c 0
 372 565 347 584 330 584 c 0
 313 584 288 565 288 542 c 0
 288 519 313 500 330 500 c 0
450 500 m 0
 467 500 492 519 492 542 c 0
 492 565 467 584 450 584 c 0
 433 584 408 565 408 542 c 0
 408 519 433 500 450 500 c 0
EndSplineSet
EndChar

StartChar: uni237A
Encoding: 9082 9082 123
Width: 600
Flags: HW
LayerCount: 2
Back
Fore
SplineSet
150 333 m 0
 167 333 192 352 192 375 c 0
 192 398 167 417 150 417 c 0
 133 417 108 398 108 375 c 0
 108 352 133 333 150 333 c 0
270 333 m 0
 287 333 312 352 312 375 c 0
 312 398 287 417 270 417 c 0
 253 417 228 398 228 375 c 0
 228 352 253 333 270 333 c 0
450 333 m 0
 467 333 492 352 492 375 c 0
 492 398 467 417 450 417 c 0
 433 417 408 398 408 375 c 0
 408 352 433 333 450 333 c 0
90 250 m 0
 107 250 132 269 132 292 c 0
 132 315 107 334 90 334 c 0
 73 334 48 315 48 292 c 0
 48 269 73 250 90 250 c 0
330 250 m 0
 347 250 372 269 372 292 c 0
 372 315 347 334 330 334 c 0
 313 334 288 315 288 292 c 0
 288 269 313 250 330 250 c 0
90 166 m 0
 107 166 132 185 132 208 c 0
 132 231 107 250 90 250 c 0
 73 250 48 231 48 208 c 0
 48 185 73 166 90 166 c 0
330 166 m 0
 347 166 372 185 372 208 c 0
 372 231 347 250 330 250 c 0
 313 250 288 231 288 208 c 0
 288 185 313 166 330 166 c 0
90 83 m 0
 107 83 132 102 132 125 c 0
 132 148 107 167 90 167 c 0
 73 167 48 148 48 125 c 0
 48 102 73 83 90 83 c 0
330 83 m 0
 347 83 372 102 372 125 c 0
 372 148 347 167 330 167 c 0
 313 167 288 148 288 125 c 0
 288 102 313 83 330 83 c 0
150 0 m 0
 167 0 192 19 192 42 c 0
 192 65 167 84 150 84 c 0
 133 84 108 65 108 42 c 0
 108 19 133 0 150 0 c 0
270 0 m 0
 287 0 312 19 312 42 c 0
 312 65 287 84 270 84 c 0
 253 84 228 65 228 42 c 0
 228 19 253 0 270 0 c 0
450 0 m 0
 467 0 492 19 492 42 c 0
 492 65 467 84 450 84 c 0
 433 84 408 65 408 42 c 0
 408 19 433 0 450 0 c 0
EndSplineSet
EndChar

StartChar: perpendicular
Encoding: 8869 8869 124
Width: 600
Flags: HW
LayerCount: 2
Back
Fore
SplineSet
270 250 m 0
 287 250 312 269 312 292 c 0
 312 315 287 334 270 334 c 0
 253 334 228 315 228 292 c 0
 228 269 253 250 270 250 c 0
270 166 m 0
 287 166 312 185 312 208 c 0
 312 231 287 250 270 250 c 0
 253 250 228 231 228 208 c 0
 228 185 253 166 270 166 c 0
270 83 m 0
 287 83 312 102 312 125 c 0
 312 148 287 167 270 167 c 0
 253 167 228 148 228 125 c 0
 228 102 253 83 270 83 c 0
90 0 m 0
 107 0 132 19 132 42 c 0
 132 65 107 84 90 84 c 0
 73 84 48 65 48 42 c 0
 48 19 73 0 90 0 c 0
210 0 m 0
 227 0 252 19 252 42 c 0
 252 65 227 84 210 84 c 0
 193 84 168 65 168 42 c 0
 168 19 193 0 210 0 c 0
330 0 m 0
 347 0 372 19 372 42 c 0
 372 65 347 84 330 84 c 0
 313 84 288 65 288 42 c 0
 288 19 313 0 330 0 c 0
450 0 m 0
 467 0 492 19 492 42 c 0
 492 65 467 84 450 84 c 0
 433 84 408 65 408 42 c 0
 408 19 433 0 450 0 c 0
EndSplineSet
EndChar

StartChar: intersection
Encoding: 8745 8745 125
Width: 600
Flags: HW
LayerCount: 2
Back
Fore
SplineSet
210 333 m 0
 227 333 252 352 252 375 c 0
 252 398 227 417 210 417 c 0
 193 417 168 398 168 375 c 0
 168 352 193 333 210 333 c 0
330 333 m 0
 347 333 372 352 372 375 c 0
 372 398 347 417 330 417 c 0
 313 417 288 398 288 375 c 0
 288 352 313 333 330 333 c 0
150 250 m 0
 167 250 192 269 192 292 c 0
 192 315 167 334 150 334 c 0
 133 334 108 315 108 292 c 0
 108 269 133 250 150 250 c 0
390 250 m 0
 407 250 432 269 432 292 c 0
 432 315 407 334 390 334 c 0
 373 334 348 315 348 292 c 0
 348 269 373 250 390 250 c 0
150 166 m 0
 167 166 192 185 192 208 c 0
 192 231 167 250 150 250 c 0
 133 250 108 231 108 208 c 0
 108 185 133 166 150 166 c 0
390 166 m 0
 407 166 432 185 432 208 c 0
 432 231 407 250 390 250 c 0
 373 250 348 231 348 208 c 0
 348 185 373 166 390 166 c 0
150 83 m 0
 167 83 192 102 192 125 c 0
 192 148 167 167 150 167 c 0
 133 167 108 148 108 125 c 0
 108 102 133 83 150 83 c 0
390 83 m 0
 407 83 432 102 432 125 c 0
 432 148 407 167 390 167 c 0
 373 167 348 148 348 125 c 0
 348 102 373 83 390 83 c 0
150 0 m 0
 167 0 192 19 192 42 c 0
 192 65 167 84 150 84 c 0
 133 84 108 65 108 42 c 0
 108 19 133 0 150 0 c 0
390 0 m 0
 407 0 432 19 432 42 c 0
 432 65 407 84 390 84 c 0
 373 84 348 65 348 42 c 0
 348 19 373 0 390 0 c 0
EndSplineSet
EndChar

StartChar: uni230A
Encoding: 8970 8970 126
Width: 600
Flags: HW
LayerCount: 2
Back
Fore
SplineSet
150 500 m 0
 167 500 192 519 192 542 c 0
 192 565 167 584 150 584 c 0
 133 584 108 565 108 542 c 0
 108 519 133 500 150 500 c 0
150 416 m 0
 167 416 192 435 192 458 c 0
 192 481 167 500 150 500 c 0
 133 500 108 481 108 458 c 0
 108 435 133 416 150 416 c 0
150 333 m 0
 167 333 192 352 192 375 c 0
 192 398 167 417 150 417 c 0
 133 417 108 398 108 375 c 0
 108 352 133 333 150 333 c 0
150 250 m 0
 167 250 192 269 192 292 c 0
 192 315 167 334 150 334 c 0
 133 334 108 315 108 292 c 0
 108 269 133 250 150 250 c 0
150 166 m 0
 167 166 192 185 192 208 c 0
 192 231 167 250 150 250 c 0
 133 250 108 231 108 208 c 0
 108 185 133 166 150 166 c 0
150 83 m 0
 167 83 192 102 192 125 c 0
 192 148 167 167 150 167 c 0
 133 167 108 148 108 125 c 0
 108 102 133 83 150 83 c 0
150 0 m 0
 167 0 192 19 192 42 c 0
 192 65 167 84 150 84 c 0
 133 84 108 65 108 42 c 0
 108 19 133 0 150 0 c 0
270 0 m 0
 287 0 312 19 312 42 c 0
 312 65 287 84 270 84 c 0
 253 84 228 65 228 42 c 0
 228 19 253 0 270 0 c 0
390 0 m 0
 407 0 432 19 432 42 c 0
 432 65 407 84 390 84 c 0
 373 84 348 65 348 42 c 0
 348 19 373 0 390 0 c 0
EndSplineSet
EndChar

StartChar: gradient
Encoding: 8711 8711 127
Width: 600
Flags: HW
LayerCount: 2
Back
Fore
SplineSet
90 416 m 0
 107 416 132 435 132 458 c 0
 132 481 107 500 90 500 c 0
 73 500 48 481 48 458 c 0
 48 435 73 416 90 416 c 0
210 416 m 0
 227 416 252 435 252 458 c 0
 252 481 227 500 210 500 c 0
 193 500 168 481 168 458 c 0
 168 435 193 416 210 416 c 0
330 416 m 0
 347 416 372 435 372 458 c 0
 372 481 347 500 330 500 c 0
 313 500 288 481 288 458 c 0
 288 435 313 416 330 416 c 0
450 416 m 0
 467 416 492 435 492 458 c 0
 492 481 467 500 450 500 c 0
 433 500 408 481 408 458 c 0
 408 435 433 416 450 416 c 0
90 333 m 0
 107 333 132 352 132 375 c 0
 132 398 107 417 90 417 c 0
 73 417 48 398 48 375 c 0
 48 352 73 333 90 333 c 0
450 333 m 0
 467 333 492 352 492 375 c 0
 492 398 467 417 450 417 c 0
 433 417 408 398 408 375 c 0
 408 352 433 333 450 333 c 0
150 250 m 0
 167 250 192 269 192 292 c 0
 192 315 167 334 150 334 c 0
 133 334 108 315 108 292 c 0
 108 269 133 250 150 250 c 0
390 250 m 0
 407 250 432 269 432 292 c 0
 432 315 407 334 390 334 c 0
 373 334 348 315 348 292 c 0
 348 269 373 250 390 250 c 0
210 166 m 0
 227 166 252 185 252 208 c 0
 252 231 227 250 210 250 c 0
 193 250 168 231 168 208 c 0
 168 185 193 166 210 166 c 0
330 166 m 0
 347 166 372 185 372 208 c 0
 372 231 347 250 330 250 c 0
 313 250 288 231 288 208 c 0
 288 185 313 166 330 166 c 0
270 83 m 0
 287 83 312 102 312 125 c 0
 312 148 287 167 270 167 c 0
 253 167 228 148 228 125 c 0
 228 102 253 83 270 83 c 0
EndSplineSet
EndChar

StartChar: Delta
Encoding: 8710 8710 128
Width: 600
Flags: HW
LayerCount: 2
Back
Fore
SplineSet
270 416 m 0
 287 416 312 435 312 458 c 0
 312 481 287 500 270 500 c 0
 253 500 228 481 228 458 c 0
 228 435 253 416 270 416 c 0
210 333 m 0
 227 333 252 352 252 375 c 0
 252 398 227 417 210 417 c 0
 193 417 168 398 168 375 c 0
 168 352 193 333 210 333 c 0
330 333 m 0
 347 333 372 352 372 375 c 0
 372 398 347 417 330 417 c 0
 313 417 288 398 288 375 c 0
 288 352 313 333 330 333 c 0
150 250 m 0
 167 250 192 269 192 292 c 0
 192 315 167 334 150 334 c 0
 133 334 108 315 108 292 c 0
 108 269 133 250 150 250 c 0
390 250 m 0
 407 250 432 269 432 292 c 0
 432 315 407 334 390 334 c 0
 373 334 348 315 348 292 c 0
 348 269 373 250 390 250 c 0
90 166 m 0
 107 166 132 185 132 208 c 0
 132 231 107 250 90 250 c 0
 73 250 48 231 48 208 c 0
 48 185 73 166 90 166 c 0
450 166 m 0
 467 166 492 185 492 208 c 0
 492 231 467 250 450 250 c 0
 433 250 408 231 408 208 c 0
 408 185 433 166 450 166 c 0
90 83 m 0
 107 83 132 102 132 125 c 0
 132 148 107 167 90 167 c 0
 73 167 48 148 48 125 c 0
 48 102 73 83 90 83 c 0
210 83 m 0
 227 83 252 102 252 125 c 0
 252 148 227 167 210 167 c 0
 193 167 168 148 168 125 c 0
 168 102 193 83 210 83 c 0
330 83 m 0
 347 83 372 102 372 125 c 0
 372 148 347 167 330 167 c 0
 313 167 288 148 288 125 c 0
 288 102 313 83 330 83 c 0
450 83 m 0
 467 83 492 102 492 125 c 0
 492 148 467 167 450 167 c 0
 433 167 408 148 408 125 c 0
 408 102 433 83 450 83 c 0
EndSplineSet
EndChar

StartChar: uni2218
Encoding: 8728 8728 129
Width: 600
Flags: HW
LayerCount: 2
Back
Fore
SplineSet
210 333 m 0
 227 333 252 352 252 375 c 0
 252 398 227 417 210 417 c 0
 193 417 168 398 168 375 c 0
 168 352 193 333 210 333 c 0
330 333 m 0
 347 333 372 352 372 375 c 0
 372 398 347 417 330 417 c 0
 313 417 288 398 288 375 c 0
 288 352 313 333 330 333 c 0
150 250 m 0
 167 250 192 269 192 292 c 0
 192 315 167 334 150 334 c 0
 133 334 108 315 108 292 c 0
 108 269 133 250 150 250 c 0
390 250 m 0
 407 250 432 269 432 292 c 0
 432 315 407 334 390 334 c 0
 373 334 348 315 348 292 c 0
 348 269 373 250 390 250 c 0
210 166 m 0
 227 166 252 185 252 208 c 0
 252 231 227 250 210 250 c 0
 193 250 168 231 168 208 c 0
 168 185 193 166 210 166 c 0
330 166 m 0
 347 166 372 185 372 208 c 0
 372 231 347 250 330 250 c 0
 313 250 288 231 288 208 c 0
 288 185 313 166 330 166 c 0
EndSplineSet
EndChar

StartChar: uni2395
Encoding: 9109 9109 130
Width: 600
Flags: HW
LayerCount: 2
Back
Fore
SplineSet
90 500 m 0
 107 500 132 519 132 542 c 0
 132 565 107 584 90 584 c 0
 73 584 48 565 48 542 c 0
 48 519 73 500 90 500 c 0
210 500 m 0
 227 500 252 519 252 542 c 0
 252 565 227 584 210 584 c 0
 193 584 168 565 168 542 c 0
 168 519 193 500 210 500 c 0
330 500 m 0
 347 500 372 519 372 542 c 0
 372 565 347 584 330 584 c 0
 313 584 288 565 288 542 c 0
 288 519 313 500 330 500 c 0
450 500 m 0
 467 500 492 519 492 542 c 0
 492 565 467 584 450 584 c 0
 433 584 408 565 408 542 c 0
 408 519 433 500 450 500 c 0
90 416 m 0
 107 416 132 435 132 458 c 0
 132 481 107 500 90 500 c 0
 73 500 48 481 48 458 c 0
 48 435 73 416 90 416 c 0
450 416 m 0
 467 416 492 435 492 458 c 0
 492 481 467 500 450 500 c 0
 433 500 408 481 408 458 c 0
 408 435 433 416 450 416 c 0
90 333 m 0
 107 333 132 352 132 375 c 0
 132 398 107 417 90 417 c 0
 73 417 48 398 48 375 c 0
 48 352 73 333 90 333 c 0
450 333 m 0
 467 333 492 352 492 375 c 0
 492 398 467 417 450 417 c 0
 433 417 408 398 408 375 c 0
 408 352 433 333 450 333 c 0
90 250 m 0
 107 250 132 269 132 292 c 0
 132 315 107 334 90 334 c 0
 73 334 48 315 48 292 c 0
 48 269 73 250 90 250 c 0
450 250 m 0
 467 250 492 269 492 292 c 0
 492 315 467 334 450 334 c 0
 433 334 408 315 408 292 c 0
 408 269 433 250 450 250 c 0
90 166 m 0
 107 166 132 185 132 208 c 0
 132 231 107 250 90 250 c 0
 73 250 48 231 48 208 c 0
 48 185 73 166 90 166 c 0
450 166 m 0
 467 166 492 185 492 208 c 0
 492 231 467 250 450 250 c 0
 433 250 408 231 408 208 c 0
 408 185 433 166 450 166 c 0
90 83 m 0
 107 83 132 102 132 125 c 0
 132 148 107 167 90 167 c 0
 73 167 48 148 48 125 c 0
 48 102 73 83 90 83 c 0
450 83 m 0
 467 83 492 102 492 125 c 0
 492 148 467 167 450 167 c 0
 433 167 408 148 408 125 c 0
 408 102 433 83 450 83 c 0
90 0 m 0
 107 0 132 19 132 42 c 0
 132 65 107 84 90 84 c 0
 73 84 48 65 48 42 c 0
 48 19 73 0 90 0 c 0
210 0 m 0
 227 0 252 19 252 42 c 0
 252 65 227 84 210 84 c 0
 193 84 168 65 168 42 c 0
 168 19 193 0 210 0 c 0
330 0 m 0
 347 0 372 19 372 42 c 0
 372 65 347 84 330 84 c 0
 313 84 288 65 288 42 c 0
 288 19 313 0 330 0 c 0
450 0 m 0
 467 0 492 19 492 42 c 0
 492 65 467 84 450 84 c 0
 433 84 408 65 408 42 c 0
 408 19 433 0 450 0 c 0
EndSplineSet
EndChar

StartChar: uni22A4
Encoding: 8868 8868 131
Width: 600
Flags: HW
LayerCount: 2
Back
Fore
SplineSet
90 250 m 0
 107 250 132 269 132 292 c 0
 132 315 107 334 90 334 c 0
 73 334 48 315 48 292 c 0
 48 269 73 250 90 250 c 0
210 250 m 0
 227 250 252 269 252 292 c 0
 252 315 227 334 210 334 c 0
 193 334 168 315 168 292 c 0
 168 269 193 250 210 250 c 0
330 250 m 0
 347 250 372 269 372 292 c 0
 372 315 347 334 330 334 c 0
 313 334 288 315 288 292 c 0
 288 269 313 250 330 250 c 0
450 250 m 0
 467 250 492 269 492 292 c 0
 492 315 467 334 450 334 c 0
 433 334 408 315 408 292 c 0
 408 269 433 250 450 250 c 0
270 166 m 0
 287 166 312 185 312 208 c 0
 312 231 287 250 270 250 c 0
 253 250 228 231 228 208 c 0
 228 185 253 166 270 166 c 0
270 83 m 0
 287 83 312 102 312 125 c 0
 312 148 287 167 270 167 c 0
 253 167 228 148 228 125 c 0
 228 102 253 83 270 83 c 0
270 0 m 0
 287 0 312 19 312 42 c 0
 312 65 287 84 270 84 c 0
 253 84 228 65 228 42 c 0
 228 19 253 0 270 0 c 0
EndSplineSet
EndChar

